G04 EAGLE Gerber RS-274X export*
G75*
%MOMM*%
%FSLAX34Y34*%
%LPD*%
%INTop Copper*%
%IPPOS*%
%AMOC8*
5,1,8,0,0,1.08239X$1,22.5*%
G01*
%ADD10P,1.429621X8X202.500000*%
%ADD11P,1.429621X8X112.500000*%
%ADD12R,1.676400X1.676400*%
%ADD13P,1.814519X8X292.500000*%
%ADD14R,3.116000X3.116000*%
%ADD15C,1.650000*%
%ADD16C,1.320800*%
%ADD17C,1.320800*%
%ADD18C,1.524000*%
%ADD19P,1.429621X8X22.500000*%
%ADD20C,0.756400*%
%ADD21C,0.406400*%

G36*
X39012Y10163D02*
X39012Y10163D01*
X39030Y10161D01*
X39212Y10182D01*
X39395Y10201D01*
X39412Y10206D01*
X39429Y10208D01*
X39604Y10265D01*
X39780Y10319D01*
X39795Y10327D01*
X39812Y10333D01*
X39972Y10423D01*
X40134Y10511D01*
X40147Y10522D01*
X40163Y10531D01*
X40302Y10651D01*
X40443Y10768D01*
X40454Y10782D01*
X40468Y10794D01*
X40580Y10939D01*
X40695Y11082D01*
X40703Y11098D01*
X40714Y11112D01*
X40796Y11277D01*
X40881Y11439D01*
X40886Y11456D01*
X40894Y11472D01*
X40941Y11651D01*
X40992Y11826D01*
X40994Y11844D01*
X40998Y11861D01*
X41025Y12192D01*
X41025Y15444D01*
X42513Y19037D01*
X45263Y21787D01*
X47000Y22506D01*
X48856Y23275D01*
X52744Y23275D01*
X56337Y21787D01*
X59087Y19037D01*
X60575Y15444D01*
X60575Y12192D01*
X60577Y12174D01*
X60575Y12156D01*
X60596Y11974D01*
X60615Y11791D01*
X60620Y11774D01*
X60622Y11757D01*
X60679Y11582D01*
X60733Y11406D01*
X60741Y11391D01*
X60747Y11374D01*
X60837Y11214D01*
X60925Y11052D01*
X60936Y11039D01*
X60945Y11023D01*
X61065Y10884D01*
X61182Y10743D01*
X61196Y10732D01*
X61208Y10718D01*
X61353Y10606D01*
X61496Y10491D01*
X61512Y10483D01*
X61526Y10472D01*
X61691Y10390D01*
X61853Y10305D01*
X61870Y10300D01*
X61886Y10292D01*
X62065Y10245D01*
X62240Y10194D01*
X62258Y10192D01*
X62275Y10188D01*
X62606Y10161D01*
X165994Y10161D01*
X166012Y10163D01*
X166030Y10161D01*
X166212Y10182D01*
X166395Y10201D01*
X166412Y10206D01*
X166429Y10208D01*
X166604Y10265D01*
X166780Y10319D01*
X166795Y10327D01*
X166812Y10333D01*
X166972Y10423D01*
X167134Y10511D01*
X167147Y10522D01*
X167163Y10531D01*
X167302Y10651D01*
X167443Y10768D01*
X167454Y10782D01*
X167468Y10794D01*
X167580Y10939D01*
X167695Y11082D01*
X167703Y11098D01*
X167714Y11112D01*
X167796Y11277D01*
X167881Y11439D01*
X167886Y11456D01*
X167894Y11472D01*
X167941Y11651D01*
X167992Y11826D01*
X167994Y11844D01*
X167998Y11861D01*
X168025Y12192D01*
X168025Y15444D01*
X169513Y19037D01*
X172263Y21787D01*
X174000Y22506D01*
X175856Y23275D01*
X179744Y23275D01*
X183337Y21787D01*
X186087Y19037D01*
X187575Y15444D01*
X187575Y12192D01*
X187577Y12174D01*
X187575Y12156D01*
X187596Y11974D01*
X187615Y11791D01*
X187620Y11774D01*
X187622Y11757D01*
X187679Y11582D01*
X187733Y11406D01*
X187741Y11391D01*
X187747Y11374D01*
X187837Y11214D01*
X187925Y11052D01*
X187936Y11039D01*
X187945Y11023D01*
X188065Y10884D01*
X188182Y10743D01*
X188196Y10732D01*
X188208Y10718D01*
X188353Y10606D01*
X188496Y10491D01*
X188512Y10483D01*
X188526Y10472D01*
X188691Y10390D01*
X188853Y10305D01*
X188870Y10300D01*
X188886Y10292D01*
X189065Y10245D01*
X189240Y10194D01*
X189258Y10192D01*
X189275Y10188D01*
X189606Y10161D01*
X240140Y10161D01*
X240148Y10162D01*
X240157Y10161D01*
X240349Y10182D01*
X240540Y10201D01*
X240549Y10203D01*
X240558Y10204D01*
X240740Y10262D01*
X240925Y10319D01*
X240933Y10323D01*
X240942Y10326D01*
X241110Y10419D01*
X241279Y10511D01*
X241286Y10516D01*
X241294Y10521D01*
X241441Y10645D01*
X241588Y10768D01*
X241594Y10775D01*
X241601Y10781D01*
X241720Y10932D01*
X241841Y11082D01*
X241845Y11090D01*
X241850Y11097D01*
X241938Y11270D01*
X242026Y11439D01*
X242029Y11448D01*
X242033Y11456D01*
X242085Y11642D01*
X242138Y11826D01*
X242138Y11835D01*
X242141Y11844D01*
X242155Y12037D01*
X242171Y12228D01*
X242170Y12236D01*
X242170Y12245D01*
X242146Y12438D01*
X242124Y12627D01*
X242121Y12636D01*
X242120Y12645D01*
X242058Y12828D01*
X241999Y13010D01*
X241994Y13018D01*
X241992Y13026D01*
X241896Y13192D01*
X241801Y13361D01*
X241795Y13368D01*
X241791Y13375D01*
X241576Y13628D01*
X239521Y15683D01*
X239521Y22417D01*
X244283Y27179D01*
X251017Y27179D01*
X255779Y22417D01*
X255779Y15683D01*
X253724Y13628D01*
X253718Y13621D01*
X253712Y13616D01*
X253591Y13466D01*
X253469Y13317D01*
X253465Y13309D01*
X253459Y13302D01*
X253371Y13132D01*
X253280Y12961D01*
X253278Y12952D01*
X253274Y12945D01*
X253221Y12760D01*
X253166Y12575D01*
X253165Y12566D01*
X253162Y12558D01*
X253147Y12367D01*
X253129Y12174D01*
X253130Y12165D01*
X253129Y12156D01*
X253152Y11967D01*
X253173Y11774D01*
X253175Y11765D01*
X253176Y11757D01*
X253236Y11575D01*
X253294Y11390D01*
X253298Y11382D01*
X253301Y11374D01*
X253396Y11205D01*
X253489Y11038D01*
X253495Y11031D01*
X253499Y11023D01*
X253625Y10877D01*
X253749Y10731D01*
X253756Y10725D01*
X253762Y10718D01*
X253914Y10601D01*
X254065Y10481D01*
X254073Y10477D01*
X254080Y10472D01*
X254252Y10386D01*
X254424Y10299D01*
X254433Y10296D01*
X254441Y10292D01*
X254627Y10242D01*
X254812Y10191D01*
X254821Y10190D01*
X254830Y10188D01*
X255160Y10161D01*
X419608Y10161D01*
X419626Y10163D01*
X419644Y10161D01*
X419826Y10182D01*
X420009Y10201D01*
X420026Y10206D01*
X420043Y10208D01*
X420218Y10265D01*
X420394Y10319D01*
X420409Y10327D01*
X420426Y10333D01*
X420586Y10423D01*
X420748Y10511D01*
X420761Y10522D01*
X420777Y10531D01*
X420916Y10651D01*
X421057Y10768D01*
X421068Y10782D01*
X421082Y10794D01*
X421194Y10939D01*
X421309Y11082D01*
X421317Y11098D01*
X421328Y11112D01*
X421410Y11277D01*
X421495Y11439D01*
X421500Y11456D01*
X421508Y11472D01*
X421555Y11651D01*
X421606Y11826D01*
X421608Y11844D01*
X421612Y11861D01*
X421639Y12192D01*
X421639Y15618D01*
X421638Y15631D01*
X421639Y15644D01*
X421618Y15831D01*
X421599Y16018D01*
X421595Y16031D01*
X421594Y16045D01*
X421536Y16223D01*
X421481Y16403D01*
X421475Y16415D01*
X421471Y16428D01*
X421379Y16592D01*
X421289Y16757D01*
X421281Y16768D01*
X421274Y16779D01*
X421152Y16923D01*
X421032Y17067D01*
X421021Y17075D01*
X421013Y17085D01*
X420864Y17201D01*
X420718Y17319D01*
X420706Y17325D01*
X420696Y17333D01*
X420527Y17418D01*
X420361Y17504D01*
X420348Y17508D01*
X420336Y17514D01*
X420154Y17564D01*
X419974Y17616D01*
X419960Y17617D01*
X419947Y17621D01*
X419759Y17633D01*
X419572Y17649D01*
X419559Y17647D01*
X419546Y17648D01*
X419358Y17624D01*
X419173Y17602D01*
X419160Y17598D01*
X419147Y17596D01*
X418831Y17494D01*
X415839Y16255D01*
X396961Y16255D01*
X393600Y17647D01*
X391027Y20220D01*
X390874Y20589D01*
X390864Y20609D01*
X390857Y20630D01*
X390769Y20786D01*
X390684Y20944D01*
X390670Y20961D01*
X390659Y20981D01*
X390542Y21117D01*
X390428Y21255D01*
X390411Y21269D01*
X390396Y21286D01*
X390255Y21395D01*
X390115Y21508D01*
X390095Y21519D01*
X390078Y21532D01*
X389918Y21612D01*
X389759Y21695D01*
X389737Y21702D01*
X389717Y21712D01*
X389544Y21758D01*
X389372Y21808D01*
X389350Y21810D01*
X389329Y21816D01*
X388998Y21843D01*
X385877Y21843D01*
X371093Y36627D01*
X371093Y73885D01*
X371091Y73912D01*
X371093Y73939D01*
X371071Y74112D01*
X371053Y74286D01*
X371046Y74311D01*
X371042Y74338D01*
X370987Y74504D01*
X370935Y74671D01*
X370922Y74694D01*
X370914Y74720D01*
X370827Y74871D01*
X370743Y75025D01*
X370726Y75045D01*
X370713Y75069D01*
X370498Y75322D01*
X354722Y91098D01*
X354701Y91115D01*
X354683Y91136D01*
X354546Y91243D01*
X354410Y91353D01*
X354387Y91366D01*
X354365Y91382D01*
X354208Y91460D01*
X354054Y91542D01*
X354029Y91550D01*
X354005Y91562D01*
X353835Y91607D01*
X353669Y91657D01*
X353642Y91659D01*
X353616Y91666D01*
X353285Y91693D01*
X341427Y91693D01*
X338749Y94371D01*
X338748Y94372D01*
X333824Y99296D01*
X333807Y99310D01*
X333793Y99327D01*
X333652Y99437D01*
X333513Y99551D01*
X333493Y99561D01*
X333476Y99575D01*
X333316Y99655D01*
X333157Y99739D01*
X333136Y99746D01*
X333116Y99756D01*
X332943Y99803D01*
X332771Y99854D01*
X332749Y99856D01*
X332727Y99862D01*
X332550Y99874D01*
X332370Y99890D01*
X332348Y99888D01*
X332326Y99890D01*
X332148Y99866D01*
X331970Y99847D01*
X331949Y99840D01*
X331927Y99837D01*
X331876Y99821D01*
X328583Y99821D01*
X325595Y101059D01*
X323309Y103345D01*
X322071Y106333D01*
X322071Y109567D01*
X323309Y112555D01*
X325595Y114841D01*
X328257Y115944D01*
X328583Y116079D01*
X331817Y116079D01*
X334805Y114841D01*
X337091Y112555D01*
X338329Y109567D01*
X338329Y106257D01*
X338298Y106154D01*
X338296Y106132D01*
X338290Y106110D01*
X338276Y105931D01*
X338260Y105753D01*
X338262Y105731D01*
X338260Y105709D01*
X338283Y105530D01*
X338301Y105353D01*
X338308Y105331D01*
X338311Y105309D01*
X338368Y105139D01*
X338421Y104968D01*
X338432Y104949D01*
X338439Y104927D01*
X338528Y104772D01*
X338614Y104615D01*
X338629Y104598D01*
X338640Y104579D01*
X338854Y104326D01*
X343778Y99402D01*
X343799Y99385D01*
X343816Y99364D01*
X343954Y99257D01*
X344090Y99147D01*
X344113Y99134D01*
X344135Y99118D01*
X344291Y99040D01*
X344445Y98958D01*
X344471Y98950D01*
X344495Y98938D01*
X344664Y98893D01*
X344831Y98843D01*
X344858Y98841D01*
X344884Y98834D01*
X345215Y98807D01*
X348344Y98807D01*
X348352Y98808D01*
X348361Y98807D01*
X348553Y98828D01*
X348744Y98847D01*
X348753Y98849D01*
X348762Y98850D01*
X348944Y98908D01*
X349129Y98965D01*
X349137Y98969D01*
X349146Y98972D01*
X349314Y99065D01*
X349483Y99157D01*
X349490Y99162D01*
X349498Y99167D01*
X349646Y99292D01*
X349792Y99414D01*
X349798Y99421D01*
X349805Y99427D01*
X349924Y99578D01*
X350045Y99728D01*
X350049Y99736D01*
X350054Y99743D01*
X350141Y99914D01*
X350230Y100085D01*
X350233Y100094D01*
X350237Y100102D01*
X350289Y100288D01*
X350342Y100472D01*
X350342Y100481D01*
X350345Y100490D01*
X350359Y100682D01*
X350375Y100874D01*
X350374Y100882D01*
X350374Y100891D01*
X350350Y101084D01*
X350328Y101273D01*
X350325Y101282D01*
X350324Y101291D01*
X350262Y101474D01*
X350203Y101656D01*
X350198Y101664D01*
X350196Y101672D01*
X350100Y101838D01*
X350005Y102007D01*
X349999Y102014D01*
X349995Y102021D01*
X349780Y102274D01*
X348709Y103345D01*
X347471Y106333D01*
X347471Y109567D01*
X348709Y112555D01*
X350995Y114841D01*
X353657Y115944D01*
X353983Y116079D01*
X357217Y116079D01*
X360205Y114841D01*
X362491Y112555D01*
X363729Y109567D01*
X363729Y106333D01*
X362491Y103345D01*
X360205Y101059D01*
X359207Y100645D01*
X359195Y100639D01*
X359182Y100635D01*
X359018Y100544D01*
X358852Y100455D01*
X358841Y100447D01*
X358830Y100440D01*
X358686Y100318D01*
X358541Y100199D01*
X358533Y100188D01*
X358523Y100180D01*
X358407Y100033D01*
X358288Y99886D01*
X358281Y99874D01*
X358273Y99864D01*
X358188Y99697D01*
X358100Y99530D01*
X358097Y99517D01*
X358091Y99505D01*
X358040Y99324D01*
X357987Y99143D01*
X357986Y99130D01*
X357983Y99117D01*
X357969Y98928D01*
X357953Y98742D01*
X357954Y98729D01*
X357953Y98715D01*
X357977Y98528D01*
X357998Y98342D01*
X358002Y98329D01*
X358004Y98316D01*
X358064Y98137D01*
X358121Y97959D01*
X358128Y97947D01*
X358132Y97934D01*
X358226Y97772D01*
X358317Y97607D01*
X358326Y97597D01*
X358333Y97585D01*
X358548Y97332D01*
X359752Y96128D01*
X378207Y77673D01*
X378207Y40415D01*
X378209Y40388D01*
X378207Y40361D01*
X378229Y40187D01*
X378247Y40014D01*
X378254Y39989D01*
X378258Y39962D01*
X378313Y39796D01*
X378365Y39629D01*
X378378Y39606D01*
X378386Y39580D01*
X378473Y39429D01*
X378557Y39275D01*
X378574Y39255D01*
X378587Y39231D01*
X378802Y38978D01*
X387757Y30023D01*
X387767Y30015D01*
X387776Y30004D01*
X387923Y29887D01*
X388068Y29768D01*
X388080Y29762D01*
X388091Y29753D01*
X388258Y29668D01*
X388424Y29579D01*
X388437Y29576D01*
X388449Y29570D01*
X388630Y29518D01*
X388810Y29465D01*
X388823Y29463D01*
X388836Y29460D01*
X389022Y29445D01*
X389211Y29428D01*
X389224Y29430D01*
X389238Y29429D01*
X389423Y29451D01*
X389611Y29472D01*
X389624Y29476D01*
X389637Y29477D01*
X389816Y29537D01*
X389995Y29593D01*
X390007Y29600D01*
X390019Y29604D01*
X390183Y29697D01*
X390347Y29788D01*
X390357Y29797D01*
X390369Y29803D01*
X390511Y29927D01*
X390654Y30049D01*
X390663Y30059D01*
X390673Y30068D01*
X390788Y30217D01*
X390904Y30364D01*
X390910Y30376D01*
X390918Y30387D01*
X391007Y30559D01*
X393600Y33153D01*
X396961Y34545D01*
X415839Y34545D01*
X418831Y33306D01*
X418844Y33302D01*
X418855Y33296D01*
X419036Y33244D01*
X419216Y33189D01*
X419229Y33188D01*
X419242Y33184D01*
X419430Y33169D01*
X419617Y33151D01*
X419630Y33152D01*
X419644Y33151D01*
X419831Y33173D01*
X420017Y33193D01*
X420030Y33197D01*
X420043Y33198D01*
X420223Y33257D01*
X420402Y33312D01*
X420413Y33319D01*
X420426Y33323D01*
X420591Y33416D01*
X420755Y33506D01*
X420765Y33514D01*
X420777Y33521D01*
X420919Y33644D01*
X421063Y33765D01*
X421071Y33775D01*
X421082Y33784D01*
X421197Y33933D01*
X421314Y34080D01*
X421320Y34092D01*
X421328Y34102D01*
X421412Y34271D01*
X421498Y34438D01*
X421502Y34451D01*
X421508Y34463D01*
X421557Y34646D01*
X421608Y34825D01*
X421609Y34838D01*
X421612Y34851D01*
X421639Y35182D01*
X421639Y41018D01*
X421638Y41031D01*
X421639Y41044D01*
X421618Y41231D01*
X421599Y41418D01*
X421595Y41431D01*
X421594Y41445D01*
X421536Y41623D01*
X421481Y41803D01*
X421475Y41815D01*
X421471Y41828D01*
X421379Y41992D01*
X421289Y42157D01*
X421281Y42168D01*
X421274Y42179D01*
X421152Y42323D01*
X421032Y42467D01*
X421021Y42475D01*
X421013Y42485D01*
X420864Y42601D01*
X420718Y42719D01*
X420706Y42725D01*
X420696Y42733D01*
X420527Y42818D01*
X420361Y42904D01*
X420348Y42908D01*
X420336Y42914D01*
X420154Y42964D01*
X419974Y43016D01*
X419960Y43017D01*
X419947Y43021D01*
X419759Y43033D01*
X419572Y43049D01*
X419559Y43047D01*
X419546Y43048D01*
X419358Y43024D01*
X419173Y43002D01*
X419160Y42998D01*
X419147Y42996D01*
X418831Y42894D01*
X415839Y41655D01*
X396961Y41655D01*
X393600Y43047D01*
X391027Y45620D01*
X389635Y48981D01*
X389635Y52619D01*
X391027Y55980D01*
X393600Y58553D01*
X394846Y59069D01*
X396961Y59945D01*
X415839Y59945D01*
X418831Y58706D01*
X418844Y58702D01*
X418855Y58696D01*
X419036Y58644D01*
X419216Y58589D01*
X419229Y58588D01*
X419242Y58584D01*
X419430Y58569D01*
X419617Y58551D01*
X419630Y58552D01*
X419644Y58551D01*
X419831Y58573D01*
X420017Y58593D01*
X420030Y58597D01*
X420043Y58598D01*
X420223Y58657D01*
X420402Y58712D01*
X420413Y58719D01*
X420426Y58723D01*
X420591Y58816D01*
X420755Y58906D01*
X420765Y58914D01*
X420777Y58921D01*
X420919Y59044D01*
X421063Y59165D01*
X421071Y59175D01*
X421082Y59184D01*
X421197Y59333D01*
X421314Y59480D01*
X421320Y59492D01*
X421328Y59502D01*
X421412Y59671D01*
X421498Y59838D01*
X421502Y59851D01*
X421508Y59863D01*
X421557Y60046D01*
X421608Y60225D01*
X421609Y60238D01*
X421612Y60251D01*
X421639Y60582D01*
X421639Y66418D01*
X421638Y66431D01*
X421639Y66444D01*
X421618Y66631D01*
X421599Y66818D01*
X421595Y66831D01*
X421594Y66845D01*
X421536Y67023D01*
X421481Y67203D01*
X421475Y67215D01*
X421471Y67228D01*
X421379Y67392D01*
X421289Y67557D01*
X421281Y67568D01*
X421274Y67579D01*
X421152Y67723D01*
X421032Y67867D01*
X421021Y67875D01*
X421013Y67885D01*
X420864Y68001D01*
X420718Y68119D01*
X420706Y68125D01*
X420696Y68133D01*
X420527Y68218D01*
X420361Y68304D01*
X420348Y68308D01*
X420336Y68314D01*
X420154Y68364D01*
X419974Y68416D01*
X419960Y68417D01*
X419947Y68421D01*
X419759Y68433D01*
X419572Y68449D01*
X419559Y68447D01*
X419546Y68448D01*
X419358Y68424D01*
X419173Y68402D01*
X419160Y68398D01*
X419147Y68396D01*
X418831Y68294D01*
X415839Y67055D01*
X396961Y67055D01*
X393600Y68447D01*
X391027Y71020D01*
X389635Y74381D01*
X389635Y78019D01*
X391027Y81380D01*
X393600Y83953D01*
X396961Y85345D01*
X415839Y85345D01*
X418831Y84106D01*
X418844Y84102D01*
X418855Y84096D01*
X419036Y84044D01*
X419216Y83989D01*
X419229Y83988D01*
X419242Y83984D01*
X419430Y83969D01*
X419617Y83951D01*
X419630Y83952D01*
X419644Y83951D01*
X419831Y83973D01*
X420017Y83993D01*
X420030Y83997D01*
X420043Y83998D01*
X420223Y84057D01*
X420402Y84112D01*
X420413Y84119D01*
X420426Y84123D01*
X420591Y84216D01*
X420755Y84306D01*
X420765Y84314D01*
X420777Y84321D01*
X420919Y84444D01*
X421063Y84565D01*
X421071Y84575D01*
X421082Y84584D01*
X421197Y84733D01*
X421314Y84880D01*
X421320Y84892D01*
X421328Y84902D01*
X421412Y85071D01*
X421498Y85238D01*
X421502Y85251D01*
X421508Y85263D01*
X421557Y85446D01*
X421608Y85625D01*
X421609Y85638D01*
X421612Y85651D01*
X421639Y85982D01*
X421639Y91818D01*
X421638Y91831D01*
X421639Y91844D01*
X421618Y92031D01*
X421599Y92218D01*
X421595Y92231D01*
X421594Y92245D01*
X421536Y92423D01*
X421481Y92603D01*
X421475Y92615D01*
X421471Y92628D01*
X421379Y92792D01*
X421289Y92957D01*
X421281Y92968D01*
X421274Y92979D01*
X421152Y93123D01*
X421032Y93267D01*
X421021Y93275D01*
X421013Y93285D01*
X420864Y93401D01*
X420718Y93519D01*
X420706Y93525D01*
X420696Y93533D01*
X420527Y93618D01*
X420361Y93704D01*
X420348Y93708D01*
X420336Y93714D01*
X420154Y93764D01*
X419974Y93816D01*
X419960Y93817D01*
X419947Y93821D01*
X419759Y93833D01*
X419572Y93849D01*
X419559Y93847D01*
X419546Y93848D01*
X419358Y93824D01*
X419173Y93802D01*
X419160Y93798D01*
X419147Y93796D01*
X418831Y93694D01*
X417840Y93284D01*
X415839Y92455D01*
X396961Y92455D01*
X393600Y93847D01*
X391027Y96420D01*
X390874Y96789D01*
X390864Y96809D01*
X390857Y96830D01*
X390769Y96986D01*
X390684Y97144D01*
X390670Y97161D01*
X390659Y97181D01*
X390542Y97317D01*
X390428Y97455D01*
X390411Y97469D01*
X390396Y97486D01*
X390255Y97595D01*
X390115Y97708D01*
X390095Y97719D01*
X390078Y97732D01*
X389918Y97812D01*
X389759Y97895D01*
X389737Y97902D01*
X389717Y97912D01*
X389544Y97958D01*
X389372Y98008D01*
X389350Y98010D01*
X389329Y98016D01*
X388998Y98043D01*
X385877Y98043D01*
X356472Y127448D01*
X356451Y127465D01*
X356433Y127486D01*
X356296Y127593D01*
X356160Y127703D01*
X356137Y127716D01*
X356115Y127732D01*
X355958Y127810D01*
X355804Y127892D01*
X355779Y127900D01*
X355755Y127912D01*
X355585Y127957D01*
X355419Y128007D01*
X355392Y128009D01*
X355366Y128016D01*
X355035Y128043D01*
X354544Y128043D01*
X352594Y128851D01*
X351101Y130344D01*
X350293Y132294D01*
X350293Y134406D01*
X351101Y136356D01*
X352594Y137849D01*
X353653Y138287D01*
X353653Y138288D01*
X354544Y138657D01*
X356656Y138657D01*
X358606Y137849D01*
X360099Y136356D01*
X360907Y134406D01*
X360907Y133915D01*
X360909Y133888D01*
X360907Y133861D01*
X360929Y133687D01*
X360947Y133514D01*
X360954Y133489D01*
X360958Y133462D01*
X361013Y133296D01*
X361065Y133129D01*
X361078Y133106D01*
X361086Y133080D01*
X361173Y132929D01*
X361257Y132775D01*
X361274Y132755D01*
X361287Y132731D01*
X361502Y132478D01*
X387757Y106223D01*
X387767Y106215D01*
X387776Y106204D01*
X387786Y106196D01*
X387794Y106187D01*
X387926Y106085D01*
X388068Y105968D01*
X388080Y105962D01*
X388091Y105953D01*
X388104Y105947D01*
X388112Y105940D01*
X388243Y105875D01*
X388258Y105867D01*
X388424Y105779D01*
X388437Y105776D01*
X388449Y105770D01*
X388465Y105765D01*
X388472Y105761D01*
X388591Y105729D01*
X388630Y105718D01*
X388810Y105665D01*
X388823Y105663D01*
X388836Y105660D01*
X388854Y105658D01*
X388861Y105657D01*
X389192Y105629D01*
X389194Y105629D01*
X389196Y105630D01*
X389211Y105628D01*
X389224Y105630D01*
X389238Y105629D01*
X389423Y105651D01*
X389540Y105664D01*
X389594Y105669D01*
X389597Y105670D01*
X389611Y105672D01*
X389624Y105676D01*
X389637Y105677D01*
X389816Y105736D01*
X389908Y105766D01*
X389979Y105788D01*
X389982Y105789D01*
X389995Y105793D01*
X390007Y105800D01*
X390019Y105804D01*
X390183Y105897D01*
X390248Y105933D01*
X390333Y105979D01*
X390337Y105982D01*
X390347Y105988D01*
X390357Y105997D01*
X390369Y106003D01*
X390511Y106127D01*
X390549Y106159D01*
X390642Y106237D01*
X390646Y106241D01*
X390654Y106249D01*
X390663Y106259D01*
X390673Y106268D01*
X390788Y106417D01*
X390800Y106433D01*
X390895Y106551D01*
X390898Y106557D01*
X390904Y106564D01*
X390910Y106576D01*
X390918Y106587D01*
X391007Y106759D01*
X393600Y109353D01*
X396961Y110745D01*
X415839Y110745D01*
X418831Y109506D01*
X418844Y109502D01*
X418855Y109496D01*
X419036Y109444D01*
X419216Y109389D01*
X419229Y109388D01*
X419242Y109384D01*
X419430Y109369D01*
X419617Y109351D01*
X419630Y109352D01*
X419644Y109351D01*
X419831Y109373D01*
X420017Y109393D01*
X420030Y109397D01*
X420043Y109398D01*
X420223Y109457D01*
X420402Y109512D01*
X420413Y109519D01*
X420426Y109523D01*
X420591Y109616D01*
X420755Y109706D01*
X420765Y109714D01*
X420777Y109721D01*
X420919Y109844D01*
X421063Y109965D01*
X421071Y109975D01*
X421082Y109984D01*
X421196Y110132D01*
X421314Y110280D01*
X421320Y110292D01*
X421328Y110302D01*
X421412Y110471D01*
X421498Y110638D01*
X421502Y110651D01*
X421508Y110663D01*
X421557Y110846D01*
X421608Y111025D01*
X421609Y111038D01*
X421612Y111051D01*
X421639Y111382D01*
X421639Y117218D01*
X421638Y117231D01*
X421639Y117244D01*
X421618Y117431D01*
X421599Y117618D01*
X421595Y117631D01*
X421594Y117645D01*
X421536Y117823D01*
X421481Y118003D01*
X421475Y118015D01*
X421471Y118028D01*
X421379Y118192D01*
X421289Y118357D01*
X421281Y118368D01*
X421274Y118379D01*
X421152Y118523D01*
X421032Y118667D01*
X421021Y118675D01*
X421013Y118685D01*
X420864Y118801D01*
X420718Y118919D01*
X420706Y118925D01*
X420696Y118933D01*
X420527Y119018D01*
X420361Y119104D01*
X420348Y119108D01*
X420336Y119114D01*
X420154Y119164D01*
X419974Y119216D01*
X419960Y119217D01*
X419947Y119221D01*
X419759Y119233D01*
X419572Y119249D01*
X419559Y119247D01*
X419546Y119248D01*
X419358Y119224D01*
X419173Y119202D01*
X419160Y119198D01*
X419147Y119196D01*
X418831Y119094D01*
X415839Y117855D01*
X396961Y117855D01*
X393600Y119247D01*
X391027Y121820D01*
X389635Y125181D01*
X389635Y128819D01*
X391027Y132180D01*
X393600Y134753D01*
X396961Y136145D01*
X415839Y136145D01*
X418831Y134906D01*
X418844Y134902D01*
X418855Y134896D01*
X419036Y134844D01*
X419216Y134789D01*
X419229Y134788D01*
X419242Y134784D01*
X419430Y134769D01*
X419617Y134751D01*
X419630Y134752D01*
X419644Y134751D01*
X419831Y134773D01*
X420017Y134793D01*
X420030Y134797D01*
X420043Y134798D01*
X420223Y134857D01*
X420402Y134912D01*
X420413Y134919D01*
X420426Y134923D01*
X420591Y135016D01*
X420755Y135106D01*
X420765Y135114D01*
X420777Y135121D01*
X420919Y135244D01*
X421063Y135365D01*
X421071Y135375D01*
X421082Y135384D01*
X421197Y135533D01*
X421314Y135680D01*
X421320Y135692D01*
X421328Y135702D01*
X421412Y135871D01*
X421498Y136038D01*
X421502Y136051D01*
X421508Y136063D01*
X421557Y136246D01*
X421608Y136425D01*
X421609Y136438D01*
X421612Y136451D01*
X421639Y136782D01*
X421639Y142618D01*
X421638Y142631D01*
X421639Y142644D01*
X421618Y142831D01*
X421599Y143018D01*
X421595Y143031D01*
X421594Y143045D01*
X421536Y143223D01*
X421481Y143403D01*
X421475Y143415D01*
X421471Y143428D01*
X421379Y143592D01*
X421289Y143757D01*
X421281Y143768D01*
X421274Y143779D01*
X421152Y143923D01*
X421032Y144067D01*
X421021Y144075D01*
X421013Y144085D01*
X420864Y144201D01*
X420718Y144319D01*
X420706Y144325D01*
X420696Y144333D01*
X420527Y144418D01*
X420361Y144504D01*
X420348Y144508D01*
X420336Y144514D01*
X420154Y144564D01*
X419974Y144616D01*
X419960Y144617D01*
X419947Y144621D01*
X419759Y144633D01*
X419572Y144649D01*
X419559Y144647D01*
X419546Y144648D01*
X419358Y144624D01*
X419173Y144602D01*
X419160Y144598D01*
X419147Y144596D01*
X418831Y144494D01*
X415839Y143255D01*
X396961Y143255D01*
X393600Y144647D01*
X391027Y147220D01*
X390874Y147589D01*
X390864Y147609D01*
X390857Y147630D01*
X390769Y147786D01*
X390684Y147944D01*
X390670Y147961D01*
X390659Y147981D01*
X390542Y148117D01*
X390428Y148255D01*
X390411Y148269D01*
X390396Y148286D01*
X390255Y148395D01*
X390115Y148508D01*
X390095Y148519D01*
X390078Y148532D01*
X389918Y148612D01*
X389759Y148695D01*
X389737Y148702D01*
X389717Y148712D01*
X389544Y148758D01*
X389372Y148808D01*
X389350Y148810D01*
X389329Y148816D01*
X388998Y148843D01*
X293962Y148843D01*
X293952Y148842D01*
X293941Y148843D01*
X293752Y148822D01*
X293645Y148812D01*
X291688Y148843D01*
X291673Y148842D01*
X291655Y148843D01*
X290193Y148843D01*
X289177Y149893D01*
X289165Y149903D01*
X289154Y149916D01*
X287794Y151276D01*
X287793Y151277D01*
X287787Y151285D01*
X287782Y151294D01*
X287571Y151551D01*
X278496Y160921D01*
X278462Y160950D01*
X278433Y160984D01*
X278309Y161079D01*
X278189Y161181D01*
X278150Y161202D01*
X278114Y161230D01*
X277974Y161299D01*
X277836Y161375D01*
X277794Y161388D01*
X277753Y161408D01*
X277602Y161449D01*
X277452Y161496D01*
X277408Y161501D01*
X277364Y161512D01*
X277105Y161533D01*
X277052Y161539D01*
X277044Y161538D01*
X277033Y161539D01*
X214113Y161415D01*
X214088Y161413D01*
X214064Y161415D01*
X213888Y161393D01*
X213712Y161375D01*
X213689Y161367D01*
X213664Y161364D01*
X213496Y161308D01*
X213328Y161256D01*
X213306Y161244D01*
X213283Y161236D01*
X213129Y161148D01*
X212974Y161063D01*
X212955Y161048D01*
X212934Y161035D01*
X212681Y160820D01*
X206903Y155043D01*
X198697Y155043D01*
X192893Y160847D01*
X192893Y169053D01*
X198697Y174857D01*
X206903Y174857D01*
X212636Y169124D01*
X212659Y169106D01*
X212678Y169084D01*
X212814Y168978D01*
X212948Y168869D01*
X212973Y168855D01*
X212996Y168838D01*
X213151Y168761D01*
X213304Y168680D01*
X213331Y168672D01*
X213357Y168659D01*
X213524Y168615D01*
X213690Y168565D01*
X213718Y168563D01*
X213746Y168555D01*
X214077Y168529D01*
X273816Y168646D01*
X273832Y168647D01*
X273848Y168646D01*
X274032Y168668D01*
X274217Y168686D01*
X274232Y168691D01*
X274247Y168693D01*
X274424Y168751D01*
X274601Y168805D01*
X274615Y168813D01*
X274630Y168818D01*
X274792Y168909D01*
X274955Y168998D01*
X274967Y169008D01*
X274981Y169016D01*
X275122Y169137D01*
X275264Y169256D01*
X275273Y169269D01*
X275286Y169279D01*
X275399Y169425D01*
X275515Y169570D01*
X275523Y169585D01*
X275532Y169597D01*
X275615Y169763D01*
X275700Y169928D01*
X275705Y169943D01*
X275712Y169958D01*
X275760Y170137D01*
X275811Y170315D01*
X275812Y170331D01*
X275816Y170346D01*
X275843Y170677D01*
X275843Y175468D01*
X275841Y175490D01*
X275843Y175512D01*
X275821Y175689D01*
X275803Y175868D01*
X275797Y175889D01*
X275794Y175912D01*
X275738Y176081D01*
X275685Y176253D01*
X275675Y176273D01*
X275668Y176294D01*
X275579Y176449D01*
X275493Y176607D01*
X275479Y176624D01*
X275468Y176644D01*
X275350Y176779D01*
X275236Y176916D01*
X275218Y176930D01*
X275204Y176947D01*
X275062Y177056D01*
X274922Y177169D01*
X274902Y177179D01*
X274884Y177193D01*
X274838Y177217D01*
X272509Y179545D01*
X271271Y182533D01*
X271271Y185767D01*
X272509Y188755D01*
X274795Y191041D01*
X277783Y192279D01*
X281017Y192279D01*
X284005Y191041D01*
X286291Y188755D01*
X287529Y185767D01*
X287529Y182533D01*
X286291Y179545D01*
X283951Y177205D01*
X283856Y177154D01*
X283839Y177140D01*
X283819Y177129D01*
X283684Y177012D01*
X283545Y176898D01*
X283531Y176880D01*
X283514Y176866D01*
X283405Y176724D01*
X283292Y176585D01*
X283281Y176565D01*
X283268Y176548D01*
X283188Y176387D01*
X283105Y176228D01*
X283098Y176207D01*
X283088Y176187D01*
X283042Y176013D01*
X282992Y175842D01*
X282990Y175820D01*
X282984Y175798D01*
X282957Y175468D01*
X282957Y167362D01*
X282958Y167352D01*
X282957Y167342D01*
X282978Y167151D01*
X282997Y166962D01*
X283000Y166952D01*
X283001Y166941D01*
X283059Y166760D01*
X283115Y166577D01*
X283120Y166568D01*
X283123Y166558D01*
X283216Y166390D01*
X283307Y166223D01*
X283313Y166215D01*
X283318Y166206D01*
X283529Y165949D01*
X292608Y156575D01*
X292641Y156547D01*
X292669Y156514D01*
X292794Y156417D01*
X292915Y156315D01*
X292953Y156294D01*
X292987Y156268D01*
X293129Y156197D01*
X293268Y156121D01*
X293309Y156108D01*
X293348Y156088D01*
X293501Y156047D01*
X293652Y156000D01*
X293695Y155995D01*
X293736Y155984D01*
X294007Y155962D01*
X294052Y155957D01*
X294059Y155957D01*
X294067Y155957D01*
X388998Y155957D01*
X389020Y155959D01*
X389042Y155957D01*
X389220Y155979D01*
X389398Y155997D01*
X389420Y156003D01*
X389442Y156006D01*
X389612Y156062D01*
X389783Y156115D01*
X389803Y156125D01*
X389824Y156132D01*
X389980Y156221D01*
X390137Y156307D01*
X390155Y156321D01*
X390174Y156332D01*
X390309Y156450D01*
X390447Y156564D01*
X390461Y156582D01*
X390477Y156596D01*
X390587Y156739D01*
X390699Y156878D01*
X390709Y156898D01*
X390723Y156916D01*
X390874Y157211D01*
X391027Y157580D01*
X393600Y160153D01*
X396961Y161545D01*
X415839Y161545D01*
X418831Y160306D01*
X418844Y160302D01*
X418855Y160296D01*
X419036Y160244D01*
X419216Y160189D01*
X419229Y160188D01*
X419242Y160184D01*
X419430Y160169D01*
X419617Y160151D01*
X419630Y160152D01*
X419644Y160151D01*
X419831Y160173D01*
X420017Y160193D01*
X420030Y160197D01*
X420043Y160198D01*
X420223Y160257D01*
X420402Y160312D01*
X420413Y160319D01*
X420426Y160323D01*
X420591Y160416D01*
X420755Y160506D01*
X420765Y160514D01*
X420777Y160521D01*
X420919Y160644D01*
X421063Y160765D01*
X421071Y160775D01*
X421082Y160784D01*
X421197Y160933D01*
X421314Y161080D01*
X421320Y161092D01*
X421328Y161102D01*
X421412Y161271D01*
X421498Y161438D01*
X421502Y161451D01*
X421508Y161463D01*
X421557Y161646D01*
X421608Y161825D01*
X421609Y161838D01*
X421612Y161851D01*
X421639Y162182D01*
X421639Y978408D01*
X421637Y978426D01*
X421639Y978444D01*
X421618Y978626D01*
X421599Y978809D01*
X421594Y978826D01*
X421592Y978843D01*
X421535Y979018D01*
X421481Y979194D01*
X421473Y979209D01*
X421467Y979226D01*
X421377Y979386D01*
X421289Y979548D01*
X421278Y979561D01*
X421269Y979577D01*
X421149Y979716D01*
X421032Y979857D01*
X421018Y979868D01*
X421006Y979882D01*
X420861Y979994D01*
X420718Y980109D01*
X420702Y980117D01*
X420688Y980128D01*
X420523Y980210D01*
X420361Y980295D01*
X420344Y980300D01*
X420328Y980308D01*
X420149Y980355D01*
X419974Y980406D01*
X419956Y980408D01*
X419939Y980412D01*
X419608Y980439D01*
X280036Y980439D01*
X280018Y980437D01*
X280000Y980439D01*
X279818Y980418D01*
X279635Y980399D01*
X279618Y980394D01*
X279601Y980392D01*
X279426Y980335D01*
X279250Y980281D01*
X279235Y980273D01*
X279218Y980267D01*
X279058Y980177D01*
X278896Y980089D01*
X278883Y980078D01*
X278867Y980069D01*
X278728Y979949D01*
X278587Y979832D01*
X278576Y979818D01*
X278562Y979806D01*
X278450Y979661D01*
X278335Y979518D01*
X278327Y979502D01*
X278316Y979488D01*
X278234Y979323D01*
X278149Y979161D01*
X278144Y979144D01*
X278136Y979128D01*
X278089Y978949D01*
X278038Y978774D01*
X278036Y978756D01*
X278032Y978739D01*
X278005Y978408D01*
X278005Y948988D01*
X277112Y948095D01*
X244688Y948095D01*
X243795Y948988D01*
X243795Y978408D01*
X243793Y978426D01*
X243795Y978444D01*
X243774Y978626D01*
X243755Y978809D01*
X243750Y978826D01*
X243748Y978843D01*
X243691Y979018D01*
X243637Y979194D01*
X243629Y979209D01*
X243623Y979226D01*
X243533Y979386D01*
X243445Y979548D01*
X243434Y979561D01*
X243425Y979577D01*
X243305Y979716D01*
X243188Y979857D01*
X243174Y979868D01*
X243162Y979882D01*
X243017Y979994D01*
X242874Y980109D01*
X242858Y980117D01*
X242844Y980128D01*
X242679Y980210D01*
X242517Y980295D01*
X242500Y980300D01*
X242484Y980308D01*
X242305Y980355D01*
X242130Y980406D01*
X242112Y980408D01*
X242095Y980412D01*
X241764Y980439D01*
X190036Y980439D01*
X190018Y980437D01*
X190000Y980439D01*
X189818Y980418D01*
X189635Y980399D01*
X189618Y980394D01*
X189601Y980392D01*
X189426Y980335D01*
X189250Y980281D01*
X189235Y980273D01*
X189218Y980267D01*
X189058Y980177D01*
X188896Y980089D01*
X188883Y980078D01*
X188867Y980069D01*
X188728Y979949D01*
X188587Y979832D01*
X188576Y979818D01*
X188562Y979806D01*
X188450Y979661D01*
X188335Y979518D01*
X188327Y979502D01*
X188316Y979488D01*
X188234Y979323D01*
X188149Y979161D01*
X188144Y979144D01*
X188136Y979128D01*
X188089Y978949D01*
X188038Y978774D01*
X188036Y978756D01*
X188032Y978739D01*
X188005Y978408D01*
X188005Y948988D01*
X187112Y948095D01*
X154688Y948095D01*
X153795Y948988D01*
X153795Y978408D01*
X153793Y978426D01*
X153795Y978444D01*
X153774Y978626D01*
X153755Y978809D01*
X153750Y978826D01*
X153748Y978843D01*
X153691Y979018D01*
X153637Y979194D01*
X153629Y979209D01*
X153623Y979226D01*
X153533Y979386D01*
X153445Y979548D01*
X153434Y979561D01*
X153425Y979577D01*
X153305Y979716D01*
X153188Y979857D01*
X153174Y979868D01*
X153162Y979882D01*
X153017Y979994D01*
X152874Y980109D01*
X152858Y980117D01*
X152844Y980128D01*
X152679Y980210D01*
X152517Y980295D01*
X152500Y980300D01*
X152484Y980308D01*
X152305Y980355D01*
X152130Y980406D01*
X152112Y980408D01*
X152095Y980412D01*
X151764Y980439D01*
X63622Y980439D01*
X63604Y980437D01*
X63586Y980439D01*
X63404Y980418D01*
X63221Y980399D01*
X63204Y980394D01*
X63187Y980392D01*
X63012Y980335D01*
X62836Y980281D01*
X62821Y980273D01*
X62804Y980267D01*
X62644Y980177D01*
X62482Y980089D01*
X62469Y980078D01*
X62453Y980069D01*
X62314Y979949D01*
X62173Y979832D01*
X62162Y979818D01*
X62148Y979806D01*
X62036Y979661D01*
X61921Y979518D01*
X61913Y979502D01*
X61902Y979488D01*
X61820Y979323D01*
X61735Y979161D01*
X61730Y979144D01*
X61722Y979128D01*
X61700Y979044D01*
X61694Y979031D01*
X61674Y978946D01*
X61624Y978774D01*
X61622Y978756D01*
X61618Y978739D01*
X61615Y978704D01*
X61325Y976873D01*
X60800Y975258D01*
X60029Y973744D01*
X59031Y972370D01*
X57830Y971169D01*
X56456Y970171D01*
X54942Y969400D01*
X53549Y968947D01*
X53549Y978408D01*
X53547Y978426D01*
X53549Y978444D01*
X53528Y978626D01*
X53509Y978809D01*
X53504Y978826D01*
X53502Y978843D01*
X53445Y979018D01*
X53391Y979194D01*
X53383Y979209D01*
X53377Y979226D01*
X53287Y979386D01*
X53199Y979548D01*
X53188Y979561D01*
X53179Y979577D01*
X53059Y979716D01*
X52942Y979857D01*
X52928Y979868D01*
X52916Y979882D01*
X52771Y979994D01*
X52628Y980109D01*
X52612Y980117D01*
X52598Y980128D01*
X52433Y980210D01*
X52271Y980295D01*
X52254Y980300D01*
X52238Y980308D01*
X52059Y980355D01*
X51884Y980406D01*
X51866Y980408D01*
X51849Y980412D01*
X51518Y980439D01*
X50082Y980439D01*
X50064Y980437D01*
X50046Y980439D01*
X49864Y980418D01*
X49681Y980399D01*
X49664Y980394D01*
X49647Y980392D01*
X49472Y980335D01*
X49296Y980281D01*
X49281Y980273D01*
X49264Y980267D01*
X49104Y980177D01*
X48942Y980089D01*
X48929Y980078D01*
X48913Y980069D01*
X48774Y979949D01*
X48633Y979832D01*
X48622Y979818D01*
X48608Y979806D01*
X48496Y979661D01*
X48381Y979518D01*
X48373Y979502D01*
X48362Y979488D01*
X48280Y979323D01*
X48195Y979161D01*
X48190Y979144D01*
X48182Y979128D01*
X48134Y978949D01*
X48084Y978774D01*
X48082Y978756D01*
X48078Y978739D01*
X48051Y978408D01*
X48051Y968947D01*
X46658Y969400D01*
X45144Y970171D01*
X43770Y971169D01*
X42569Y972370D01*
X41571Y973744D01*
X40800Y975258D01*
X40275Y976873D01*
X39984Y978709D01*
X39976Y978739D01*
X39969Y978809D01*
X39964Y978826D01*
X39962Y978843D01*
X39905Y979018D01*
X39892Y979061D01*
X39882Y979098D01*
X39878Y979107D01*
X39851Y979194D01*
X39843Y979209D01*
X39837Y979226D01*
X39747Y979386D01*
X39659Y979548D01*
X39648Y979561D01*
X39639Y979577D01*
X39519Y979716D01*
X39402Y979857D01*
X39388Y979868D01*
X39376Y979882D01*
X39231Y979994D01*
X39088Y980109D01*
X39072Y980117D01*
X39058Y980128D01*
X38893Y980210D01*
X38731Y980295D01*
X38714Y980300D01*
X38698Y980308D01*
X38519Y980355D01*
X38344Y980406D01*
X38326Y980408D01*
X38309Y980412D01*
X37978Y980439D01*
X12192Y980439D01*
X12174Y980437D01*
X12156Y980439D01*
X11974Y980418D01*
X11791Y980399D01*
X11774Y980394D01*
X11757Y980392D01*
X11582Y980335D01*
X11406Y980281D01*
X11391Y980273D01*
X11374Y980267D01*
X11214Y980177D01*
X11052Y980089D01*
X11039Y980078D01*
X11023Y980069D01*
X10884Y979949D01*
X10743Y979832D01*
X10732Y979818D01*
X10718Y979806D01*
X10606Y979661D01*
X10491Y979518D01*
X10483Y979502D01*
X10472Y979488D01*
X10390Y979323D01*
X10305Y979161D01*
X10300Y979144D01*
X10292Y979128D01*
X10245Y978949D01*
X10194Y978774D01*
X10192Y978756D01*
X10188Y978739D01*
X10161Y978408D01*
X10161Y582336D01*
X10170Y582243D01*
X10169Y582150D01*
X10190Y582043D01*
X10201Y581936D01*
X10228Y581846D01*
X10246Y581755D01*
X10287Y581654D01*
X10319Y581551D01*
X10363Y581469D01*
X10399Y581382D01*
X10459Y581292D01*
X10511Y581197D01*
X10570Y581125D01*
X10622Y581047D01*
X10699Y580971D01*
X10768Y580887D01*
X10841Y580829D01*
X10907Y580763D01*
X10998Y580703D01*
X11082Y580635D01*
X11165Y580592D01*
X11242Y580540D01*
X11343Y580499D01*
X11439Y580449D01*
X11529Y580424D01*
X11615Y580388D01*
X11722Y580368D01*
X11826Y580338D01*
X11919Y580330D01*
X12011Y580313D01*
X12119Y580314D01*
X12228Y580305D01*
X12320Y580316D01*
X12413Y580317D01*
X12520Y580339D01*
X12627Y580352D01*
X12716Y580381D01*
X12807Y580400D01*
X12931Y580451D01*
X13010Y580477D01*
X13053Y580501D01*
X13114Y580526D01*
X13880Y580916D01*
X15401Y581411D01*
X16980Y581661D01*
X22861Y581661D01*
X22861Y572008D01*
X22862Y571990D01*
X22861Y571973D01*
X22882Y571790D01*
X22901Y571608D01*
X22906Y571591D01*
X22908Y571573D01*
X22933Y571495D01*
X22894Y571358D01*
X22892Y571340D01*
X22888Y571323D01*
X22861Y570992D01*
X22861Y561339D01*
X16980Y561339D01*
X15401Y561589D01*
X13880Y562084D01*
X13114Y562474D01*
X13027Y562508D01*
X12945Y562551D01*
X12840Y562581D01*
X12739Y562620D01*
X12647Y562636D01*
X12558Y562662D01*
X12449Y562671D01*
X12343Y562690D01*
X12249Y562687D01*
X12156Y562695D01*
X12049Y562682D01*
X11940Y562679D01*
X11849Y562659D01*
X11757Y562648D01*
X11653Y562614D01*
X11547Y562590D01*
X11462Y562552D01*
X11374Y562523D01*
X11279Y562470D01*
X11180Y562425D01*
X11104Y562371D01*
X11023Y562325D01*
X10941Y562254D01*
X10853Y562191D01*
X10789Y562123D01*
X10718Y562062D01*
X10652Y561976D01*
X10578Y561897D01*
X10529Y561817D01*
X10472Y561744D01*
X10423Y561647D01*
X10366Y561554D01*
X10334Y561467D01*
X10292Y561383D01*
X10264Y561278D01*
X10227Y561177D01*
X10212Y561085D01*
X10188Y560995D01*
X10177Y560861D01*
X10164Y560779D01*
X10166Y560729D01*
X10161Y560664D01*
X10161Y555882D01*
X10162Y555869D01*
X10161Y555856D01*
X10182Y555669D01*
X10201Y555482D01*
X10205Y555469D01*
X10206Y555455D01*
X10264Y555277D01*
X10319Y555097D01*
X10325Y555085D01*
X10329Y555072D01*
X10421Y554908D01*
X10511Y554743D01*
X10519Y554732D01*
X10526Y554721D01*
X10648Y554577D01*
X10768Y554433D01*
X10779Y554425D01*
X10787Y554415D01*
X10936Y554299D01*
X11082Y554181D01*
X11094Y554175D01*
X11104Y554167D01*
X11273Y554082D01*
X11439Y553996D01*
X11452Y553992D01*
X11464Y553986D01*
X11646Y553936D01*
X11826Y553884D01*
X11840Y553883D01*
X11853Y553879D01*
X12041Y553867D01*
X12228Y553851D01*
X12241Y553853D01*
X12254Y553852D01*
X12442Y553876D01*
X12627Y553898D01*
X12640Y553902D01*
X12653Y553904D01*
X12969Y554006D01*
X14631Y554694D01*
X15961Y555245D01*
X34839Y555245D01*
X38200Y553853D01*
X40773Y551280D01*
X42165Y547919D01*
X42165Y544281D01*
X40773Y540920D01*
X38200Y538347D01*
X37670Y538128D01*
X37669Y538128D01*
X34839Y536955D01*
X15961Y536955D01*
X12969Y538194D01*
X12956Y538198D01*
X12945Y538204D01*
X12764Y538256D01*
X12584Y538311D01*
X12571Y538312D01*
X12558Y538316D01*
X12370Y538331D01*
X12183Y538349D01*
X12170Y538348D01*
X12156Y538349D01*
X11969Y538327D01*
X11783Y538307D01*
X11770Y538303D01*
X11757Y538302D01*
X11577Y538243D01*
X11398Y538188D01*
X11387Y538181D01*
X11374Y538177D01*
X11209Y538084D01*
X11045Y537994D01*
X11035Y537986D01*
X11023Y537979D01*
X10881Y537856D01*
X10737Y537735D01*
X10729Y537725D01*
X10718Y537716D01*
X10603Y537567D01*
X10486Y537420D01*
X10480Y537408D01*
X10472Y537398D01*
X10388Y537229D01*
X10302Y537062D01*
X10298Y537049D01*
X10292Y537037D01*
X10243Y536854D01*
X10192Y536675D01*
X10191Y536662D01*
X10188Y536649D01*
X10161Y536318D01*
X10161Y530482D01*
X10162Y530469D01*
X10161Y530456D01*
X10182Y530268D01*
X10201Y530082D01*
X10205Y530069D01*
X10206Y530055D01*
X10264Y529877D01*
X10319Y529697D01*
X10325Y529685D01*
X10329Y529672D01*
X10421Y529508D01*
X10511Y529343D01*
X10519Y529332D01*
X10526Y529321D01*
X10648Y529177D01*
X10768Y529033D01*
X10779Y529025D01*
X10787Y529015D01*
X10936Y528899D01*
X11082Y528781D01*
X11094Y528775D01*
X11104Y528767D01*
X11273Y528682D01*
X11439Y528596D01*
X11452Y528592D01*
X11464Y528586D01*
X11646Y528536D01*
X11826Y528484D01*
X11840Y528483D01*
X11853Y528479D01*
X12041Y528467D01*
X12228Y528451D01*
X12241Y528453D01*
X12254Y528452D01*
X12442Y528476D01*
X12627Y528498D01*
X12640Y528502D01*
X12653Y528504D01*
X12969Y528606D01*
X15961Y529845D01*
X34839Y529845D01*
X38200Y528453D01*
X40797Y525856D01*
X40832Y525793D01*
X40920Y525627D01*
X40929Y525617D01*
X40935Y525605D01*
X41057Y525462D01*
X41177Y525317D01*
X41187Y525308D01*
X41196Y525298D01*
X41344Y525181D01*
X41490Y525063D01*
X41501Y525057D01*
X41512Y525049D01*
X41680Y524963D01*
X41846Y524876D01*
X41859Y524872D01*
X41871Y524866D01*
X42052Y524816D01*
X42232Y524763D01*
X42246Y524762D01*
X42259Y524758D01*
X42447Y524744D01*
X42634Y524728D01*
X42647Y524730D01*
X42660Y524729D01*
X42849Y524753D01*
X43034Y524774D01*
X43046Y524778D01*
X43060Y524779D01*
X43238Y524839D01*
X43417Y524897D01*
X43429Y524903D01*
X43441Y524908D01*
X43604Y525001D01*
X43768Y525093D01*
X43779Y525102D01*
X43790Y525108D01*
X44043Y525323D01*
X59348Y540628D01*
X59365Y540649D01*
X59386Y540667D01*
X59493Y540804D01*
X59603Y540940D01*
X59616Y540963D01*
X59632Y540985D01*
X59710Y541142D01*
X59792Y541296D01*
X59800Y541321D01*
X59812Y541345D01*
X59857Y541515D01*
X59907Y541681D01*
X59909Y541708D01*
X59916Y541734D01*
X59943Y542065D01*
X59943Y680923D01*
X61126Y682106D01*
X61143Y682127D01*
X61164Y682145D01*
X61271Y682282D01*
X61381Y682418D01*
X61394Y682441D01*
X61410Y682463D01*
X61488Y682620D01*
X61570Y682774D01*
X61578Y682799D01*
X61590Y682823D01*
X61635Y682993D01*
X61685Y683159D01*
X61687Y683186D01*
X61694Y683212D01*
X61721Y683543D01*
X61721Y689167D01*
X66483Y693929D01*
X73217Y693929D01*
X77979Y689167D01*
X77979Y682433D01*
X73217Y677671D01*
X69088Y677671D01*
X69070Y677669D01*
X69052Y677671D01*
X68870Y677650D01*
X68687Y677631D01*
X68670Y677626D01*
X68653Y677624D01*
X68478Y677567D01*
X68302Y677513D01*
X68287Y677505D01*
X68270Y677499D01*
X68110Y677409D01*
X67948Y677321D01*
X67935Y677310D01*
X67919Y677301D01*
X67780Y677181D01*
X67639Y677064D01*
X67628Y677050D01*
X67614Y677038D01*
X67502Y676893D01*
X67387Y676750D01*
X67379Y676734D01*
X67368Y676720D01*
X67286Y676555D01*
X67201Y676393D01*
X67196Y676376D01*
X67188Y676360D01*
X67141Y676181D01*
X67090Y676006D01*
X67088Y675988D01*
X67084Y675971D01*
X67057Y675640D01*
X67057Y538277D01*
X45923Y517143D01*
X42802Y517143D01*
X42780Y517141D01*
X42758Y517143D01*
X42580Y517121D01*
X42402Y517103D01*
X42380Y517097D01*
X42358Y517094D01*
X42188Y517038D01*
X42017Y516985D01*
X41997Y516975D01*
X41976Y516968D01*
X41820Y516879D01*
X41663Y516793D01*
X41645Y516779D01*
X41626Y516768D01*
X41491Y516650D01*
X41353Y516536D01*
X41339Y516518D01*
X41323Y516504D01*
X41213Y516361D01*
X41101Y516222D01*
X41091Y516202D01*
X41077Y516184D01*
X40926Y515889D01*
X40773Y515520D01*
X38200Y512947D01*
X34839Y511555D01*
X15961Y511555D01*
X12969Y512794D01*
X12956Y512798D01*
X12945Y512804D01*
X12764Y512856D01*
X12584Y512911D01*
X12571Y512912D01*
X12558Y512916D01*
X12370Y512931D01*
X12183Y512949D01*
X12170Y512948D01*
X12156Y512949D01*
X11969Y512927D01*
X11783Y512907D01*
X11770Y512903D01*
X11757Y512902D01*
X11577Y512843D01*
X11398Y512788D01*
X11387Y512781D01*
X11374Y512777D01*
X11209Y512684D01*
X11045Y512594D01*
X11035Y512586D01*
X11023Y512579D01*
X10881Y512456D01*
X10737Y512335D01*
X10729Y512325D01*
X10718Y512316D01*
X10603Y512167D01*
X10486Y512020D01*
X10480Y512008D01*
X10472Y511998D01*
X10388Y511829D01*
X10302Y511662D01*
X10298Y511649D01*
X10292Y511637D01*
X10243Y511454D01*
X10192Y511275D01*
X10191Y511262D01*
X10188Y511249D01*
X10161Y510918D01*
X10161Y505082D01*
X10162Y505069D01*
X10161Y505056D01*
X10182Y504869D01*
X10201Y504682D01*
X10205Y504669D01*
X10206Y504655D01*
X10264Y504477D01*
X10319Y504297D01*
X10325Y504285D01*
X10329Y504272D01*
X10421Y504108D01*
X10511Y503943D01*
X10519Y503932D01*
X10526Y503921D01*
X10648Y503777D01*
X10768Y503633D01*
X10779Y503625D01*
X10787Y503615D01*
X10936Y503499D01*
X11082Y503381D01*
X11094Y503375D01*
X11104Y503367D01*
X11273Y503282D01*
X11439Y503196D01*
X11452Y503192D01*
X11464Y503186D01*
X11646Y503136D01*
X11826Y503084D01*
X11840Y503083D01*
X11853Y503079D01*
X12041Y503067D01*
X12228Y503051D01*
X12241Y503053D01*
X12254Y503052D01*
X12442Y503076D01*
X12627Y503098D01*
X12640Y503102D01*
X12653Y503104D01*
X12969Y503206D01*
X15961Y504445D01*
X34839Y504445D01*
X38200Y503053D01*
X40773Y500480D01*
X42165Y497119D01*
X42165Y493481D01*
X40773Y490120D01*
X38200Y487547D01*
X34839Y486155D01*
X15961Y486155D01*
X12969Y487394D01*
X12956Y487398D01*
X12945Y487404D01*
X12764Y487456D01*
X12584Y487511D01*
X12571Y487512D01*
X12558Y487516D01*
X12370Y487531D01*
X12183Y487549D01*
X12170Y487548D01*
X12156Y487549D01*
X11969Y487527D01*
X11783Y487507D01*
X11770Y487503D01*
X11757Y487502D01*
X11577Y487443D01*
X11398Y487388D01*
X11387Y487381D01*
X11374Y487377D01*
X11209Y487284D01*
X11045Y487194D01*
X11035Y487186D01*
X11023Y487179D01*
X10881Y487056D01*
X10737Y486935D01*
X10729Y486925D01*
X10718Y486916D01*
X10603Y486767D01*
X10486Y486620D01*
X10480Y486608D01*
X10472Y486598D01*
X10388Y486429D01*
X10302Y486262D01*
X10298Y486249D01*
X10292Y486237D01*
X10243Y486054D01*
X10192Y485875D01*
X10191Y485862D01*
X10188Y485849D01*
X10161Y485518D01*
X10161Y479682D01*
X10162Y479669D01*
X10161Y479656D01*
X10182Y479469D01*
X10201Y479282D01*
X10205Y479269D01*
X10206Y479255D01*
X10264Y479077D01*
X10319Y478897D01*
X10325Y478885D01*
X10329Y478872D01*
X10421Y478708D01*
X10511Y478543D01*
X10519Y478532D01*
X10526Y478521D01*
X10648Y478377D01*
X10768Y478233D01*
X10779Y478225D01*
X10787Y478215D01*
X10936Y478099D01*
X11082Y477981D01*
X11094Y477975D01*
X11104Y477967D01*
X11273Y477882D01*
X11439Y477796D01*
X11452Y477792D01*
X11464Y477786D01*
X11646Y477736D01*
X11826Y477684D01*
X11840Y477683D01*
X11853Y477679D01*
X12041Y477667D01*
X12228Y477651D01*
X12241Y477653D01*
X12254Y477652D01*
X12442Y477676D01*
X12627Y477698D01*
X12640Y477702D01*
X12653Y477704D01*
X12969Y477806D01*
X15961Y479045D01*
X34839Y479045D01*
X38200Y477653D01*
X40797Y475056D01*
X40832Y474993D01*
X40920Y474827D01*
X40929Y474817D01*
X40935Y474805D01*
X41057Y474662D01*
X41177Y474517D01*
X41187Y474508D01*
X41196Y474498D01*
X41344Y474381D01*
X41490Y474263D01*
X41501Y474257D01*
X41512Y474249D01*
X41680Y474163D01*
X41846Y474076D01*
X41859Y474072D01*
X41871Y474066D01*
X42052Y474016D01*
X42232Y473963D01*
X42246Y473962D01*
X42259Y473958D01*
X42447Y473944D01*
X42634Y473928D01*
X42647Y473930D01*
X42660Y473929D01*
X42849Y473953D01*
X43034Y473974D01*
X43046Y473978D01*
X43060Y473979D01*
X43238Y474039D01*
X43417Y474097D01*
X43429Y474103D01*
X43441Y474108D01*
X43604Y474201D01*
X43768Y474293D01*
X43779Y474302D01*
X43790Y474308D01*
X44043Y474523D01*
X59348Y489828D01*
X62027Y492507D01*
X73614Y492507D01*
X73636Y492509D01*
X73658Y492507D01*
X73835Y492529D01*
X74014Y492547D01*
X74035Y492553D01*
X74058Y492556D01*
X74227Y492612D01*
X74399Y492665D01*
X74419Y492675D01*
X74440Y492682D01*
X74595Y492771D01*
X74753Y492857D01*
X74770Y492871D01*
X74790Y492882D01*
X74925Y493000D01*
X75062Y493114D01*
X75076Y493132D01*
X75093Y493146D01*
X75202Y493288D01*
X75315Y493428D01*
X75325Y493448D01*
X75339Y493466D01*
X75363Y493512D01*
X77691Y495841D01*
X80679Y497079D01*
X97121Y497079D01*
X100109Y495841D01*
X102395Y493555D01*
X103633Y490567D01*
X103633Y487333D01*
X102395Y484345D01*
X100109Y482059D01*
X98163Y481253D01*
X98162Y481253D01*
X97121Y480821D01*
X80679Y480821D01*
X77691Y482059D01*
X75351Y484399D01*
X75300Y484494D01*
X75286Y484511D01*
X75275Y484531D01*
X75158Y484666D01*
X75044Y484805D01*
X75026Y484819D01*
X75012Y484836D01*
X74871Y484945D01*
X74731Y485058D01*
X74711Y485069D01*
X74694Y485082D01*
X74533Y485162D01*
X74374Y485245D01*
X74353Y485252D01*
X74333Y485262D01*
X74159Y485308D01*
X73988Y485358D01*
X73966Y485360D01*
X73944Y485366D01*
X73614Y485393D01*
X65815Y485393D01*
X65788Y485391D01*
X65761Y485393D01*
X65587Y485371D01*
X65414Y485353D01*
X65389Y485346D01*
X65362Y485342D01*
X65196Y485287D01*
X65029Y485235D01*
X65006Y485222D01*
X64980Y485214D01*
X64829Y485127D01*
X64675Y485043D01*
X64655Y485026D01*
X64631Y485013D01*
X64378Y484798D01*
X45923Y466343D01*
X42802Y466343D01*
X42780Y466341D01*
X42758Y466343D01*
X42580Y466321D01*
X42402Y466303D01*
X42380Y466297D01*
X42358Y466294D01*
X42188Y466238D01*
X42017Y466185D01*
X41997Y466175D01*
X41976Y466168D01*
X41820Y466079D01*
X41663Y465993D01*
X41645Y465979D01*
X41626Y465968D01*
X41491Y465850D01*
X41353Y465736D01*
X41339Y465718D01*
X41323Y465704D01*
X41213Y465561D01*
X41101Y465422D01*
X41091Y465402D01*
X41077Y465384D01*
X40926Y465089D01*
X40773Y464720D01*
X38200Y462147D01*
X34839Y460755D01*
X15961Y460755D01*
X12969Y461994D01*
X12956Y461998D01*
X12945Y462004D01*
X12764Y462056D01*
X12584Y462111D01*
X12571Y462112D01*
X12558Y462116D01*
X12370Y462131D01*
X12183Y462149D01*
X12170Y462148D01*
X12156Y462149D01*
X11969Y462127D01*
X11783Y462107D01*
X11770Y462103D01*
X11757Y462102D01*
X11577Y462043D01*
X11398Y461988D01*
X11387Y461981D01*
X11374Y461977D01*
X11209Y461884D01*
X11045Y461794D01*
X11035Y461786D01*
X11023Y461779D01*
X10881Y461656D01*
X10737Y461535D01*
X10729Y461525D01*
X10718Y461516D01*
X10603Y461367D01*
X10486Y461220D01*
X10480Y461208D01*
X10472Y461198D01*
X10388Y461029D01*
X10302Y460862D01*
X10298Y460849D01*
X10292Y460837D01*
X10243Y460654D01*
X10192Y460475D01*
X10191Y460462D01*
X10188Y460449D01*
X10161Y460118D01*
X10161Y454282D01*
X10162Y454269D01*
X10161Y454256D01*
X10182Y454069D01*
X10201Y453882D01*
X10205Y453869D01*
X10206Y453855D01*
X10264Y453677D01*
X10319Y453497D01*
X10325Y453485D01*
X10329Y453472D01*
X10421Y453308D01*
X10511Y453143D01*
X10519Y453132D01*
X10526Y453121D01*
X10648Y452977D01*
X10768Y452833D01*
X10779Y452825D01*
X10787Y452815D01*
X10936Y452699D01*
X11082Y452581D01*
X11094Y452575D01*
X11104Y452567D01*
X11273Y452482D01*
X11439Y452396D01*
X11452Y452392D01*
X11464Y452386D01*
X11646Y452336D01*
X11826Y452284D01*
X11840Y452283D01*
X11853Y452279D01*
X12041Y452267D01*
X12228Y452251D01*
X12241Y452253D01*
X12254Y452252D01*
X12442Y452276D01*
X12627Y452298D01*
X12640Y452302D01*
X12653Y452304D01*
X12969Y452406D01*
X14721Y453131D01*
X15961Y453645D01*
X34839Y453645D01*
X38200Y452253D01*
X40773Y449680D01*
X42165Y446319D01*
X42165Y442681D01*
X40773Y439320D01*
X38200Y436747D01*
X37760Y436565D01*
X34839Y435355D01*
X15961Y435355D01*
X12969Y436594D01*
X12956Y436598D01*
X12945Y436604D01*
X12764Y436656D01*
X12584Y436711D01*
X12571Y436712D01*
X12558Y436716D01*
X12370Y436731D01*
X12183Y436749D01*
X12170Y436748D01*
X12156Y436749D01*
X11969Y436727D01*
X11783Y436707D01*
X11770Y436703D01*
X11757Y436702D01*
X11577Y436643D01*
X11398Y436588D01*
X11387Y436581D01*
X11374Y436577D01*
X11209Y436484D01*
X11045Y436394D01*
X11035Y436386D01*
X11023Y436379D01*
X10881Y436256D01*
X10737Y436135D01*
X10729Y436125D01*
X10718Y436116D01*
X10603Y435967D01*
X10486Y435820D01*
X10480Y435808D01*
X10472Y435798D01*
X10388Y435629D01*
X10302Y435462D01*
X10298Y435449D01*
X10292Y435437D01*
X10243Y435254D01*
X10192Y435075D01*
X10191Y435062D01*
X10188Y435049D01*
X10161Y434718D01*
X10161Y12192D01*
X10163Y12174D01*
X10161Y12156D01*
X10182Y11974D01*
X10201Y11791D01*
X10206Y11774D01*
X10208Y11757D01*
X10265Y11582D01*
X10319Y11406D01*
X10327Y11391D01*
X10333Y11374D01*
X10423Y11214D01*
X10511Y11052D01*
X10522Y11039D01*
X10531Y11023D01*
X10651Y10884D01*
X10768Y10743D01*
X10782Y10732D01*
X10794Y10718D01*
X10939Y10606D01*
X11082Y10491D01*
X11098Y10483D01*
X11112Y10472D01*
X11277Y10390D01*
X11439Y10305D01*
X11456Y10300D01*
X11472Y10292D01*
X11651Y10245D01*
X11826Y10194D01*
X11844Y10192D01*
X11861Y10188D01*
X12192Y10161D01*
X38994Y10161D01*
X39012Y10163D01*
G37*
%LPC*%
G36*
X328583Y176021D02*
X328583Y176021D01*
X325595Y177259D01*
X323309Y179545D01*
X322071Y182533D01*
X322071Y185767D01*
X323309Y188755D01*
X325649Y191095D01*
X325744Y191146D01*
X325761Y191160D01*
X325781Y191171D01*
X325917Y191288D01*
X326054Y191402D01*
X326069Y191420D01*
X326086Y191434D01*
X326195Y191576D01*
X326308Y191715D01*
X326319Y191735D01*
X326332Y191752D01*
X326412Y191913D01*
X326495Y192071D01*
X326502Y192093D01*
X326512Y192113D01*
X326558Y192287D01*
X326608Y192458D01*
X326610Y192480D01*
X326616Y192502D01*
X326643Y192832D01*
X326643Y261112D01*
X326641Y261130D01*
X326643Y261148D01*
X326622Y261330D01*
X326603Y261513D01*
X326598Y261530D01*
X326596Y261547D01*
X326539Y261722D01*
X326485Y261898D01*
X326477Y261913D01*
X326471Y261930D01*
X326381Y262090D01*
X326293Y262252D01*
X326282Y262265D01*
X326273Y262281D01*
X326153Y262420D01*
X326036Y262561D01*
X326022Y262572D01*
X326010Y262586D01*
X325865Y262698D01*
X325722Y262813D01*
X325706Y262821D01*
X325692Y262832D01*
X325527Y262914D01*
X325365Y262999D01*
X325348Y263004D01*
X325332Y263012D01*
X325153Y263059D01*
X324978Y263110D01*
X324960Y263112D01*
X324943Y263116D01*
X324612Y263143D01*
X303327Y263143D01*
X278522Y287948D01*
X278501Y287965D01*
X278483Y287986D01*
X278346Y288093D01*
X278210Y288203D01*
X278187Y288216D01*
X278165Y288232D01*
X278009Y288310D01*
X277854Y288392D01*
X277829Y288400D01*
X277805Y288412D01*
X277635Y288457D01*
X277469Y288507D01*
X277442Y288509D01*
X277416Y288516D01*
X277085Y288543D01*
X189027Y288543D01*
X174243Y303327D01*
X174243Y308720D01*
X174241Y308746D01*
X174243Y308773D01*
X174221Y308947D01*
X174203Y309120D01*
X174196Y309146D01*
X174192Y309172D01*
X174136Y309338D01*
X174085Y309505D01*
X174072Y309529D01*
X174064Y309554D01*
X173977Y309706D01*
X173893Y309859D01*
X173876Y309880D01*
X173863Y309903D01*
X173648Y310156D01*
X169671Y314133D01*
X169671Y320867D01*
X174433Y325629D01*
X181167Y325629D01*
X185929Y320867D01*
X185929Y314133D01*
X181952Y310156D01*
X181935Y310135D01*
X181914Y310118D01*
X181807Y309980D01*
X181697Y309844D01*
X181684Y309821D01*
X181668Y309800D01*
X181590Y309643D01*
X181508Y309489D01*
X181500Y309463D01*
X181488Y309439D01*
X181443Y309270D01*
X181393Y309103D01*
X181391Y309076D01*
X181384Y309050D01*
X181357Y308720D01*
X181357Y307115D01*
X181359Y307088D01*
X181357Y307061D01*
X181379Y306887D01*
X181397Y306714D01*
X181404Y306688D01*
X181408Y306662D01*
X181463Y306496D01*
X181515Y306329D01*
X181528Y306306D01*
X181536Y306280D01*
X181623Y306129D01*
X181707Y305975D01*
X181724Y305955D01*
X181737Y305931D01*
X181952Y305678D01*
X191378Y296252D01*
X191399Y296235D01*
X191417Y296214D01*
X191554Y296107D01*
X191690Y295997D01*
X191713Y295984D01*
X191735Y295968D01*
X191892Y295890D01*
X192046Y295808D01*
X192071Y295800D01*
X192095Y295788D01*
X192265Y295743D01*
X192431Y295693D01*
X192458Y295691D01*
X192484Y295684D01*
X192815Y295657D01*
X280873Y295657D01*
X305678Y270852D01*
X305699Y270835D01*
X305717Y270814D01*
X305854Y270707D01*
X305990Y270597D01*
X306013Y270584D01*
X306035Y270568D01*
X306192Y270490D01*
X306346Y270408D01*
X306371Y270400D01*
X306395Y270388D01*
X306565Y270343D01*
X306731Y270293D01*
X306758Y270291D01*
X306784Y270284D01*
X307115Y270257D01*
X340470Y270257D01*
X340496Y270259D01*
X340523Y270257D01*
X340697Y270279D01*
X340870Y270297D01*
X340896Y270304D01*
X340922Y270308D01*
X341088Y270363D01*
X341255Y270415D01*
X341279Y270428D01*
X341304Y270436D01*
X341456Y270523D01*
X341609Y270607D01*
X341630Y270624D01*
X341653Y270637D01*
X341906Y270852D01*
X345098Y274044D01*
X345115Y274065D01*
X345136Y274082D01*
X345243Y274220D01*
X345353Y274356D01*
X345366Y274379D01*
X345382Y274400D01*
X345460Y274557D01*
X345542Y274711D01*
X345550Y274737D01*
X345562Y274761D01*
X345607Y274930D01*
X345657Y275097D01*
X345659Y275124D01*
X345666Y275150D01*
X345693Y275480D01*
X345693Y289785D01*
X345691Y289812D01*
X345693Y289839D01*
X345671Y290013D01*
X345653Y290186D01*
X345646Y290211D01*
X345642Y290238D01*
X345587Y290404D01*
X345535Y290571D01*
X345522Y290594D01*
X345514Y290620D01*
X345427Y290771D01*
X345343Y290925D01*
X345326Y290945D01*
X345313Y290969D01*
X345098Y291222D01*
X320293Y316027D01*
X320293Y651735D01*
X320291Y651762D01*
X320293Y651789D01*
X320271Y651963D01*
X320253Y652136D01*
X320246Y652161D01*
X320242Y652188D01*
X320187Y652354D01*
X320135Y652521D01*
X320122Y652544D01*
X320114Y652570D01*
X320027Y652721D01*
X319943Y652875D01*
X319926Y652895D01*
X319913Y652919D01*
X319698Y653172D01*
X297572Y675298D01*
X297551Y675315D01*
X297533Y675336D01*
X297396Y675443D01*
X297260Y675553D01*
X297237Y675566D01*
X297215Y675582D01*
X297058Y675660D01*
X296904Y675742D01*
X296879Y675750D01*
X296855Y675762D01*
X296685Y675807D01*
X296519Y675857D01*
X296492Y675859D01*
X296466Y675866D01*
X296135Y675893D01*
X252345Y675893D01*
X252318Y675891D01*
X252292Y675893D01*
X252118Y675871D01*
X251944Y675853D01*
X251919Y675846D01*
X251892Y675842D01*
X251726Y675787D01*
X251559Y675735D01*
X251536Y675722D01*
X251510Y675714D01*
X251359Y675627D01*
X251205Y675543D01*
X251185Y675526D01*
X251162Y675513D01*
X250909Y675298D01*
X245003Y669393D01*
X236797Y669393D01*
X230993Y675197D01*
X230993Y683403D01*
X236797Y689207D01*
X245003Y689207D01*
X250609Y683602D01*
X250629Y683585D01*
X250647Y683564D01*
X250785Y683457D01*
X250920Y683347D01*
X250944Y683334D01*
X250965Y683318D01*
X251122Y683240D01*
X251276Y683158D01*
X251301Y683150D01*
X251325Y683138D01*
X251495Y683093D01*
X251662Y683043D01*
X251688Y683041D01*
X251714Y683034D01*
X252045Y683007D01*
X299923Y683007D01*
X327407Y655523D01*
X327407Y319815D01*
X327409Y319788D01*
X327407Y319761D01*
X327429Y319587D01*
X327447Y319414D01*
X327454Y319389D01*
X327458Y319362D01*
X327513Y319196D01*
X327565Y319029D01*
X327578Y319006D01*
X327586Y318980D01*
X327673Y318829D01*
X327757Y318675D01*
X327774Y318655D01*
X327787Y318631D01*
X328002Y318378D01*
X352807Y293573D01*
X352807Y275480D01*
X352809Y275454D01*
X352807Y275427D01*
X352829Y275253D01*
X352847Y275080D01*
X352854Y275054D01*
X352858Y275028D01*
X352913Y274862D01*
X352965Y274695D01*
X352978Y274671D01*
X352986Y274646D01*
X353073Y274494D01*
X353157Y274341D01*
X353174Y274320D01*
X353187Y274297D01*
X353402Y274044D01*
X357379Y270067D01*
X357379Y263333D01*
X352617Y258571D01*
X345883Y258571D01*
X341906Y262548D01*
X341885Y262565D01*
X341868Y262586D01*
X341730Y262693D01*
X341594Y262803D01*
X341571Y262816D01*
X341550Y262832D01*
X341393Y262910D01*
X341239Y262992D01*
X341213Y263000D01*
X341189Y263012D01*
X341020Y263057D01*
X340853Y263107D01*
X340826Y263109D01*
X340800Y263116D01*
X340470Y263143D01*
X335788Y263143D01*
X335770Y263141D01*
X335752Y263143D01*
X335570Y263122D01*
X335387Y263103D01*
X335370Y263098D01*
X335353Y263096D01*
X335178Y263039D01*
X335002Y262985D01*
X334987Y262977D01*
X334970Y262971D01*
X334810Y262881D01*
X334648Y262793D01*
X334635Y262782D01*
X334619Y262773D01*
X334480Y262653D01*
X334339Y262536D01*
X334328Y262522D01*
X334314Y262510D01*
X334202Y262365D01*
X334087Y262222D01*
X334079Y262206D01*
X334068Y262192D01*
X333986Y262027D01*
X333901Y261865D01*
X333896Y261848D01*
X333888Y261832D01*
X333841Y261653D01*
X333790Y261478D01*
X333788Y261460D01*
X333784Y261443D01*
X333757Y261112D01*
X333757Y192832D01*
X333759Y192810D01*
X333757Y192788D01*
X333779Y192610D01*
X333797Y192432D01*
X333803Y192410D01*
X333806Y192388D01*
X333862Y192218D01*
X333915Y192047D01*
X333925Y192027D01*
X333933Y192006D01*
X334021Y191850D01*
X334107Y191693D01*
X334121Y191676D01*
X334132Y191656D01*
X334250Y191521D01*
X334364Y191384D01*
X334382Y191370D01*
X334397Y191353D01*
X334539Y191244D01*
X334678Y191131D01*
X334698Y191121D01*
X334716Y191107D01*
X334763Y191083D01*
X337091Y188755D01*
X338329Y185767D01*
X338329Y182533D01*
X337091Y179545D01*
X334805Y177259D01*
X333130Y176565D01*
X331817Y176021D01*
X328583Y176021D01*
G37*
%LPD*%
%LPC*%
G36*
X379056Y793425D02*
X379056Y793425D01*
X375463Y794913D01*
X372713Y797663D01*
X371225Y801256D01*
X371225Y805144D01*
X372156Y807391D01*
X372160Y807404D01*
X372166Y807415D01*
X372218Y807596D01*
X372272Y807776D01*
X372273Y807789D01*
X372277Y807802D01*
X372293Y807990D01*
X372310Y808177D01*
X372309Y808190D01*
X372310Y808204D01*
X372288Y808391D01*
X372269Y808577D01*
X372265Y808590D01*
X372263Y808603D01*
X372205Y808783D01*
X372149Y808962D01*
X372142Y808973D01*
X372138Y808986D01*
X372045Y809151D01*
X371956Y809315D01*
X371947Y809325D01*
X371940Y809337D01*
X371817Y809479D01*
X371696Y809623D01*
X371686Y809631D01*
X371677Y809642D01*
X371529Y809757D01*
X371382Y809874D01*
X371370Y809880D01*
X371359Y809888D01*
X371190Y809972D01*
X371023Y810058D01*
X371011Y810062D01*
X370999Y810068D01*
X370816Y810117D01*
X370636Y810168D01*
X370623Y810169D01*
X370610Y810172D01*
X370279Y810199D01*
X353000Y810199D01*
X352999Y810200D01*
X352999Y866200D01*
X353000Y866201D01*
X409000Y866201D01*
X409001Y866200D01*
X409001Y810200D01*
X409000Y810199D01*
X391721Y810199D01*
X391708Y810198D01*
X391694Y810199D01*
X391508Y810178D01*
X391320Y810159D01*
X391307Y810155D01*
X391294Y810154D01*
X391116Y810097D01*
X390935Y810041D01*
X390924Y810035D01*
X390911Y810031D01*
X390747Y809939D01*
X390581Y809849D01*
X390571Y809841D01*
X390559Y809834D01*
X390416Y809712D01*
X390272Y809592D01*
X390264Y809581D01*
X390254Y809573D01*
X390137Y809424D01*
X390020Y809278D01*
X390014Y809266D01*
X390005Y809256D01*
X389921Y809087D01*
X389834Y808921D01*
X389831Y808908D01*
X389825Y808896D01*
X389775Y808714D01*
X389723Y808534D01*
X389722Y808520D01*
X389718Y808507D01*
X389705Y808319D01*
X389690Y808132D01*
X389692Y808119D01*
X389691Y808106D01*
X389715Y807918D01*
X389737Y807733D01*
X389741Y807720D01*
X389743Y807707D01*
X389844Y807391D01*
X390775Y805144D01*
X390775Y801256D01*
X389287Y797663D01*
X386537Y794913D01*
X382944Y793425D01*
X379056Y793425D01*
G37*
%LPD*%
%LPC*%
G36*
X106006Y367975D02*
X106006Y367975D01*
X102413Y369463D01*
X99663Y372213D01*
X98175Y375806D01*
X98175Y379694D01*
X99106Y381941D01*
X99110Y381954D01*
X99116Y381965D01*
X99168Y382146D01*
X99222Y382326D01*
X99223Y382339D01*
X99227Y382352D01*
X99243Y382540D01*
X99260Y382727D01*
X99259Y382740D01*
X99260Y382754D01*
X99238Y382941D01*
X99219Y383127D01*
X99215Y383140D01*
X99213Y383153D01*
X99155Y383333D01*
X99099Y383512D01*
X99092Y383523D01*
X99088Y383536D01*
X98995Y383701D01*
X98906Y383865D01*
X98897Y383875D01*
X98890Y383887D01*
X98767Y384029D01*
X98646Y384173D01*
X98636Y384181D01*
X98627Y384192D01*
X98479Y384307D01*
X98332Y384424D01*
X98320Y384430D01*
X98309Y384438D01*
X98140Y384522D01*
X97973Y384608D01*
X97961Y384612D01*
X97949Y384618D01*
X97766Y384667D01*
X97586Y384718D01*
X97573Y384719D01*
X97560Y384722D01*
X97229Y384749D01*
X79950Y384749D01*
X79949Y384750D01*
X79949Y440750D01*
X79950Y440751D01*
X135950Y440751D01*
X135951Y440750D01*
X135951Y384750D01*
X135950Y384749D01*
X118671Y384749D01*
X118658Y384748D01*
X118644Y384749D01*
X118458Y384728D01*
X118270Y384709D01*
X118257Y384705D01*
X118244Y384704D01*
X118066Y384647D01*
X117885Y384591D01*
X117874Y384585D01*
X117861Y384581D01*
X117697Y384489D01*
X117531Y384399D01*
X117521Y384391D01*
X117509Y384384D01*
X117366Y384262D01*
X117222Y384142D01*
X117214Y384131D01*
X117204Y384123D01*
X117087Y383974D01*
X116970Y383828D01*
X116964Y383816D01*
X116955Y383806D01*
X116871Y383637D01*
X116784Y383471D01*
X116781Y383458D01*
X116775Y383446D01*
X116725Y383264D01*
X116673Y383084D01*
X116672Y383070D01*
X116668Y383057D01*
X116655Y382869D01*
X116640Y382682D01*
X116642Y382669D01*
X116641Y382656D01*
X116665Y382468D01*
X116687Y382283D01*
X116691Y382270D01*
X116693Y382257D01*
X116794Y381941D01*
X117725Y379694D01*
X117725Y375806D01*
X116237Y372213D01*
X113487Y369463D01*
X109894Y367975D01*
X106006Y367975D01*
G37*
%LPD*%
%LPC*%
G36*
X106006Y539425D02*
X106006Y539425D01*
X102413Y540913D01*
X99663Y543663D01*
X98175Y547256D01*
X98175Y551144D01*
X99106Y553391D01*
X99110Y553404D01*
X99116Y553415D01*
X99168Y553596D01*
X99222Y553776D01*
X99223Y553789D01*
X99227Y553802D01*
X99243Y553990D01*
X99260Y554177D01*
X99259Y554190D01*
X99260Y554204D01*
X99238Y554391D01*
X99219Y554577D01*
X99215Y554590D01*
X99213Y554603D01*
X99155Y554783D01*
X99099Y554962D01*
X99092Y554973D01*
X99088Y554986D01*
X98995Y555151D01*
X98906Y555315D01*
X98897Y555325D01*
X98890Y555337D01*
X98767Y555479D01*
X98646Y555623D01*
X98636Y555631D01*
X98627Y555642D01*
X98479Y555757D01*
X98332Y555874D01*
X98320Y555880D01*
X98309Y555888D01*
X98140Y555972D01*
X97973Y556058D01*
X97961Y556062D01*
X97949Y556068D01*
X97766Y556117D01*
X97586Y556168D01*
X97573Y556169D01*
X97560Y556172D01*
X97229Y556199D01*
X79950Y556199D01*
X79949Y556200D01*
X79949Y612200D01*
X79950Y612201D01*
X135950Y612201D01*
X135951Y612200D01*
X135951Y556200D01*
X135950Y556199D01*
X118671Y556199D01*
X118658Y556198D01*
X118644Y556199D01*
X118458Y556178D01*
X118270Y556159D01*
X118257Y556155D01*
X118244Y556154D01*
X118066Y556097D01*
X117885Y556041D01*
X117874Y556035D01*
X117861Y556031D01*
X117697Y555939D01*
X117531Y555849D01*
X117521Y555841D01*
X117509Y555834D01*
X117366Y555712D01*
X117222Y555592D01*
X117214Y555581D01*
X117204Y555573D01*
X117087Y555424D01*
X116970Y555278D01*
X116964Y555266D01*
X116955Y555256D01*
X116871Y555087D01*
X116784Y554921D01*
X116781Y554908D01*
X116775Y554896D01*
X116725Y554714D01*
X116673Y554534D01*
X116672Y554520D01*
X116668Y554507D01*
X116655Y554319D01*
X116640Y554132D01*
X116642Y554119D01*
X116641Y554106D01*
X116665Y553918D01*
X116687Y553733D01*
X116691Y553720D01*
X116693Y553707D01*
X116794Y553391D01*
X117725Y551144D01*
X117725Y547256D01*
X116237Y543663D01*
X113487Y540913D01*
X111666Y540159D01*
X109894Y539425D01*
X106006Y539425D01*
G37*
%LPD*%
%LPC*%
G36*
X48856Y190175D02*
X48856Y190175D01*
X45263Y191663D01*
X42513Y194413D01*
X41025Y198006D01*
X41025Y201894D01*
X41956Y204141D01*
X41960Y204154D01*
X41966Y204165D01*
X42018Y204346D01*
X42072Y204526D01*
X42073Y204539D01*
X42077Y204552D01*
X42093Y204740D01*
X42110Y204927D01*
X42109Y204940D01*
X42110Y204954D01*
X42088Y205141D01*
X42069Y205327D01*
X42065Y205340D01*
X42063Y205353D01*
X42005Y205533D01*
X41949Y205712D01*
X41942Y205723D01*
X41938Y205736D01*
X41845Y205901D01*
X41756Y206065D01*
X41747Y206075D01*
X41740Y206087D01*
X41617Y206229D01*
X41496Y206373D01*
X41486Y206381D01*
X41477Y206392D01*
X41329Y206507D01*
X41182Y206624D01*
X41170Y206630D01*
X41159Y206638D01*
X40990Y206722D01*
X40823Y206808D01*
X40811Y206812D01*
X40799Y206818D01*
X40616Y206867D01*
X40436Y206918D01*
X40423Y206919D01*
X40410Y206922D01*
X40079Y206949D01*
X22800Y206949D01*
X22799Y206950D01*
X22799Y262950D01*
X22800Y262951D01*
X78800Y262951D01*
X78801Y262950D01*
X78801Y206950D01*
X78800Y206949D01*
X61521Y206949D01*
X61508Y206948D01*
X61494Y206949D01*
X61308Y206928D01*
X61120Y206909D01*
X61107Y206905D01*
X61094Y206904D01*
X60916Y206847D01*
X60735Y206791D01*
X60724Y206785D01*
X60711Y206781D01*
X60547Y206689D01*
X60381Y206599D01*
X60371Y206591D01*
X60359Y206584D01*
X60216Y206462D01*
X60072Y206342D01*
X60064Y206331D01*
X60054Y206323D01*
X59937Y206174D01*
X59820Y206028D01*
X59814Y206016D01*
X59805Y206006D01*
X59721Y205837D01*
X59634Y205671D01*
X59631Y205658D01*
X59625Y205646D01*
X59575Y205464D01*
X59523Y205284D01*
X59522Y205270D01*
X59518Y205257D01*
X59505Y205069D01*
X59490Y204882D01*
X59492Y204869D01*
X59491Y204856D01*
X59515Y204668D01*
X59537Y204483D01*
X59541Y204470D01*
X59543Y204457D01*
X59644Y204141D01*
X60575Y201894D01*
X60575Y198006D01*
X59087Y194413D01*
X56337Y191663D01*
X54214Y190784D01*
X52744Y190175D01*
X48856Y190175D01*
G37*
%LPD*%
%LPC*%
G36*
X379056Y475925D02*
X379056Y475925D01*
X375463Y477413D01*
X372713Y480163D01*
X371225Y483756D01*
X371225Y487644D01*
X372156Y489891D01*
X372160Y489904D01*
X372166Y489915D01*
X372218Y490095D01*
X372272Y490276D01*
X372274Y490289D01*
X372277Y490302D01*
X372293Y490490D01*
X372310Y490677D01*
X372309Y490690D01*
X372310Y490704D01*
X372288Y490890D01*
X372269Y491077D01*
X372265Y491090D01*
X372263Y491103D01*
X372205Y491282D01*
X372149Y491462D01*
X372143Y491473D01*
X372138Y491486D01*
X372046Y491650D01*
X371956Y491815D01*
X371947Y491825D01*
X371940Y491837D01*
X371818Y491979D01*
X371696Y492123D01*
X371686Y492131D01*
X371677Y492142D01*
X371529Y492256D01*
X371382Y492374D01*
X371370Y492380D01*
X371359Y492388D01*
X371191Y492472D01*
X371024Y492558D01*
X371011Y492562D01*
X370999Y492568D01*
X370816Y492617D01*
X370636Y492668D01*
X370623Y492669D01*
X370610Y492672D01*
X370279Y492699D01*
X353000Y492699D01*
X352999Y492700D01*
X352999Y548700D01*
X353000Y548701D01*
X409000Y548701D01*
X409001Y548700D01*
X409001Y492700D01*
X409000Y492699D01*
X391721Y492699D01*
X391707Y492698D01*
X391694Y492699D01*
X391508Y492678D01*
X391320Y492659D01*
X391307Y492655D01*
X391294Y492654D01*
X391116Y492597D01*
X390935Y492541D01*
X390923Y492535D01*
X390911Y492531D01*
X390747Y492439D01*
X390581Y492349D01*
X390571Y492341D01*
X390559Y492334D01*
X390416Y492211D01*
X390272Y492092D01*
X390264Y492081D01*
X390253Y492073D01*
X390137Y491924D01*
X390020Y491778D01*
X390014Y491766D01*
X390005Y491756D01*
X389920Y491586D01*
X389834Y491421D01*
X389831Y491408D01*
X389824Y491396D01*
X389775Y491214D01*
X389723Y491034D01*
X389722Y491020D01*
X389718Y491007D01*
X389705Y490820D01*
X389690Y490632D01*
X389691Y490619D01*
X389691Y490606D01*
X389715Y490418D01*
X389737Y490233D01*
X389741Y490220D01*
X389743Y490207D01*
X389844Y489891D01*
X390775Y487644D01*
X390775Y483756D01*
X389287Y480163D01*
X386537Y477413D01*
X382944Y475925D01*
X379056Y475925D01*
G37*
%LPD*%
%LPC*%
G36*
X379056Y317175D02*
X379056Y317175D01*
X375463Y318663D01*
X372713Y321413D01*
X371225Y325006D01*
X371225Y328894D01*
X372156Y331141D01*
X372160Y331154D01*
X372166Y331165D01*
X372218Y331345D01*
X372272Y331526D01*
X372274Y331539D01*
X372277Y331552D01*
X372293Y331740D01*
X372310Y331927D01*
X372309Y331940D01*
X372310Y331954D01*
X372288Y332140D01*
X372269Y332327D01*
X372265Y332340D01*
X372263Y332353D01*
X372205Y332532D01*
X372149Y332712D01*
X372143Y332723D01*
X372138Y332736D01*
X372046Y332900D01*
X371956Y333065D01*
X371947Y333075D01*
X371940Y333087D01*
X371818Y333229D01*
X371696Y333373D01*
X371686Y333381D01*
X371677Y333392D01*
X371529Y333506D01*
X371382Y333624D01*
X371370Y333630D01*
X371359Y333638D01*
X371191Y333722D01*
X371024Y333808D01*
X371011Y333812D01*
X370999Y333818D01*
X370816Y333867D01*
X370636Y333918D01*
X370623Y333919D01*
X370610Y333922D01*
X370279Y333949D01*
X353000Y333949D01*
X352999Y333950D01*
X352999Y389950D01*
X353000Y389951D01*
X409000Y389951D01*
X409001Y389950D01*
X409001Y333950D01*
X409000Y333949D01*
X391721Y333949D01*
X391707Y333948D01*
X391694Y333949D01*
X391508Y333928D01*
X391320Y333909D01*
X391307Y333905D01*
X391294Y333904D01*
X391116Y333847D01*
X390935Y333791D01*
X390923Y333785D01*
X390911Y333781D01*
X390747Y333689D01*
X390581Y333599D01*
X390571Y333591D01*
X390559Y333584D01*
X390416Y333461D01*
X390272Y333342D01*
X390264Y333331D01*
X390253Y333323D01*
X390137Y333174D01*
X390020Y333028D01*
X390014Y333016D01*
X390005Y333006D01*
X389920Y332836D01*
X389834Y332671D01*
X389831Y332658D01*
X389824Y332646D01*
X389775Y332464D01*
X389723Y332284D01*
X389722Y332270D01*
X389718Y332257D01*
X389705Y332070D01*
X389690Y331882D01*
X389691Y331869D01*
X389691Y331856D01*
X389715Y331668D01*
X389737Y331483D01*
X389741Y331470D01*
X389743Y331457D01*
X389844Y331141D01*
X390775Y328894D01*
X390775Y325006D01*
X389287Y321413D01*
X386537Y318663D01*
X382944Y317175D01*
X379056Y317175D01*
G37*
%LPD*%
%LPC*%
G36*
X379056Y634675D02*
X379056Y634675D01*
X375463Y636163D01*
X372713Y638913D01*
X371225Y642506D01*
X371225Y646394D01*
X372156Y648641D01*
X372160Y648654D01*
X372166Y648665D01*
X372218Y648845D01*
X372272Y649026D01*
X372274Y649039D01*
X372277Y649052D01*
X372293Y649240D01*
X372310Y649427D01*
X372309Y649440D01*
X372310Y649454D01*
X372288Y649640D01*
X372269Y649827D01*
X372265Y649840D01*
X372263Y649853D01*
X372205Y650033D01*
X372149Y650212D01*
X372143Y650223D01*
X372138Y650236D01*
X372046Y650400D01*
X371956Y650565D01*
X371947Y650575D01*
X371940Y650587D01*
X371818Y650729D01*
X371696Y650873D01*
X371686Y650881D01*
X371677Y650892D01*
X371529Y651006D01*
X371382Y651124D01*
X371370Y651130D01*
X371359Y651138D01*
X371191Y651222D01*
X371024Y651308D01*
X371011Y651312D01*
X370999Y651318D01*
X370816Y651367D01*
X370636Y651418D01*
X370623Y651419D01*
X370610Y651422D01*
X370279Y651449D01*
X353000Y651449D01*
X352999Y651450D01*
X352999Y707450D01*
X353000Y707451D01*
X409000Y707451D01*
X409001Y707450D01*
X409001Y651450D01*
X409000Y651449D01*
X391721Y651449D01*
X391707Y651448D01*
X391694Y651449D01*
X391508Y651428D01*
X391320Y651409D01*
X391307Y651405D01*
X391294Y651404D01*
X391116Y651347D01*
X390935Y651291D01*
X390923Y651285D01*
X390911Y651281D01*
X390747Y651189D01*
X390581Y651099D01*
X390571Y651091D01*
X390559Y651084D01*
X390416Y650961D01*
X390272Y650842D01*
X390264Y650831D01*
X390253Y650823D01*
X390137Y650674D01*
X390020Y650528D01*
X390014Y650516D01*
X390005Y650506D01*
X389920Y650336D01*
X389834Y650171D01*
X389831Y650158D01*
X389824Y650146D01*
X389775Y649964D01*
X389723Y649784D01*
X389722Y649770D01*
X389718Y649757D01*
X389705Y649569D01*
X389690Y649382D01*
X389691Y649369D01*
X389691Y649356D01*
X389715Y649168D01*
X389737Y648983D01*
X389741Y648970D01*
X389743Y648957D01*
X389844Y648641D01*
X390775Y646394D01*
X390775Y642506D01*
X389287Y638913D01*
X386537Y636163D01*
X382944Y634675D01*
X379056Y634675D01*
G37*
%LPD*%
%LPC*%
G36*
X22800Y886399D02*
X22800Y886399D01*
X22799Y886400D01*
X22799Y942400D01*
X22800Y942401D01*
X40079Y942401D01*
X40093Y942402D01*
X40106Y942401D01*
X40292Y942422D01*
X40480Y942441D01*
X40493Y942445D01*
X40506Y942446D01*
X40684Y942503D01*
X40865Y942559D01*
X40877Y942565D01*
X40889Y942569D01*
X41053Y942661D01*
X41219Y942751D01*
X41229Y942759D01*
X41241Y942766D01*
X41384Y942889D01*
X41528Y943008D01*
X41536Y943019D01*
X41547Y943027D01*
X41663Y943176D01*
X41780Y943322D01*
X41786Y943334D01*
X41795Y943344D01*
X41880Y943514D01*
X41966Y943679D01*
X41969Y943692D01*
X41976Y943704D01*
X42025Y943886D01*
X42077Y944066D01*
X42078Y944080D01*
X42082Y944093D01*
X42095Y944280D01*
X42110Y944468D01*
X42109Y944481D01*
X42109Y944494D01*
X42085Y944682D01*
X42063Y944867D01*
X42059Y944880D01*
X42057Y944893D01*
X41956Y945209D01*
X41025Y947456D01*
X41025Y951344D01*
X42513Y954937D01*
X45263Y957687D01*
X48856Y959175D01*
X52744Y959175D01*
X56337Y957687D01*
X59087Y954937D01*
X60575Y951344D01*
X60575Y947456D01*
X59644Y945209D01*
X59640Y945196D01*
X59634Y945185D01*
X59582Y945005D01*
X59528Y944824D01*
X59526Y944811D01*
X59523Y944798D01*
X59507Y944610D01*
X59490Y944423D01*
X59491Y944410D01*
X59490Y944396D01*
X59512Y944210D01*
X59531Y944023D01*
X59535Y944010D01*
X59537Y943997D01*
X59595Y943817D01*
X59651Y943638D01*
X59657Y943627D01*
X59662Y943614D01*
X59754Y943450D01*
X59844Y943285D01*
X59853Y943275D01*
X59860Y943263D01*
X59982Y943121D01*
X60104Y942977D01*
X60114Y942969D01*
X60123Y942958D01*
X60271Y942844D01*
X60418Y942726D01*
X60430Y942720D01*
X60441Y942712D01*
X60609Y942628D01*
X60776Y942542D01*
X60789Y942538D01*
X60801Y942532D01*
X60984Y942483D01*
X61164Y942432D01*
X61177Y942431D01*
X61190Y942428D01*
X61521Y942401D01*
X78800Y942401D01*
X78801Y942400D01*
X78801Y886400D01*
X78800Y886399D01*
X22800Y886399D01*
G37*
%LPD*%
%LPC*%
G36*
X22800Y35499D02*
X22800Y35499D01*
X22799Y35500D01*
X22799Y91500D01*
X22800Y91501D01*
X38941Y91501D01*
X39034Y91510D01*
X39128Y91509D01*
X39234Y91530D01*
X39342Y91541D01*
X39431Y91568D01*
X39523Y91586D01*
X39623Y91627D01*
X39726Y91659D01*
X39809Y91703D01*
X39896Y91739D01*
X39985Y91799D01*
X40080Y91851D01*
X40152Y91911D01*
X40230Y91963D01*
X40307Y92039D01*
X40390Y92108D01*
X40448Y92181D01*
X40515Y92248D01*
X40574Y92338D01*
X40642Y92422D01*
X40685Y92505D01*
X40737Y92583D01*
X40778Y92684D01*
X40828Y92779D01*
X40853Y92869D01*
X40889Y92956D01*
X40909Y93062D01*
X40939Y93166D01*
X40947Y93260D01*
X40964Y93352D01*
X40963Y93460D01*
X40972Y93568D01*
X40961Y93661D01*
X40960Y93754D01*
X40938Y93860D01*
X40925Y93967D01*
X40896Y94056D01*
X40876Y94148D01*
X40836Y94247D01*
X40347Y95751D01*
X50082Y95751D01*
X50100Y95752D01*
X50117Y95751D01*
X50300Y95772D01*
X50482Y95791D01*
X50499Y95796D01*
X50517Y95798D01*
X50692Y95855D01*
X50792Y95886D01*
X50799Y95882D01*
X50977Y95834D01*
X51152Y95784D01*
X51170Y95782D01*
X51187Y95778D01*
X51518Y95751D01*
X61253Y95751D01*
X60783Y94305D01*
X60772Y94285D01*
X60743Y94181D01*
X60703Y94080D01*
X60687Y93988D01*
X60661Y93898D01*
X60652Y93790D01*
X60634Y93684D01*
X60636Y93590D01*
X60628Y93496D01*
X60641Y93389D01*
X60643Y93281D01*
X60664Y93190D01*
X60675Y93097D01*
X60709Y92994D01*
X60733Y92888D01*
X60771Y92803D01*
X60800Y92714D01*
X60853Y92620D01*
X60897Y92521D01*
X60952Y92445D01*
X60998Y92363D01*
X61068Y92281D01*
X61131Y92193D01*
X61200Y92129D01*
X61261Y92058D01*
X61346Y91992D01*
X61425Y91918D01*
X61505Y91869D01*
X61579Y91812D01*
X61676Y91764D01*
X61768Y91707D01*
X61856Y91674D01*
X61940Y91632D01*
X62044Y91604D01*
X62145Y91567D01*
X62238Y91552D01*
X62328Y91528D01*
X62461Y91517D01*
X62543Y91504D01*
X62593Y91506D01*
X62659Y91501D01*
X78800Y91501D01*
X78801Y91500D01*
X78801Y35500D01*
X78800Y35499D01*
X22800Y35499D01*
G37*
%LPD*%
%LPC*%
G36*
X149800Y35499D02*
X149800Y35499D01*
X149799Y35500D01*
X149799Y91500D01*
X149800Y91501D01*
X165941Y91501D01*
X166034Y91510D01*
X166128Y91509D01*
X166234Y91530D01*
X166342Y91541D01*
X166431Y91568D01*
X166523Y91586D01*
X166623Y91627D01*
X166726Y91659D01*
X166809Y91703D01*
X166896Y91739D01*
X166985Y91799D01*
X167080Y91851D01*
X167152Y91911D01*
X167230Y91963D01*
X167307Y92039D01*
X167390Y92108D01*
X167448Y92181D01*
X167515Y92248D01*
X167574Y92338D01*
X167642Y92422D01*
X167685Y92505D01*
X167737Y92583D01*
X167778Y92684D01*
X167828Y92779D01*
X167853Y92869D01*
X167889Y92956D01*
X167909Y93062D01*
X167939Y93166D01*
X167947Y93260D01*
X167964Y93352D01*
X167963Y93460D01*
X167972Y93568D01*
X167961Y93661D01*
X167960Y93754D01*
X167938Y93860D01*
X167925Y93967D01*
X167896Y94056D01*
X167876Y94148D01*
X167836Y94247D01*
X167347Y95751D01*
X177082Y95751D01*
X177100Y95752D01*
X177117Y95751D01*
X177300Y95772D01*
X177482Y95791D01*
X177499Y95796D01*
X177517Y95798D01*
X177692Y95855D01*
X177792Y95886D01*
X177799Y95882D01*
X177977Y95834D01*
X178152Y95784D01*
X178170Y95782D01*
X178187Y95778D01*
X178518Y95751D01*
X188253Y95751D01*
X187783Y94305D01*
X187772Y94285D01*
X187743Y94181D01*
X187703Y94080D01*
X187687Y93988D01*
X187661Y93898D01*
X187652Y93790D01*
X187634Y93684D01*
X187636Y93590D01*
X187628Y93496D01*
X187641Y93389D01*
X187643Y93281D01*
X187664Y93190D01*
X187675Y93097D01*
X187709Y92994D01*
X187733Y92888D01*
X187771Y92803D01*
X187800Y92714D01*
X187853Y92620D01*
X187897Y92521D01*
X187952Y92445D01*
X187998Y92363D01*
X188068Y92281D01*
X188131Y92193D01*
X188200Y92129D01*
X188261Y92058D01*
X188346Y91992D01*
X188425Y91918D01*
X188505Y91869D01*
X188579Y91812D01*
X188676Y91764D01*
X188768Y91707D01*
X188856Y91674D01*
X188940Y91632D01*
X189044Y91604D01*
X189145Y91567D01*
X189238Y91552D01*
X189328Y91528D01*
X189461Y91517D01*
X189543Y91504D01*
X189593Y91506D01*
X189659Y91501D01*
X205800Y91501D01*
X205801Y91500D01*
X205801Y35500D01*
X205800Y35499D01*
X149800Y35499D01*
G37*
%LPD*%
%LPC*%
G36*
X181886Y669393D02*
X181886Y669393D01*
X180993Y670286D01*
X180993Y688314D01*
X181886Y689207D01*
X184912Y689207D01*
X184930Y689209D01*
X184948Y689207D01*
X185130Y689228D01*
X185313Y689247D01*
X185330Y689252D01*
X185347Y689254D01*
X185522Y689311D01*
X185698Y689365D01*
X185713Y689373D01*
X185730Y689379D01*
X185890Y689469D01*
X186052Y689557D01*
X186065Y689568D01*
X186081Y689577D01*
X186220Y689697D01*
X186361Y689814D01*
X186372Y689828D01*
X186386Y689840D01*
X186498Y689985D01*
X186613Y690128D01*
X186621Y690144D01*
X186632Y690158D01*
X186714Y690323D01*
X186799Y690485D01*
X186804Y690502D01*
X186812Y690518D01*
X186859Y690697D01*
X186910Y690872D01*
X186912Y690890D01*
X186916Y690907D01*
X186943Y691238D01*
X186943Y706323D01*
X192698Y712078D01*
X192715Y712099D01*
X192736Y712117D01*
X192843Y712254D01*
X192953Y712390D01*
X192966Y712413D01*
X192982Y712435D01*
X193060Y712592D01*
X193142Y712746D01*
X193150Y712771D01*
X193162Y712795D01*
X193207Y712965D01*
X193257Y713131D01*
X193259Y713158D01*
X193266Y713184D01*
X193293Y713515D01*
X193293Y880335D01*
X193291Y880362D01*
X193293Y880389D01*
X193271Y880563D01*
X193253Y880736D01*
X193246Y880762D01*
X193242Y880788D01*
X193187Y880954D01*
X193135Y881121D01*
X193122Y881145D01*
X193114Y881170D01*
X193027Y881321D01*
X192943Y881475D01*
X192926Y881495D01*
X192913Y881519D01*
X192698Y881772D01*
X189772Y884698D01*
X189751Y884715D01*
X189734Y884736D01*
X189596Y884843D01*
X189460Y884953D01*
X189437Y884966D01*
X189415Y884982D01*
X189258Y885060D01*
X189104Y885142D01*
X189079Y885150D01*
X189055Y885162D01*
X188885Y885207D01*
X188719Y885257D01*
X188692Y885259D01*
X188666Y885266D01*
X188335Y885293D01*
X181886Y885293D01*
X180993Y886186D01*
X180993Y904214D01*
X181886Y905107D01*
X199914Y905107D01*
X200807Y904214D01*
X200807Y886143D01*
X200747Y886070D01*
X200734Y886046D01*
X200718Y886025D01*
X200640Y885868D01*
X200558Y885714D01*
X200550Y885689D01*
X200538Y885665D01*
X200493Y885495D01*
X200443Y885328D01*
X200441Y885302D01*
X200434Y885276D01*
X200407Y884945D01*
X200407Y709727D01*
X194652Y703972D01*
X194635Y703951D01*
X194614Y703933D01*
X194507Y703796D01*
X194397Y703660D01*
X194384Y703637D01*
X194368Y703615D01*
X194290Y703458D01*
X194208Y703304D01*
X194200Y703279D01*
X194188Y703255D01*
X194143Y703085D01*
X194093Y702919D01*
X194091Y702892D01*
X194084Y702866D01*
X194057Y702535D01*
X194057Y691238D01*
X194059Y691220D01*
X194057Y691202D01*
X194078Y691020D01*
X194097Y690837D01*
X194102Y690820D01*
X194104Y690803D01*
X194161Y690628D01*
X194215Y690452D01*
X194223Y690437D01*
X194229Y690420D01*
X194319Y690260D01*
X194407Y690098D01*
X194418Y690085D01*
X194427Y690069D01*
X194547Y689930D01*
X194664Y689789D01*
X194678Y689778D01*
X194690Y689764D01*
X194835Y689652D01*
X194978Y689537D01*
X194994Y689529D01*
X195008Y689518D01*
X195173Y689436D01*
X195335Y689351D01*
X195352Y689346D01*
X195368Y689338D01*
X195547Y689291D01*
X195722Y689240D01*
X195740Y689238D01*
X195757Y689234D01*
X196088Y689207D01*
X199914Y689207D01*
X200807Y688314D01*
X200807Y670286D01*
X199914Y669393D01*
X181886Y669393D01*
G37*
%LPD*%
%LPC*%
G36*
X79106Y792987D02*
X79106Y792987D01*
X72452Y794770D01*
X66486Y798215D01*
X61615Y803086D01*
X58170Y809052D01*
X56387Y815706D01*
X56387Y822594D01*
X58170Y829248D01*
X61615Y835214D01*
X66486Y840085D01*
X72452Y843530D01*
X79106Y845313D01*
X85994Y845313D01*
X92648Y843530D01*
X98614Y840085D01*
X103485Y835214D01*
X106930Y829248D01*
X108713Y822594D01*
X108713Y815706D01*
X106930Y809052D01*
X103485Y803086D01*
X98614Y798215D01*
X92648Y794770D01*
X85994Y792987D01*
X79106Y792987D01*
G37*
%LPD*%
%LPC*%
G36*
X200936Y332843D02*
X200936Y332843D01*
X200043Y333736D01*
X200043Y337312D01*
X200041Y337330D01*
X200043Y337348D01*
X200022Y337530D01*
X200003Y337713D01*
X199998Y337730D01*
X199996Y337747D01*
X199939Y337922D01*
X199885Y338098D01*
X199877Y338113D01*
X199871Y338130D01*
X199781Y338290D01*
X199693Y338452D01*
X199682Y338465D01*
X199673Y338481D01*
X199553Y338620D01*
X199436Y338761D01*
X199422Y338772D01*
X199410Y338786D01*
X199265Y338898D01*
X199122Y339013D01*
X199106Y339021D01*
X199092Y339032D01*
X198927Y339114D01*
X198765Y339199D01*
X198748Y339204D01*
X198732Y339212D01*
X198553Y339259D01*
X198378Y339310D01*
X198360Y339312D01*
X198343Y339316D01*
X198012Y339343D01*
X163627Y339343D01*
X148843Y354127D01*
X148843Y442115D01*
X148838Y442163D01*
X148841Y442212D01*
X148819Y442363D01*
X148803Y442516D01*
X148789Y442562D01*
X148782Y442610D01*
X148730Y442754D01*
X148685Y442900D01*
X148662Y442943D01*
X148646Y442989D01*
X148566Y443120D01*
X148493Y443254D01*
X148462Y443292D01*
X148437Y443333D01*
X148277Y443515D01*
X148236Y443564D01*
X148227Y443571D01*
X148217Y443582D01*
X132510Y458629D01*
X132507Y458632D01*
X132503Y458636D01*
X132350Y458754D01*
X132194Y458877D01*
X132189Y458879D01*
X132185Y458882D01*
X132010Y458970D01*
X131834Y459058D01*
X131829Y459059D01*
X131825Y459062D01*
X131632Y459113D01*
X131446Y459165D01*
X131441Y459165D01*
X131436Y459166D01*
X131105Y459193D01*
X118414Y459193D01*
X118392Y459191D01*
X118370Y459193D01*
X118192Y459171D01*
X118013Y459153D01*
X117992Y459147D01*
X117970Y459144D01*
X117800Y459088D01*
X117629Y459035D01*
X117609Y459025D01*
X117588Y459018D01*
X117432Y458929D01*
X117275Y458843D01*
X117257Y458829D01*
X117238Y458818D01*
X117103Y458700D01*
X116965Y458586D01*
X116951Y458568D01*
X116934Y458554D01*
X116825Y458412D01*
X116713Y458272D01*
X116703Y458252D01*
X116689Y458234D01*
X116537Y457939D01*
X116237Y457213D01*
X113487Y454463D01*
X109894Y452975D01*
X106006Y452975D01*
X102413Y454463D01*
X99663Y457213D01*
X98175Y460806D01*
X98175Y464694D01*
X99663Y468287D01*
X102413Y471037D01*
X106006Y472525D01*
X109894Y472525D01*
X113487Y471037D01*
X116237Y468287D01*
X116537Y467561D01*
X116548Y467541D01*
X116555Y467520D01*
X116643Y467364D01*
X116728Y467206D01*
X116742Y467189D01*
X116753Y467169D01*
X116870Y467034D01*
X116984Y466895D01*
X117001Y466881D01*
X117016Y466864D01*
X117157Y466755D01*
X117297Y466642D01*
X117316Y466631D01*
X117334Y466618D01*
X117495Y466538D01*
X117653Y466455D01*
X117675Y466448D01*
X117695Y466438D01*
X117868Y466392D01*
X118040Y466342D01*
X118062Y466340D01*
X118083Y466334D01*
X118414Y466307D01*
X133290Y466307D01*
X133309Y466309D01*
X133333Y466307D01*
X134792Y466338D01*
X135823Y465307D01*
X135838Y465295D01*
X135854Y465276D01*
X153240Y448621D01*
X153243Y448618D01*
X153247Y448614D01*
X153400Y448496D01*
X153556Y448373D01*
X153558Y448372D01*
X154873Y447057D01*
X154888Y447045D01*
X154904Y447027D01*
X155957Y446018D01*
X155957Y444560D01*
X155959Y444541D01*
X155957Y444517D01*
X155997Y442640D01*
X155986Y442596D01*
X155985Y442591D01*
X155984Y442586D01*
X155957Y442255D01*
X155957Y357915D01*
X155959Y357888D01*
X155957Y357861D01*
X155979Y357687D01*
X155997Y357514D01*
X156004Y357489D01*
X156008Y357462D01*
X156063Y357296D01*
X156115Y357129D01*
X156128Y357106D01*
X156136Y357080D01*
X156223Y356929D01*
X156307Y356775D01*
X156324Y356755D01*
X156337Y356731D01*
X156552Y356478D01*
X165978Y347052D01*
X165999Y347035D01*
X166017Y347014D01*
X166154Y346907D01*
X166290Y346797D01*
X166313Y346784D01*
X166335Y346768D01*
X166492Y346690D01*
X166646Y346608D01*
X166671Y346600D01*
X166695Y346588D01*
X166865Y346543D01*
X167031Y346493D01*
X167058Y346491D01*
X167084Y346484D01*
X167415Y346457D01*
X198012Y346457D01*
X198030Y346459D01*
X198048Y346457D01*
X198230Y346478D01*
X198413Y346497D01*
X198430Y346502D01*
X198447Y346504D01*
X198622Y346561D01*
X198798Y346615D01*
X198813Y346623D01*
X198830Y346629D01*
X198990Y346719D01*
X199152Y346807D01*
X199165Y346818D01*
X199181Y346827D01*
X199320Y346947D01*
X199461Y347064D01*
X199472Y347078D01*
X199486Y347090D01*
X199598Y347235D01*
X199713Y347378D01*
X199721Y347394D01*
X199732Y347408D01*
X199814Y347573D01*
X199899Y347735D01*
X199904Y347752D01*
X199912Y347768D01*
X199959Y347947D01*
X200010Y348122D01*
X200012Y348140D01*
X200016Y348157D01*
X200043Y348488D01*
X200043Y351764D01*
X200936Y352657D01*
X218964Y352657D01*
X219857Y351764D01*
X219857Y342966D01*
X219859Y342945D01*
X219857Y342918D01*
X219901Y341059D01*
X219885Y340998D01*
X219885Y340996D01*
X219884Y340993D01*
X219857Y340662D01*
X219857Y333736D01*
X218964Y332843D01*
X200936Y332843D01*
G37*
%LPD*%
%LPC*%
G36*
X200936Y504293D02*
X200936Y504293D01*
X200043Y505186D01*
X200043Y508612D01*
X200041Y508630D01*
X200043Y508648D01*
X200022Y508830D01*
X200003Y509013D01*
X199998Y509030D01*
X199996Y509047D01*
X199939Y509222D01*
X199885Y509398D01*
X199877Y509413D01*
X199871Y509430D01*
X199781Y509590D01*
X199693Y509752D01*
X199682Y509765D01*
X199673Y509781D01*
X199553Y509920D01*
X199436Y510061D01*
X199422Y510072D01*
X199410Y510086D01*
X199265Y510198D01*
X199122Y510313D01*
X199106Y510321D01*
X199092Y510332D01*
X198927Y510414D01*
X198765Y510499D01*
X198748Y510504D01*
X198732Y510512D01*
X198553Y510559D01*
X198378Y510610D01*
X198360Y510612D01*
X198343Y510616D01*
X198012Y510643D01*
X180102Y510643D01*
X180079Y510641D01*
X180055Y510643D01*
X179990Y510635D01*
X177798Y510643D01*
X177794Y510643D01*
X177790Y510643D01*
X176319Y510643D01*
X175286Y511684D01*
X175283Y511686D01*
X175280Y511690D01*
X173722Y513248D01*
X173654Y513329D01*
X156234Y530886D01*
X156231Y530888D01*
X156228Y530892D01*
X155188Y531933D01*
X155193Y533402D01*
X155193Y533406D01*
X155193Y533410D01*
X155193Y657970D01*
X155191Y657996D01*
X155193Y658023D01*
X155171Y658197D01*
X155153Y658370D01*
X155146Y658396D01*
X155142Y658422D01*
X155086Y658588D01*
X155035Y658755D01*
X155022Y658779D01*
X155014Y658804D01*
X154927Y658956D01*
X154843Y659109D01*
X154826Y659130D01*
X154813Y659153D01*
X154598Y659406D01*
X150621Y663383D01*
X150621Y670117D01*
X155383Y674879D01*
X162117Y674879D01*
X166879Y670117D01*
X166879Y663383D01*
X162902Y659406D01*
X162885Y659385D01*
X162864Y659368D01*
X162757Y659230D01*
X162647Y659094D01*
X162634Y659071D01*
X162618Y659050D01*
X162540Y658893D01*
X162458Y658739D01*
X162450Y658713D01*
X162438Y658689D01*
X162393Y658520D01*
X162343Y658353D01*
X162341Y658326D01*
X162334Y658300D01*
X162307Y657970D01*
X162307Y535702D01*
X162309Y535679D01*
X162307Y535656D01*
X162329Y535479D01*
X162347Y535301D01*
X162353Y535279D01*
X162356Y535257D01*
X162412Y535087D01*
X162465Y534916D01*
X162476Y534896D01*
X162483Y534875D01*
X162572Y534719D01*
X162657Y534562D01*
X162671Y534545D01*
X162682Y534525D01*
X162896Y534271D01*
X178686Y518357D01*
X178709Y518338D01*
X178729Y518314D01*
X178864Y518210D01*
X178996Y518101D01*
X179023Y518086D01*
X179047Y518068D01*
X179200Y517992D01*
X179351Y517911D01*
X179380Y517902D01*
X179408Y517888D01*
X179574Y517844D01*
X179736Y517795D01*
X179767Y517792D01*
X179797Y517784D01*
X180127Y517757D01*
X198012Y517757D01*
X198030Y517759D01*
X198048Y517757D01*
X198230Y517778D01*
X198413Y517797D01*
X198430Y517802D01*
X198447Y517804D01*
X198622Y517861D01*
X198798Y517915D01*
X198813Y517923D01*
X198830Y517929D01*
X198990Y518019D01*
X199152Y518107D01*
X199165Y518118D01*
X199181Y518127D01*
X199320Y518247D01*
X199461Y518364D01*
X199472Y518378D01*
X199486Y518390D01*
X199598Y518535D01*
X199713Y518678D01*
X199721Y518694D01*
X199732Y518708D01*
X199814Y518873D01*
X199899Y519035D01*
X199904Y519052D01*
X199912Y519068D01*
X199959Y519247D01*
X200010Y519422D01*
X200012Y519440D01*
X200016Y519457D01*
X200043Y519788D01*
X200043Y523214D01*
X200936Y524107D01*
X218964Y524107D01*
X219857Y523214D01*
X219857Y505186D01*
X218964Y504293D01*
X200936Y504293D01*
G37*
%LPD*%
%LPC*%
G36*
X173697Y155043D02*
X173697Y155043D01*
X167893Y160847D01*
X167893Y169053D01*
X173648Y174809D01*
X173665Y174829D01*
X173686Y174847D01*
X173792Y174984D01*
X173903Y175120D01*
X173916Y175144D01*
X173932Y175165D01*
X174010Y175321D01*
X174092Y175476D01*
X174100Y175501D01*
X174112Y175525D01*
X174157Y175695D01*
X174207Y175862D01*
X174209Y175888D01*
X174216Y175914D01*
X174243Y176245D01*
X174243Y242773D01*
X201727Y270257D01*
X264270Y270257D01*
X264296Y270259D01*
X264323Y270257D01*
X264497Y270279D01*
X264670Y270297D01*
X264696Y270304D01*
X264722Y270308D01*
X264888Y270364D01*
X265055Y270415D01*
X265079Y270428D01*
X265104Y270436D01*
X265256Y270523D01*
X265409Y270607D01*
X265430Y270624D01*
X265453Y270637D01*
X265706Y270852D01*
X269683Y274829D01*
X276417Y274829D01*
X281179Y270067D01*
X281179Y263333D01*
X276417Y258571D01*
X269683Y258571D01*
X265706Y262548D01*
X265685Y262565D01*
X265668Y262586D01*
X265530Y262693D01*
X265394Y262803D01*
X265371Y262816D01*
X265350Y262832D01*
X265193Y262910D01*
X265039Y262992D01*
X265013Y263000D01*
X264989Y263012D01*
X264820Y263057D01*
X264653Y263107D01*
X264626Y263109D01*
X264600Y263116D01*
X264270Y263143D01*
X205515Y263143D01*
X205488Y263141D01*
X205461Y263143D01*
X205287Y263121D01*
X205114Y263103D01*
X205089Y263096D01*
X205062Y263092D01*
X204896Y263037D01*
X204729Y262985D01*
X204706Y262972D01*
X204680Y262964D01*
X204529Y262877D01*
X204375Y262793D01*
X204355Y262776D01*
X204331Y262763D01*
X204078Y262548D01*
X181952Y240422D01*
X181935Y240401D01*
X181914Y240383D01*
X181807Y240246D01*
X181697Y240110D01*
X181684Y240087D01*
X181668Y240065D01*
X181590Y239908D01*
X181508Y239754D01*
X181500Y239729D01*
X181488Y239705D01*
X181443Y239535D01*
X181393Y239369D01*
X181391Y239342D01*
X181384Y239316D01*
X181357Y238985D01*
X181357Y176245D01*
X181359Y176218D01*
X181357Y176192D01*
X181379Y176018D01*
X181397Y175844D01*
X181404Y175819D01*
X181408Y175792D01*
X181464Y175626D01*
X181515Y175459D01*
X181528Y175436D01*
X181536Y175410D01*
X181623Y175259D01*
X181707Y175105D01*
X181724Y175085D01*
X181737Y175062D01*
X181952Y174809D01*
X187707Y169053D01*
X187707Y160847D01*
X181903Y155043D01*
X173697Y155043D01*
G37*
%LPD*%
%LPC*%
G36*
X91883Y677671D02*
X91883Y677671D01*
X87121Y682433D01*
X87121Y689167D01*
X91883Y693929D01*
X97507Y693929D01*
X97534Y693931D01*
X97561Y693929D01*
X97735Y693951D01*
X97908Y693969D01*
X97934Y693976D01*
X97960Y693980D01*
X98126Y694035D01*
X98293Y694087D01*
X98317Y694100D01*
X98342Y694108D01*
X98493Y694195D01*
X98647Y694279D01*
X98667Y694296D01*
X98691Y694309D01*
X98944Y694524D01*
X110148Y705728D01*
X110165Y705749D01*
X110186Y705766D01*
X110293Y705904D01*
X110403Y706040D01*
X110416Y706063D01*
X110432Y706085D01*
X110510Y706242D01*
X110592Y706396D01*
X110600Y706421D01*
X110612Y706445D01*
X110657Y706615D01*
X110707Y706781D01*
X110709Y706808D01*
X110716Y706834D01*
X110743Y707165D01*
X110743Y788873D01*
X135548Y813678D01*
X135565Y813699D01*
X135586Y813717D01*
X135693Y813854D01*
X135803Y813990D01*
X135816Y814013D01*
X135832Y814035D01*
X135910Y814192D01*
X135992Y814346D01*
X136000Y814371D01*
X136012Y814395D01*
X136057Y814565D01*
X136107Y814731D01*
X136109Y814758D01*
X136116Y814784D01*
X136143Y815115D01*
X136143Y848470D01*
X136141Y848496D01*
X136143Y848523D01*
X136121Y848697D01*
X136103Y848870D01*
X136096Y848896D01*
X136092Y848922D01*
X136037Y849088D01*
X135985Y849255D01*
X135972Y849279D01*
X135964Y849304D01*
X135877Y849456D01*
X135793Y849609D01*
X135776Y849630D01*
X135763Y849653D01*
X135548Y849906D01*
X131571Y853883D01*
X131571Y860617D01*
X136333Y865379D01*
X143067Y865379D01*
X147829Y860617D01*
X147829Y853883D01*
X143852Y849906D01*
X143835Y849885D01*
X143814Y849868D01*
X143707Y849730D01*
X143597Y849594D01*
X143584Y849571D01*
X143568Y849550D01*
X143490Y849393D01*
X143408Y849239D01*
X143400Y849213D01*
X143388Y849189D01*
X143343Y849020D01*
X143293Y848853D01*
X143291Y848826D01*
X143284Y848800D01*
X143257Y848470D01*
X143257Y811327D01*
X118452Y786522D01*
X118435Y786501D01*
X118414Y786483D01*
X118307Y786346D01*
X118197Y786210D01*
X118184Y786187D01*
X118168Y786165D01*
X118090Y786008D01*
X118008Y785854D01*
X118000Y785829D01*
X117988Y785805D01*
X117943Y785635D01*
X117893Y785469D01*
X117891Y785442D01*
X117884Y785416D01*
X117857Y785085D01*
X117857Y703377D01*
X115179Y700699D01*
X115178Y700698D01*
X103974Y689494D01*
X103957Y689473D01*
X103936Y689456D01*
X103829Y689318D01*
X103719Y689182D01*
X103706Y689159D01*
X103690Y689137D01*
X103612Y688980D01*
X103530Y688826D01*
X103522Y688801D01*
X103510Y688777D01*
X103465Y688607D01*
X103415Y688441D01*
X103413Y688414D01*
X103406Y688388D01*
X103379Y688057D01*
X103379Y682433D01*
X98617Y677671D01*
X91883Y677671D01*
G37*
%LPD*%
%LPC*%
G36*
X173738Y395645D02*
X173738Y395645D01*
X172845Y396538D01*
X172845Y428962D01*
X173738Y429855D01*
X206162Y429855D01*
X207055Y428962D01*
X207055Y396538D01*
X206162Y395645D01*
X173738Y395645D01*
G37*
%LPD*%
%LPC*%
G36*
X244688Y732195D02*
X244688Y732195D01*
X243795Y733088D01*
X243795Y765512D01*
X244688Y766405D01*
X277112Y766405D01*
X278005Y765512D01*
X278005Y733088D01*
X277112Y732195D01*
X244688Y732195D01*
G37*
%LPD*%
%LPC*%
G36*
X154688Y732195D02*
X154688Y732195D01*
X153795Y733088D01*
X153795Y765512D01*
X154688Y766405D01*
X187112Y766405D01*
X188005Y765512D01*
X188005Y733088D01*
X187112Y732195D01*
X154688Y732195D01*
G37*
%LPD*%
%LPC*%
G36*
X263738Y567095D02*
X263738Y567095D01*
X262845Y567988D01*
X262845Y600412D01*
X263738Y601305D01*
X296162Y601305D01*
X297055Y600412D01*
X297055Y567988D01*
X296162Y567095D01*
X263738Y567095D01*
G37*
%LPD*%
%LPC*%
G36*
X263738Y395645D02*
X263738Y395645D01*
X262845Y396538D01*
X262845Y428962D01*
X263738Y429855D01*
X296162Y429855D01*
X297055Y428962D01*
X297055Y396538D01*
X296162Y395645D01*
X263738Y395645D01*
G37*
%LPD*%
%LPC*%
G36*
X173738Y567095D02*
X173738Y567095D01*
X172845Y567988D01*
X172845Y600412D01*
X173738Y601305D01*
X206162Y601305D01*
X207055Y600412D01*
X207055Y567988D01*
X206162Y567095D01*
X173738Y567095D01*
G37*
%LPD*%
%LPC*%
G36*
X206588Y217845D02*
X206588Y217845D01*
X205695Y218738D01*
X205695Y251162D01*
X206588Y252055D01*
X239012Y252055D01*
X239905Y251162D01*
X239905Y218738D01*
X239012Y217845D01*
X206588Y217845D01*
G37*
%LPD*%
%LPC*%
G36*
X116588Y217845D02*
X116588Y217845D01*
X115695Y218738D01*
X115695Y251162D01*
X116588Y252055D01*
X149012Y252055D01*
X149905Y251162D01*
X149905Y218738D01*
X149012Y217845D01*
X116588Y217845D01*
G37*
%LPD*%
%LPC*%
G36*
X345883Y68071D02*
X345883Y68071D01*
X341906Y72048D01*
X341885Y72065D01*
X341868Y72086D01*
X341730Y72193D01*
X341594Y72303D01*
X341571Y72316D01*
X341550Y72332D01*
X341393Y72410D01*
X341239Y72492D01*
X341213Y72500D01*
X341189Y72512D01*
X341020Y72557D01*
X340853Y72607D01*
X340826Y72609D01*
X340800Y72616D01*
X340470Y72643D01*
X316027Y72643D01*
X301243Y87427D01*
X301243Y99268D01*
X301241Y99290D01*
X301243Y99312D01*
X301221Y99489D01*
X301203Y99668D01*
X301197Y99689D01*
X301194Y99712D01*
X301138Y99881D01*
X301085Y100053D01*
X301075Y100073D01*
X301068Y100094D01*
X300979Y100249D01*
X300893Y100407D01*
X300879Y100424D01*
X300868Y100444D01*
X300750Y100579D01*
X300636Y100716D01*
X300618Y100730D01*
X300604Y100747D01*
X300462Y100856D01*
X300322Y100969D01*
X300302Y100979D01*
X300284Y100993D01*
X300238Y101017D01*
X297909Y103345D01*
X296671Y106333D01*
X296671Y109567D01*
X297909Y112555D01*
X300195Y114841D01*
X302857Y115944D01*
X303183Y116079D01*
X306417Y116079D01*
X309405Y114841D01*
X311691Y112555D01*
X312929Y109567D01*
X312929Y106333D01*
X311691Y103345D01*
X309351Y101005D01*
X309256Y100954D01*
X309239Y100940D01*
X309219Y100929D01*
X309084Y100812D01*
X308945Y100698D01*
X308931Y100680D01*
X308914Y100666D01*
X308805Y100524D01*
X308692Y100385D01*
X308681Y100365D01*
X308668Y100348D01*
X308588Y100187D01*
X308505Y100028D01*
X308498Y100007D01*
X308488Y99987D01*
X308442Y99813D01*
X308392Y99642D01*
X308390Y99620D01*
X308384Y99598D01*
X308357Y99268D01*
X308357Y91215D01*
X308359Y91188D01*
X308357Y91161D01*
X308379Y90987D01*
X308397Y90814D01*
X308404Y90789D01*
X308408Y90762D01*
X308463Y90596D01*
X308515Y90429D01*
X308528Y90406D01*
X308536Y90380D01*
X308623Y90229D01*
X308707Y90075D01*
X308724Y90055D01*
X308737Y90031D01*
X308952Y89778D01*
X318378Y80352D01*
X318399Y80335D01*
X318417Y80314D01*
X318554Y80207D01*
X318690Y80097D01*
X318713Y80084D01*
X318735Y80068D01*
X318892Y79990D01*
X319046Y79908D01*
X319071Y79900D01*
X319095Y79888D01*
X319265Y79843D01*
X319431Y79793D01*
X319458Y79791D01*
X319484Y79784D01*
X319815Y79757D01*
X340470Y79757D01*
X340496Y79759D01*
X340523Y79757D01*
X340697Y79779D01*
X340870Y79797D01*
X340896Y79804D01*
X340922Y79808D01*
X341088Y79864D01*
X341255Y79915D01*
X341279Y79928D01*
X341304Y79936D01*
X341456Y80023D01*
X341609Y80107D01*
X341630Y80124D01*
X341653Y80137D01*
X341906Y80352D01*
X345883Y84329D01*
X352617Y84329D01*
X357379Y79567D01*
X357379Y72833D01*
X352617Y68071D01*
X345883Y68071D01*
G37*
%LPD*%
%LPC*%
G36*
X187133Y474471D02*
X187133Y474471D01*
X182371Y479233D01*
X182371Y483250D01*
X182371Y483255D01*
X182371Y483260D01*
X182351Y483454D01*
X182331Y483651D01*
X182330Y483655D01*
X182329Y483660D01*
X182272Y483845D01*
X182213Y484035D01*
X182211Y484040D01*
X182209Y484044D01*
X182115Y484216D01*
X182021Y484389D01*
X182018Y484393D01*
X182016Y484397D01*
X181888Y484549D01*
X181764Y484699D01*
X181760Y484702D01*
X181757Y484706D01*
X181600Y484830D01*
X181450Y484951D01*
X181446Y484953D01*
X181442Y484956D01*
X181264Y485048D01*
X181093Y485137D01*
X181088Y485138D01*
X181084Y485140D01*
X180894Y485194D01*
X180706Y485248D01*
X180701Y485248D01*
X180696Y485250D01*
X180501Y485265D01*
X180304Y485281D01*
X180300Y485280D01*
X180295Y485281D01*
X180098Y485257D01*
X179905Y485234D01*
X179900Y485232D01*
X179895Y485232D01*
X179708Y485170D01*
X179522Y485109D01*
X179518Y485107D01*
X179513Y485105D01*
X179344Y485009D01*
X179171Y484911D01*
X179167Y484908D01*
X179163Y484906D01*
X179015Y484776D01*
X178867Y484648D01*
X178864Y484644D01*
X178860Y484641D01*
X178757Y484508D01*
X176309Y482059D01*
X174363Y481253D01*
X174362Y481253D01*
X173321Y480821D01*
X156879Y480821D01*
X153891Y482059D01*
X151605Y484345D01*
X150367Y487333D01*
X150367Y490567D01*
X151605Y493555D01*
X153891Y495841D01*
X156879Y497079D01*
X173321Y497079D01*
X176309Y495841D01*
X178595Y493555D01*
X179833Y490567D01*
X179833Y488332D01*
X179834Y488324D01*
X179833Y488315D01*
X179854Y488123D01*
X179873Y487932D01*
X179875Y487923D01*
X179876Y487914D01*
X179934Y487732D01*
X179991Y487547D01*
X179995Y487539D01*
X179998Y487530D01*
X180091Y487362D01*
X180183Y487193D01*
X180188Y487186D01*
X180193Y487178D01*
X180317Y487031D01*
X180440Y486884D01*
X180447Y486878D01*
X180453Y486871D01*
X180604Y486752D01*
X180754Y486631D01*
X180762Y486627D01*
X180769Y486622D01*
X180942Y486534D01*
X181111Y486446D01*
X181120Y486443D01*
X181128Y486439D01*
X181314Y486387D01*
X181498Y486334D01*
X181507Y486334D01*
X181516Y486331D01*
X181709Y486317D01*
X181900Y486301D01*
X181908Y486302D01*
X181917Y486302D01*
X182110Y486326D01*
X182299Y486348D01*
X182308Y486351D01*
X182317Y486352D01*
X182500Y486414D01*
X182682Y486473D01*
X182690Y486478D01*
X182698Y486480D01*
X182865Y486576D01*
X183033Y486671D01*
X183040Y486677D01*
X183047Y486681D01*
X183300Y486896D01*
X187133Y490729D01*
X193867Y490729D01*
X198629Y485967D01*
X198629Y479233D01*
X193867Y474471D01*
X187133Y474471D01*
G37*
%LPD*%
%LPC*%
G36*
X236797Y885293D02*
X236797Y885293D01*
X230993Y891097D01*
X230993Y899303D01*
X236797Y905107D01*
X245003Y905107D01*
X250807Y899303D01*
X250807Y891097D01*
X245003Y885293D01*
X236797Y885293D01*
G37*
%LPD*%
%LPC*%
G36*
X230847Y504293D02*
X230847Y504293D01*
X225043Y510097D01*
X225043Y518303D01*
X230847Y524107D01*
X239053Y524107D01*
X244857Y518303D01*
X244857Y510097D01*
X239053Y504293D01*
X230847Y504293D01*
G37*
%LPD*%
%LPC*%
G36*
X211797Y885293D02*
X211797Y885293D01*
X205993Y891097D01*
X205993Y899303D01*
X211797Y905107D01*
X220003Y905107D01*
X225807Y899303D01*
X225807Y891097D01*
X220003Y885293D01*
X211797Y885293D01*
G37*
%LPD*%
%LPC*%
G36*
X230847Y332843D02*
X230847Y332843D01*
X225043Y338647D01*
X225043Y346853D01*
X230847Y352657D01*
X239053Y352657D01*
X244857Y346853D01*
X244857Y338647D01*
X239053Y332843D01*
X230847Y332843D01*
G37*
%LPD*%
%LPC*%
G36*
X211797Y669393D02*
X211797Y669393D01*
X205993Y675197D01*
X205993Y683403D01*
X211797Y689207D01*
X220003Y689207D01*
X225807Y683403D01*
X225807Y675197D01*
X220003Y669393D01*
X211797Y669393D01*
G37*
%LPD*%
%LPC*%
G36*
X106006Y624425D02*
X106006Y624425D01*
X102413Y625913D01*
X99663Y628663D01*
X98175Y632256D01*
X98175Y636144D01*
X99663Y639737D01*
X102413Y642487D01*
X106006Y643975D01*
X109894Y643975D01*
X113487Y642487D01*
X116237Y639737D01*
X117725Y636144D01*
X117725Y632256D01*
X116237Y628663D01*
X113487Y625913D01*
X109894Y624425D01*
X106006Y624425D01*
G37*
%LPD*%
%LPC*%
G36*
X379056Y878425D02*
X379056Y878425D01*
X375463Y879913D01*
X372713Y882663D01*
X371225Y886256D01*
X371225Y890144D01*
X372713Y893737D01*
X375463Y896487D01*
X379056Y897975D01*
X382944Y897975D01*
X386537Y896487D01*
X389287Y893737D01*
X390775Y890144D01*
X390775Y886256D01*
X389287Y882663D01*
X386537Y879913D01*
X382944Y878425D01*
X379056Y878425D01*
G37*
%LPD*%
%LPC*%
G36*
X48856Y275175D02*
X48856Y275175D01*
X45263Y276663D01*
X42513Y279413D01*
X41025Y283006D01*
X41025Y286894D01*
X42513Y290487D01*
X45263Y293237D01*
X48856Y294725D01*
X52744Y294725D01*
X56337Y293237D01*
X59087Y290487D01*
X60575Y286894D01*
X60575Y283006D01*
X59087Y279413D01*
X56337Y276663D01*
X52744Y275175D01*
X48856Y275175D01*
G37*
%LPD*%
%LPC*%
G36*
X379056Y560925D02*
X379056Y560925D01*
X375463Y562413D01*
X372713Y565163D01*
X371225Y568756D01*
X371225Y572644D01*
X372713Y576237D01*
X375463Y578987D01*
X379056Y580475D01*
X382944Y580475D01*
X386537Y578987D01*
X389287Y576237D01*
X390775Y572644D01*
X390775Y568756D01*
X389287Y565163D01*
X386537Y562413D01*
X382944Y560925D01*
X379056Y560925D01*
G37*
%LPD*%
%LPC*%
G36*
X379056Y719675D02*
X379056Y719675D01*
X375463Y721163D01*
X372713Y723913D01*
X371225Y727506D01*
X371225Y731394D01*
X372713Y734987D01*
X375463Y737737D01*
X379056Y739225D01*
X382944Y739225D01*
X386537Y737737D01*
X389287Y734987D01*
X390775Y731394D01*
X390775Y727506D01*
X389287Y723913D01*
X386537Y721163D01*
X382944Y719675D01*
X379056Y719675D01*
G37*
%LPD*%
%LPC*%
G36*
X379056Y402175D02*
X379056Y402175D01*
X375463Y403663D01*
X372713Y406413D01*
X371225Y410006D01*
X371225Y413894D01*
X372713Y417487D01*
X375463Y420237D01*
X376416Y420631D01*
X379056Y421725D01*
X382944Y421725D01*
X386537Y420237D01*
X389287Y417487D01*
X390775Y413894D01*
X390775Y410006D01*
X389287Y406413D01*
X386537Y403663D01*
X382944Y402175D01*
X379056Y402175D01*
G37*
%LPD*%
%LPC*%
G36*
X48856Y854625D02*
X48856Y854625D01*
X45263Y856113D01*
X42513Y858863D01*
X41025Y862456D01*
X41025Y866344D01*
X42513Y869937D01*
X45263Y872687D01*
X47468Y873600D01*
X48856Y874175D01*
X52744Y874175D01*
X56337Y872687D01*
X59087Y869937D01*
X60575Y866344D01*
X60575Y862456D01*
X59087Y858863D01*
X56337Y856113D01*
X53656Y855003D01*
X53655Y855003D01*
X52744Y854625D01*
X48856Y854625D01*
G37*
%LPD*%
%LPC*%
G36*
X110933Y29971D02*
X110933Y29971D01*
X106171Y34733D01*
X106171Y41467D01*
X110933Y46229D01*
X117667Y46229D01*
X122429Y41467D01*
X122429Y34733D01*
X117667Y29971D01*
X110933Y29971D01*
G37*
%LPD*%
%LPC*%
G36*
X269683Y68071D02*
X269683Y68071D01*
X264921Y72833D01*
X264921Y79567D01*
X269683Y84329D01*
X276417Y84329D01*
X281179Y79567D01*
X281179Y72833D01*
X276417Y68071D01*
X269683Y68071D01*
G37*
%LPD*%
%LPC*%
G36*
X149033Y309371D02*
X149033Y309371D01*
X144271Y314133D01*
X144271Y320867D01*
X149033Y325629D01*
X155767Y325629D01*
X160529Y320867D01*
X160529Y314133D01*
X155767Y309371D01*
X149033Y309371D01*
G37*
%LPD*%
%LPC*%
G36*
X72833Y309371D02*
X72833Y309371D01*
X68071Y314133D01*
X68071Y320867D01*
X72833Y325629D01*
X79567Y325629D01*
X84329Y320867D01*
X84329Y314133D01*
X79567Y309371D01*
X72833Y309371D01*
G37*
%LPD*%
%LPC*%
G36*
X110933Y874521D02*
X110933Y874521D01*
X106171Y879283D01*
X106171Y886017D01*
X110933Y890779D01*
X117667Y890779D01*
X122429Y886017D01*
X122429Y879283D01*
X117667Y874521D01*
X110933Y874521D01*
G37*
%LPD*%
%LPC*%
G36*
X244283Y61721D02*
X244283Y61721D01*
X239521Y66483D01*
X239521Y73217D01*
X244283Y77979D01*
X251017Y77979D01*
X255779Y73217D01*
X255779Y66483D01*
X251017Y61721D01*
X244283Y61721D01*
G37*
%LPD*%
%LPC*%
G36*
X22033Y391921D02*
X22033Y391921D01*
X17271Y396683D01*
X17271Y403417D01*
X22033Y408179D01*
X28767Y408179D01*
X33529Y403417D01*
X33529Y396683D01*
X28767Y391921D01*
X22033Y391921D01*
G37*
%LPD*%
%LPC*%
G36*
X22033Y315721D02*
X22033Y315721D01*
X17271Y320483D01*
X17271Y327217D01*
X22033Y331979D01*
X28767Y331979D01*
X33529Y327217D01*
X33529Y320483D01*
X28767Y315721D01*
X22033Y315721D01*
G37*
%LPD*%
%LPC*%
G36*
X104583Y658621D02*
X104583Y658621D01*
X99821Y663383D01*
X99821Y670117D01*
X104583Y674879D01*
X111317Y674879D01*
X116079Y670117D01*
X116079Y663383D01*
X111317Y658621D01*
X104583Y658621D01*
G37*
%LPD*%
%LPC*%
G36*
X244283Y99821D02*
X244283Y99821D01*
X239521Y104583D01*
X239521Y111317D01*
X244283Y116079D01*
X251017Y116079D01*
X255779Y111317D01*
X255779Y104583D01*
X251017Y99821D01*
X244283Y99821D01*
G37*
%LPD*%
%LPC*%
G36*
X110933Y950721D02*
X110933Y950721D01*
X106171Y955483D01*
X106171Y962217D01*
X110933Y966979D01*
X117667Y966979D01*
X122429Y962217D01*
X122429Y955483D01*
X117667Y950721D01*
X110933Y950721D01*
G37*
%LPD*%
%LPC*%
G36*
X91883Y753871D02*
X91883Y753871D01*
X87121Y758633D01*
X87121Y765367D01*
X91883Y770129D01*
X98617Y770129D01*
X103379Y765367D01*
X103379Y758633D01*
X98617Y753871D01*
X91883Y753871D01*
G37*
%LPD*%
%LPC*%
G36*
X110933Y80771D02*
X110933Y80771D01*
X106171Y85533D01*
X106171Y92267D01*
X110933Y97029D01*
X117667Y97029D01*
X122429Y92267D01*
X122429Y85533D01*
X117667Y80771D01*
X110933Y80771D01*
G37*
%LPD*%
%LPC*%
G36*
X212533Y849121D02*
X212533Y849121D01*
X207771Y853883D01*
X207771Y860617D01*
X212533Y865379D01*
X219267Y865379D01*
X224029Y860617D01*
X224029Y853883D01*
X219267Y849121D01*
X212533Y849121D01*
G37*
%LPD*%
%LPC*%
G36*
X66483Y753871D02*
X66483Y753871D01*
X61721Y758633D01*
X61721Y765367D01*
X66483Y770129D01*
X73217Y770129D01*
X77979Y765367D01*
X77979Y758633D01*
X73217Y753871D01*
X66483Y753871D01*
G37*
%LPD*%
%LPC*%
G36*
X244283Y176021D02*
X244283Y176021D01*
X239521Y180783D01*
X239521Y187517D01*
X244283Y192279D01*
X251017Y192279D01*
X255779Y187517D01*
X255779Y180783D01*
X251017Y176021D01*
X244283Y176021D01*
G37*
%LPD*%
%LPC*%
G36*
X250633Y309371D02*
X250633Y309371D01*
X245871Y314133D01*
X245871Y320867D01*
X250633Y325629D01*
X257367Y325629D01*
X262129Y320867D01*
X262129Y314133D01*
X257367Y309371D01*
X250633Y309371D01*
G37*
%LPD*%
%LPC*%
G36*
X277783Y99821D02*
X277783Y99821D01*
X274795Y101059D01*
X272509Y103345D01*
X271271Y106333D01*
X271271Y109567D01*
X272509Y112555D01*
X274795Y114841D01*
X277457Y115944D01*
X277783Y116079D01*
X281017Y116079D01*
X284005Y114841D01*
X286291Y112555D01*
X287529Y109567D01*
X287529Y106333D01*
X286291Y103345D01*
X284005Y101059D01*
X281017Y99821D01*
X277783Y99821D01*
G37*
%LPD*%
%LPC*%
G36*
X353983Y176021D02*
X353983Y176021D01*
X350995Y177259D01*
X348709Y179545D01*
X347471Y182533D01*
X347471Y185767D01*
X348709Y188755D01*
X350995Y191041D01*
X353983Y192279D01*
X357217Y192279D01*
X360205Y191041D01*
X362491Y188755D01*
X363729Y185767D01*
X363729Y182533D01*
X362491Y179545D01*
X360205Y177259D01*
X358530Y176565D01*
X357217Y176021D01*
X353983Y176021D01*
G37*
%LPD*%
%LPC*%
G36*
X27939Y574039D02*
X27939Y574039D01*
X27939Y581661D01*
X33820Y581661D01*
X35399Y581411D01*
X36920Y580916D01*
X38345Y580190D01*
X39639Y579250D01*
X40770Y578119D01*
X41710Y576825D01*
X42436Y575400D01*
X42879Y574039D01*
X27939Y574039D01*
G37*
%LPD*%
%LPC*%
G36*
X27939Y561339D02*
X27939Y561339D01*
X27939Y568961D01*
X42879Y568961D01*
X42436Y567600D01*
X41710Y566175D01*
X40770Y564881D01*
X39639Y563750D01*
X38345Y562810D01*
X36920Y562084D01*
X35399Y561589D01*
X33820Y561339D01*
X27939Y561339D01*
G37*
%LPD*%
%LPC*%
G36*
X155549Y167699D02*
X155549Y167699D01*
X155549Y175873D01*
X161517Y175873D01*
X162163Y175700D01*
X162742Y175365D01*
X163215Y174892D01*
X163550Y174313D01*
X163723Y173667D01*
X163723Y167699D01*
X155549Y167699D01*
G37*
%LPD*%
%LPC*%
G36*
X155549Y162201D02*
X155549Y162201D01*
X163723Y162201D01*
X163723Y156233D01*
X163550Y155587D01*
X163215Y155008D01*
X162742Y154535D01*
X162163Y154200D01*
X161517Y154027D01*
X155549Y154027D01*
X155549Y162201D01*
G37*
%LPD*%
%LPC*%
G36*
X141877Y167699D02*
X141877Y167699D01*
X141877Y173667D01*
X142050Y174313D01*
X142385Y174892D01*
X142858Y175365D01*
X143437Y175700D01*
X144083Y175873D01*
X150051Y175873D01*
X150051Y167699D01*
X141877Y167699D01*
G37*
%LPD*%
%LPC*%
G36*
X144083Y154027D02*
X144083Y154027D01*
X143437Y154200D01*
X142858Y154535D01*
X142385Y155008D01*
X142050Y155587D01*
X141877Y156233D01*
X141877Y162201D01*
X150051Y162201D01*
X150051Y154027D01*
X144083Y154027D01*
G37*
%LPD*%
%LPC*%
G36*
X262699Y516949D02*
X262699Y516949D01*
X262699Y525123D01*
X264474Y525123D01*
X270873Y518724D01*
X270873Y516949D01*
X262699Y516949D01*
G37*
%LPD*%
%LPC*%
G36*
X262699Y345499D02*
X262699Y345499D01*
X262699Y353673D01*
X264474Y353673D01*
X270873Y347274D01*
X270873Y345499D01*
X262699Y345499D01*
G37*
%LPD*%
%LPC*%
G36*
X249027Y345499D02*
X249027Y345499D01*
X249027Y347274D01*
X255426Y353673D01*
X257201Y353673D01*
X257201Y345499D01*
X249027Y345499D01*
G37*
%LPD*%
%LPC*%
G36*
X249027Y516949D02*
X249027Y516949D01*
X249027Y518724D01*
X255426Y525123D01*
X257201Y525123D01*
X257201Y516949D01*
X249027Y516949D01*
G37*
%LPD*%
%LPC*%
G36*
X262699Y503277D02*
X262699Y503277D01*
X262699Y511451D01*
X270873Y511451D01*
X270873Y509676D01*
X264474Y503277D01*
X262699Y503277D01*
G37*
%LPD*%
%LPC*%
G36*
X262699Y331827D02*
X262699Y331827D01*
X262699Y340001D01*
X270873Y340001D01*
X270873Y338226D01*
X264474Y331827D01*
X262699Y331827D01*
G37*
%LPD*%
%LPC*%
G36*
X255426Y331827D02*
X255426Y331827D01*
X249027Y338226D01*
X249027Y340001D01*
X257201Y340001D01*
X257201Y331827D01*
X255426Y331827D01*
G37*
%LPD*%
%LPC*%
G36*
X255426Y503277D02*
X255426Y503277D01*
X249027Y509676D01*
X249027Y511451D01*
X257201Y511451D01*
X257201Y503277D01*
X255426Y503277D01*
G37*
%LPD*%
%LPC*%
G36*
X53549Y131249D02*
X53549Y131249D01*
X53549Y138953D01*
X54942Y138500D01*
X56456Y137729D01*
X57830Y136731D01*
X59031Y135530D01*
X60029Y134156D01*
X60800Y132642D01*
X61253Y131249D01*
X53549Y131249D01*
G37*
%LPD*%
%LPC*%
G36*
X180549Y131249D02*
X180549Y131249D01*
X180549Y138953D01*
X181942Y138500D01*
X183456Y137729D01*
X184830Y136731D01*
X186031Y135530D01*
X187029Y134156D01*
X187800Y132642D01*
X188253Y131249D01*
X180549Y131249D01*
G37*
%LPD*%
%LPC*%
G36*
X110699Y521949D02*
X110699Y521949D01*
X110699Y529653D01*
X112092Y529200D01*
X113606Y528429D01*
X114980Y527431D01*
X116181Y526230D01*
X117179Y524856D01*
X117950Y523342D01*
X118403Y521949D01*
X110699Y521949D01*
G37*
%LPD*%
%LPC*%
G36*
X110699Y350499D02*
X110699Y350499D01*
X110699Y358203D01*
X112092Y357750D01*
X113606Y356979D01*
X114980Y355981D01*
X116181Y354780D01*
X117179Y353406D01*
X117950Y351892D01*
X118403Y350499D01*
X110699Y350499D01*
G37*
%LPD*%
%LPC*%
G36*
X53549Y172699D02*
X53549Y172699D01*
X53549Y180403D01*
X54942Y179950D01*
X56456Y179179D01*
X57830Y178181D01*
X59031Y176980D01*
X60029Y175606D01*
X60800Y174092D01*
X61253Y172699D01*
X53549Y172699D01*
G37*
%LPD*%
%LPC*%
G36*
X383749Y299699D02*
X383749Y299699D01*
X383749Y307403D01*
X385142Y306950D01*
X386656Y306179D01*
X388030Y305181D01*
X389231Y303980D01*
X390229Y302606D01*
X391000Y301092D01*
X391453Y299699D01*
X383749Y299699D01*
G37*
%LPD*%
%LPC*%
G36*
X383749Y775949D02*
X383749Y775949D01*
X383749Y783653D01*
X385142Y783200D01*
X386656Y782429D01*
X388030Y781431D01*
X389231Y780230D01*
X390229Y778856D01*
X391000Y777342D01*
X391453Y775949D01*
X383749Y775949D01*
G37*
%LPD*%
%LPC*%
G36*
X383749Y458449D02*
X383749Y458449D01*
X383749Y466153D01*
X385142Y465700D01*
X386656Y464929D01*
X388030Y463931D01*
X389231Y462730D01*
X390229Y461356D01*
X391000Y459842D01*
X391453Y458449D01*
X383749Y458449D01*
G37*
%LPD*%
%LPC*%
G36*
X180549Y101249D02*
X180549Y101249D01*
X180549Y108953D01*
X181942Y108500D01*
X183456Y107729D01*
X184830Y106731D01*
X186031Y105530D01*
X187029Y104156D01*
X187800Y102642D01*
X188253Y101249D01*
X180549Y101249D01*
G37*
%LPD*%
%LPC*%
G36*
X383749Y617199D02*
X383749Y617199D01*
X383749Y624903D01*
X385142Y624450D01*
X386656Y623679D01*
X388030Y622681D01*
X389231Y621480D01*
X390229Y620106D01*
X391000Y618592D01*
X391453Y617199D01*
X383749Y617199D01*
G37*
%LPD*%
%LPC*%
G36*
X53549Y101249D02*
X53549Y101249D01*
X53549Y108953D01*
X54942Y108500D01*
X56456Y107729D01*
X57830Y106731D01*
X59031Y105530D01*
X60029Y104156D01*
X60800Y102642D01*
X61253Y101249D01*
X53549Y101249D01*
G37*
%LPD*%
%LPC*%
G36*
X383749Y611701D02*
X383749Y611701D01*
X391453Y611701D01*
X391000Y610308D01*
X390229Y608794D01*
X389231Y607420D01*
X388030Y606219D01*
X386656Y605221D01*
X385142Y604450D01*
X383749Y603997D01*
X383749Y611701D01*
G37*
%LPD*%
%LPC*%
G36*
X383749Y770451D02*
X383749Y770451D01*
X391453Y770451D01*
X391000Y769058D01*
X390229Y767544D01*
X389231Y766170D01*
X388030Y764969D01*
X386656Y763971D01*
X385142Y763200D01*
X383749Y762747D01*
X383749Y770451D01*
G37*
%LPD*%
%LPC*%
G36*
X40347Y101249D02*
X40347Y101249D01*
X40800Y102642D01*
X41571Y104156D01*
X42569Y105530D01*
X43770Y106731D01*
X45144Y107729D01*
X46658Y108500D01*
X48051Y108953D01*
X48051Y101249D01*
X40347Y101249D01*
G37*
%LPD*%
%LPC*%
G36*
X370547Y617199D02*
X370547Y617199D01*
X371000Y618592D01*
X371771Y620106D01*
X372769Y621480D01*
X373970Y622681D01*
X375344Y623679D01*
X376858Y624450D01*
X378251Y624903D01*
X378251Y617199D01*
X370547Y617199D01*
G37*
%LPD*%
%LPC*%
G36*
X383749Y452951D02*
X383749Y452951D01*
X391453Y452951D01*
X391000Y451558D01*
X390229Y450044D01*
X389231Y448670D01*
X388030Y447469D01*
X386656Y446471D01*
X385142Y445700D01*
X383749Y445247D01*
X383749Y452951D01*
G37*
%LPD*%
%LPC*%
G36*
X383749Y294201D02*
X383749Y294201D01*
X391453Y294201D01*
X391000Y292808D01*
X390229Y291294D01*
X389231Y289920D01*
X388030Y288719D01*
X386656Y287721D01*
X385142Y286950D01*
X383749Y286497D01*
X383749Y294201D01*
G37*
%LPD*%
%LPC*%
G36*
X370547Y458449D02*
X370547Y458449D01*
X371000Y459842D01*
X371771Y461356D01*
X372769Y462730D01*
X373970Y463931D01*
X375344Y464929D01*
X376858Y465700D01*
X378251Y466153D01*
X378251Y458449D01*
X370547Y458449D01*
G37*
%LPD*%
%LPC*%
G36*
X53549Y125751D02*
X53549Y125751D01*
X61253Y125751D01*
X60800Y124358D01*
X60029Y122844D01*
X59031Y121470D01*
X57830Y120269D01*
X56456Y119271D01*
X54942Y118500D01*
X53549Y118047D01*
X53549Y125751D01*
G37*
%LPD*%
%LPC*%
G36*
X370547Y299699D02*
X370547Y299699D01*
X371000Y301092D01*
X371771Y302606D01*
X372769Y303980D01*
X373970Y305181D01*
X375344Y306179D01*
X376858Y306950D01*
X378251Y307403D01*
X378251Y299699D01*
X370547Y299699D01*
G37*
%LPD*%
%LPC*%
G36*
X40347Y172699D02*
X40347Y172699D01*
X40800Y174092D01*
X41571Y175606D01*
X42569Y176980D01*
X43770Y178181D01*
X45144Y179179D01*
X46658Y179950D01*
X48051Y180403D01*
X48051Y172699D01*
X40347Y172699D01*
G37*
%LPD*%
%LPC*%
G36*
X370547Y775949D02*
X370547Y775949D01*
X371000Y777342D01*
X371771Y778856D01*
X372769Y780230D01*
X373970Y781431D01*
X375344Y782429D01*
X376858Y783200D01*
X378251Y783653D01*
X378251Y775949D01*
X370547Y775949D01*
G37*
%LPD*%
%LPC*%
G36*
X97497Y350499D02*
X97497Y350499D01*
X97950Y351892D01*
X98721Y353406D01*
X99719Y354780D01*
X100920Y355981D01*
X102294Y356979D01*
X103808Y357750D01*
X105201Y358203D01*
X105201Y350499D01*
X97497Y350499D01*
G37*
%LPD*%
%LPC*%
G36*
X180549Y125751D02*
X180549Y125751D01*
X188253Y125751D01*
X187800Y124358D01*
X187029Y122844D01*
X186031Y121470D01*
X184830Y120269D01*
X183456Y119271D01*
X181942Y118500D01*
X180549Y118047D01*
X180549Y125751D01*
G37*
%LPD*%
%LPC*%
G36*
X53549Y167201D02*
X53549Y167201D01*
X61253Y167201D01*
X60800Y165808D01*
X60029Y164294D01*
X59031Y162920D01*
X57830Y161719D01*
X56456Y160721D01*
X54942Y159950D01*
X53549Y159497D01*
X53549Y167201D01*
G37*
%LPD*%
%LPC*%
G36*
X110699Y516451D02*
X110699Y516451D01*
X118403Y516451D01*
X117950Y515058D01*
X117179Y513544D01*
X116181Y512170D01*
X114980Y510969D01*
X113606Y509971D01*
X112092Y509200D01*
X110699Y508747D01*
X110699Y516451D01*
G37*
%LPD*%
%LPC*%
G36*
X97497Y521949D02*
X97497Y521949D01*
X97950Y523342D01*
X98721Y524856D01*
X99719Y526230D01*
X100920Y527431D01*
X102294Y528429D01*
X103808Y529200D01*
X105201Y529653D01*
X105201Y521949D01*
X97497Y521949D01*
G37*
%LPD*%
%LPC*%
G36*
X167347Y101249D02*
X167347Y101249D01*
X167800Y102642D01*
X168571Y104156D01*
X169569Y105530D01*
X170770Y106731D01*
X172144Y107729D01*
X173658Y108500D01*
X175051Y108953D01*
X175051Y101249D01*
X167347Y101249D01*
G37*
%LPD*%
%LPC*%
G36*
X167347Y131249D02*
X167347Y131249D01*
X167800Y132642D01*
X168571Y134156D01*
X169569Y135530D01*
X170770Y136731D01*
X172144Y137729D01*
X173658Y138500D01*
X175051Y138953D01*
X175051Y131249D01*
X167347Y131249D01*
G37*
%LPD*%
%LPC*%
G36*
X110699Y345001D02*
X110699Y345001D01*
X118403Y345001D01*
X117950Y343608D01*
X117179Y342094D01*
X116181Y340720D01*
X114980Y339519D01*
X113606Y338521D01*
X112092Y337750D01*
X110699Y337297D01*
X110699Y345001D01*
G37*
%LPD*%
%LPC*%
G36*
X40347Y131249D02*
X40347Y131249D01*
X40800Y132642D01*
X41571Y134156D01*
X42569Y135530D01*
X43770Y136731D01*
X45144Y137729D01*
X46658Y138500D01*
X48051Y138953D01*
X48051Y131249D01*
X40347Y131249D01*
G37*
%LPD*%
%LPC*%
G36*
X173658Y118500D02*
X173658Y118500D01*
X172144Y119271D01*
X170770Y120269D01*
X169569Y121470D01*
X168571Y122844D01*
X167800Y124358D01*
X167347Y125751D01*
X175051Y125751D01*
X175051Y118047D01*
X173658Y118500D01*
G37*
%LPD*%
%LPC*%
G36*
X46658Y159950D02*
X46658Y159950D01*
X45144Y160721D01*
X43770Y161719D01*
X42569Y162920D01*
X41571Y164294D01*
X40800Y165808D01*
X40347Y167201D01*
X48051Y167201D01*
X48051Y159497D01*
X46658Y159950D01*
G37*
%LPD*%
%LPC*%
G36*
X103808Y337750D02*
X103808Y337750D01*
X102294Y338521D01*
X100920Y339519D01*
X99719Y340720D01*
X98721Y342094D01*
X97950Y343608D01*
X97497Y345001D01*
X105201Y345001D01*
X105201Y337297D01*
X103808Y337750D01*
G37*
%LPD*%
%LPC*%
G36*
X46658Y118500D02*
X46658Y118500D01*
X45144Y119271D01*
X43770Y120269D01*
X42569Y121470D01*
X41571Y122844D01*
X40800Y124358D01*
X40347Y125751D01*
X48051Y125751D01*
X48051Y118047D01*
X46658Y118500D01*
G37*
%LPD*%
%LPC*%
G36*
X376858Y763200D02*
X376858Y763200D01*
X375344Y763971D01*
X373970Y764969D01*
X372769Y766170D01*
X371771Y767544D01*
X371000Y769058D01*
X370547Y770451D01*
X378251Y770451D01*
X378251Y762747D01*
X376858Y763200D01*
G37*
%LPD*%
%LPC*%
G36*
X103808Y509200D02*
X103808Y509200D01*
X102294Y509971D01*
X100920Y510969D01*
X99719Y512170D01*
X98721Y513544D01*
X97950Y515058D01*
X97497Y516451D01*
X105201Y516451D01*
X105201Y508747D01*
X103808Y509200D01*
G37*
%LPD*%
%LPC*%
G36*
X376858Y445700D02*
X376858Y445700D01*
X375344Y446471D01*
X373970Y447469D01*
X372769Y448670D01*
X371771Y450044D01*
X371000Y451558D01*
X370547Y452951D01*
X378251Y452951D01*
X378251Y445247D01*
X376858Y445700D01*
G37*
%LPD*%
%LPC*%
G36*
X376858Y604450D02*
X376858Y604450D01*
X375344Y605221D01*
X373970Y606219D01*
X372769Y607420D01*
X371771Y608794D01*
X371000Y610308D01*
X370547Y611701D01*
X378251Y611701D01*
X378251Y603997D01*
X376858Y604450D01*
G37*
%LPD*%
%LPC*%
G36*
X376858Y286950D02*
X376858Y286950D01*
X375344Y287721D01*
X373970Y288719D01*
X372769Y289920D01*
X371771Y291294D01*
X371000Y292808D01*
X370547Y294201D01*
X378251Y294201D01*
X378251Y286497D01*
X376858Y286950D01*
G37*
%LPD*%
%LPC*%
G36*
X268731Y484631D02*
X268731Y484631D01*
X268731Y491745D01*
X270488Y491745D01*
X275845Y486388D01*
X275845Y484631D01*
X268731Y484631D01*
G37*
%LPD*%
%LPC*%
G36*
X257555Y484631D02*
X257555Y484631D01*
X257555Y486388D01*
X262912Y491745D01*
X264669Y491745D01*
X264669Y484631D01*
X257555Y484631D01*
G37*
%LPD*%
%LPC*%
G36*
X268731Y473455D02*
X268731Y473455D01*
X268731Y480569D01*
X275845Y480569D01*
X275845Y478812D01*
X270488Y473455D01*
X268731Y473455D01*
G37*
%LPD*%
%LPC*%
G36*
X262912Y473455D02*
X262912Y473455D01*
X257555Y478812D01*
X257555Y480569D01*
X264669Y480569D01*
X264669Y473455D01*
X262912Y473455D01*
G37*
%LPD*%
%LPC*%
G36*
X306831Y186181D02*
X306831Y186181D01*
X306831Y193087D01*
X306941Y193070D01*
X308310Y192625D01*
X309593Y191971D01*
X310757Y191125D01*
X311775Y190107D01*
X312621Y188943D01*
X313275Y187660D01*
X313720Y186291D01*
X313737Y186181D01*
X306831Y186181D01*
G37*
%LPD*%
%LPC*%
G36*
X295863Y186181D02*
X295863Y186181D01*
X295880Y186291D01*
X296325Y187660D01*
X296979Y188943D01*
X297825Y190107D01*
X298843Y191125D01*
X300007Y191971D01*
X301290Y192625D01*
X302659Y193070D01*
X302769Y193087D01*
X302769Y186181D01*
X295863Y186181D01*
G37*
%LPD*%
%LPC*%
G36*
X306831Y182119D02*
X306831Y182119D01*
X313737Y182119D01*
X313720Y182009D01*
X313275Y180640D01*
X312621Y179357D01*
X311775Y178193D01*
X310757Y177175D01*
X309593Y176329D01*
X308310Y175675D01*
X306941Y175230D01*
X306831Y175213D01*
X306831Y182119D01*
G37*
%LPD*%
%LPC*%
G36*
X302659Y175230D02*
X302659Y175230D01*
X301290Y175675D01*
X300007Y176329D01*
X298843Y177175D01*
X297825Y178193D01*
X296979Y179357D01*
X296325Y180640D01*
X295880Y182009D01*
X295863Y182119D01*
X302769Y182119D01*
X302769Y175213D01*
X302659Y175230D01*
G37*
%LPD*%
D10*
X158750Y666750D03*
X107950Y666750D03*
D11*
X114300Y38100D03*
X114300Y88900D03*
X247650Y19050D03*
X247650Y69850D03*
D12*
X190900Y895200D03*
D13*
X215900Y895200D03*
X240900Y895200D03*
D14*
X260900Y965200D03*
X170900Y965200D03*
D15*
X50800Y864400D03*
X50800Y949400D03*
X50800Y979400D03*
D16*
X158496Y488950D02*
X171704Y488950D01*
X95504Y488950D02*
X82296Y488950D01*
D12*
X190900Y679300D03*
D13*
X215900Y679300D03*
X240900Y679300D03*
D14*
X260900Y749300D03*
X170900Y749300D03*
D15*
X177800Y13500D03*
X177800Y98500D03*
X177800Y128500D03*
D17*
X355600Y184150D03*
X330200Y184150D03*
X330200Y107950D03*
X355600Y107950D03*
X304800Y184150D03*
X279400Y184150D03*
X304800Y107950D03*
X279400Y107950D03*
D18*
X33020Y571500D02*
X17780Y571500D01*
X17780Y546100D02*
X33020Y546100D01*
X33020Y520700D02*
X17780Y520700D01*
X17780Y495300D02*
X33020Y495300D01*
X33020Y469900D02*
X17780Y469900D01*
X17780Y444500D02*
X33020Y444500D01*
X398780Y152400D02*
X414020Y152400D01*
X414020Y127000D02*
X398780Y127000D01*
X398780Y101600D02*
X414020Y101600D01*
X414020Y76200D02*
X398780Y76200D01*
X398780Y50800D02*
X414020Y50800D01*
X414020Y25400D02*
X398780Y25400D01*
D15*
X107950Y634200D03*
X107950Y549200D03*
X107950Y519200D03*
X381000Y411950D03*
X381000Y326950D03*
X381000Y296950D03*
D12*
X152800Y164950D03*
D13*
X177800Y164950D03*
X202800Y164950D03*
D14*
X222800Y234950D03*
X132800Y234950D03*
D15*
X50800Y284950D03*
X50800Y199950D03*
X50800Y169950D03*
D19*
X139700Y857250D03*
X215900Y857250D03*
D11*
X95250Y685800D03*
X95250Y762000D03*
D10*
X349250Y266700D03*
X273050Y266700D03*
D11*
X114300Y882650D03*
X114300Y958850D03*
D10*
X152400Y317500D03*
X76200Y317500D03*
X254000Y317500D03*
X177800Y317500D03*
D19*
X273050Y76200D03*
X349250Y76200D03*
D11*
X247650Y107950D03*
X247650Y184150D03*
D19*
X190500Y482600D03*
X266700Y482600D03*
D11*
X25400Y323850D03*
X25400Y400050D03*
D15*
X381000Y570700D03*
X381000Y485700D03*
X381000Y455700D03*
X381000Y888200D03*
X381000Y803200D03*
X381000Y773200D03*
X50800Y13500D03*
X50800Y98500D03*
X50800Y128500D03*
X381000Y729450D03*
X381000Y644450D03*
X381000Y614450D03*
D12*
X209950Y514200D03*
D13*
X234950Y514200D03*
X259950Y514200D03*
D14*
X279950Y584200D03*
X189950Y584200D03*
D15*
X107950Y462750D03*
X107950Y377750D03*
X107950Y347750D03*
D12*
X209950Y342750D03*
D13*
X234950Y342750D03*
X259950Y342750D03*
D14*
X279950Y412750D03*
X189950Y412750D03*
D11*
X69850Y685800D03*
X69850Y762000D03*
D20*
X342900Y127000D03*
D21*
X330200Y107950D02*
X342900Y95250D01*
X355600Y95250D02*
X374650Y76200D01*
X374650Y38100D01*
X387350Y25400D01*
X406400Y25400D01*
X355600Y95250D02*
X342900Y95250D01*
X241300Y679300D02*
X240900Y679300D01*
X323850Y317500D02*
X349250Y292100D01*
X323850Y317500D02*
X323850Y654050D01*
X298450Y679450D01*
X241300Y679450D01*
X241300Y679300D01*
X349250Y292100D02*
X349250Y266700D01*
D20*
X241300Y679450D03*
D21*
X304800Y266700D02*
X330200Y266700D01*
X349250Y266700D01*
X330200Y266700D02*
X330200Y184150D01*
X304800Y266700D02*
X279400Y292100D01*
X190500Y292100D01*
X177800Y304800D01*
X177800Y317500D01*
X202800Y164950D02*
X279400Y165100D01*
X279400Y184150D01*
X190900Y889000D02*
X190900Y895200D01*
X190900Y889000D02*
X190500Y889000D01*
X196850Y882650D01*
X196850Y711200D01*
X190500Y704850D01*
X190500Y679300D01*
X190900Y679300D01*
X291700Y152400D02*
X406400Y152400D01*
X291700Y152400D02*
X279400Y165100D01*
X95250Y685800D02*
X114300Y704850D01*
X44450Y520700D02*
X25400Y520700D01*
X44450Y520700D02*
X63500Y539750D01*
X63500Y679450D01*
X69850Y685800D01*
X139700Y812800D02*
X139700Y857250D01*
X114300Y787400D02*
X114300Y704850D01*
X114300Y787400D02*
X139700Y812800D01*
X355600Y133350D02*
X387350Y101600D01*
X406400Y101600D01*
D20*
X355600Y133350D03*
D21*
X44450Y469900D02*
X25400Y469900D01*
X44450Y469900D02*
X63500Y488950D01*
X88900Y488950D01*
X203200Y266700D02*
X177800Y241300D01*
X203200Y266700D02*
X273050Y266700D01*
X177800Y241300D02*
X177800Y164950D01*
X158750Y533400D02*
X158750Y666750D01*
X177800Y514200D02*
X209950Y514200D01*
X177800Y514200D02*
X158750Y533400D01*
X304800Y107950D02*
X304800Y88900D01*
X317500Y76200D01*
X349250Y76200D01*
X133350Y462750D02*
X107950Y462750D01*
X209950Y342750D02*
X216300Y342900D01*
X152400Y444500D02*
X133350Y462750D01*
X152400Y444500D02*
X152400Y355600D01*
X165100Y342900D01*
X216300Y342900D01*
M02*
