M48
;GenerationSoftware,Autodesk,EAGLE,9.6.2*%
;CreationDate,2022-05-21T19:07:35Z*%
FMAT,2
ICI,OFF
METRIC,TZ,000.000
T6C0.350
T5C0.813
T4C1.016
T3C1.100
T2C2.100
T1C3.200
%
G90
M71
T1
X8255Y81915
T2
X13280Y23495
X18995Y41275
X27995Y41275
X22280Y23495
X17090Y74930
X26090Y74930
X27995Y58420
X18995Y58420
X17090Y96520
X26090Y96520
T3
X21590Y89520
X24090Y89520
X19090Y89520
X10795Y46275
X5080Y86440
X5080Y94940
X5080Y97940
X10795Y37775
X10795Y34775
X19090Y67930
X21590Y67930
X24090Y67930
X20995Y34275
X23495Y34275
X17780Y1350
X17780Y9850
X17780Y12850
X25995Y51420
X23495Y51420
X20995Y51420
X38100Y61445
X38100Y64445
X38100Y72945
X5080Y12850
X5080Y9850
X38100Y48570
X38100Y45570
X38100Y88820
X38100Y80320
X38100Y57070
X38100Y77320
X5080Y16995
X5080Y19995
X5080Y28495
X15280Y16495
X25995Y34275
X20280Y16495
X10795Y63420
X10795Y54920
X10795Y51920
X38100Y41195
X38100Y32695
X38100Y29695
X5080Y1350
X17780Y16495
T4
X40640Y2540
X40640Y5080
X40640Y7620
X40640Y10160
X40640Y12700
X40640Y15240
X2540Y44450
X2540Y49530
X2540Y52070
X2540Y54610
X2540Y57150
X2540Y46990
T5
X11430Y88265
X11430Y95885
X15240Y31750
X7620Y31750
X25400Y31750
X17780Y31750
X27305Y7620
X34925Y7620
X24765Y10795
X24765Y18415
X19050Y48260
X26670Y48260
X2540Y32385
X2540Y40005
X27305Y26670
X34925Y26670
X9525Y76200
X9525Y68580
X21590Y85725
X13970Y85725
X6985Y76200
X27940Y10795
X30480Y10795
X27940Y18415
X30480Y18415
X35560Y10795
X33020Y10795
X33020Y18415
X35560Y18415
X8890Y48895
X16510Y48895
X24765Y6985
X24765Y1905
X11430Y8890
X11430Y3810
X10795Y66675
X15875Y66675
X6985Y68580
T6
X24130Y67945
X35560Y13335
X34290Y12700
M30