G04 EAGLE Gerber RS-274X export*
G75*
%MOMM*%
%FSLAX34Y34*%
%LPD*%
%IN*%
%IPPOS*%
%AMOC8*
5,1,8,0,0,1.08239X$1,22.5*%
G01*
%ADD10C,0.254000*%


D10*
X0Y0D02*
X431800Y0D01*
X431800Y990600D01*
X0Y990600D01*
X0Y0D01*
X98552Y818626D02*
X98483Y817581D01*
X98347Y816542D01*
X98142Y815514D01*
X97871Y814502D01*
X97534Y813510D01*
X97133Y812542D01*
X96670Y811603D01*
X96146Y810695D01*
X95564Y809824D01*
X94926Y808993D01*
X94236Y808205D01*
X93495Y807464D01*
X92707Y806774D01*
X91876Y806136D01*
X91005Y805554D01*
X90097Y805030D01*
X89158Y804567D01*
X88190Y804166D01*
X87198Y803829D01*
X86186Y803558D01*
X85158Y803353D01*
X84119Y803217D01*
X83074Y803148D01*
X82026Y803148D01*
X80981Y803217D01*
X79942Y803353D01*
X78914Y803558D01*
X77902Y803829D01*
X76910Y804166D01*
X75942Y804567D01*
X75003Y805030D01*
X74095Y805554D01*
X73224Y806136D01*
X72393Y806774D01*
X71605Y807464D01*
X70864Y808205D01*
X70174Y808993D01*
X69536Y809824D01*
X68954Y810695D01*
X68430Y811603D01*
X67967Y812542D01*
X67566Y813510D01*
X67229Y814502D01*
X66958Y815514D01*
X66753Y816542D01*
X66617Y817581D01*
X66548Y818626D01*
X66548Y819674D01*
X66617Y820719D01*
X66753Y821758D01*
X66958Y822786D01*
X67229Y823798D01*
X67566Y824790D01*
X67967Y825758D01*
X68430Y826697D01*
X68954Y827605D01*
X69536Y828476D01*
X70174Y829307D01*
X70864Y830095D01*
X71605Y830836D01*
X72393Y831526D01*
X73224Y832164D01*
X74095Y832746D01*
X75003Y833270D01*
X75942Y833733D01*
X76910Y834134D01*
X77902Y834471D01*
X78914Y834742D01*
X79942Y834947D01*
X80981Y835083D01*
X82026Y835152D01*
X83074Y835152D01*
X84119Y835083D01*
X85158Y834947D01*
X86186Y834742D01*
X87198Y834471D01*
X88190Y834134D01*
X89158Y833733D01*
X90097Y833270D01*
X91005Y832746D01*
X91876Y832164D01*
X92707Y831526D01*
X93495Y830836D01*
X94236Y830095D01*
X94926Y829307D01*
X95564Y828476D01*
X96146Y827605D01*
X96670Y826697D01*
X97133Y825758D01*
X97534Y824790D01*
X97871Y823798D01*
X98142Y822786D01*
X98347Y821758D01*
X98483Y820719D01*
X98552Y819674D01*
X98552Y818626D01*
M02*
