G04 EAGLE Gerber RS-274X export*
G75*
%MOMM*%
%FSLAX34Y34*%
%LPD*%
%INSoldermask Bottom*%
%IPPOS*%
%AMOC8*
5,1,8,0,0,1.08239X$1,22.5*%
G01*
%ADD10C,3.403600*%
%ADD11P,1.649562X8X202.500000*%
%ADD12P,1.649562X8X112.500000*%
%ADD13R,1.879600X1.879600*%
%ADD14P,2.034460X8X292.500000*%
%ADD15R,3.319200X3.319200*%
%ADD16C,1.853200*%
%ADD17C,1.524000*%
%ADD18C,1.524000*%
%ADD19C,1.727200*%
%ADD20P,1.649562X8X22.500000*%
%ADD21C,0.959600*%


D10*
X82550Y819150D03*
D11*
X158750Y666750D03*
X107950Y666750D03*
D12*
X114300Y38100D03*
X114300Y88900D03*
X247650Y19050D03*
X247650Y69850D03*
D13*
X190900Y895200D03*
D14*
X215900Y895200D03*
X240900Y895200D03*
D15*
X260900Y965200D03*
X170900Y965200D03*
D16*
X50800Y864400D03*
X50800Y949400D03*
X50800Y979400D03*
D17*
X158496Y488950D02*
X171704Y488950D01*
X95504Y488950D02*
X82296Y488950D01*
D13*
X190900Y679300D03*
D14*
X215900Y679300D03*
X240900Y679300D03*
D15*
X260900Y749300D03*
X170900Y749300D03*
D16*
X177800Y13500D03*
X177800Y98500D03*
X177800Y128500D03*
D18*
X355600Y184150D03*
X330200Y184150D03*
X330200Y107950D03*
X355600Y107950D03*
X304800Y184150D03*
X279400Y184150D03*
X304800Y107950D03*
X279400Y107950D03*
D19*
X33020Y571500D02*
X17780Y571500D01*
X17780Y546100D02*
X33020Y546100D01*
X33020Y520700D02*
X17780Y520700D01*
X17780Y495300D02*
X33020Y495300D01*
X33020Y469900D02*
X17780Y469900D01*
X17780Y444500D02*
X33020Y444500D01*
X398780Y152400D02*
X414020Y152400D01*
X414020Y127000D02*
X398780Y127000D01*
X398780Y101600D02*
X414020Y101600D01*
X414020Y76200D02*
X398780Y76200D01*
X398780Y50800D02*
X414020Y50800D01*
X414020Y25400D02*
X398780Y25400D01*
D16*
X107950Y634200D03*
X107950Y549200D03*
X107950Y519200D03*
X381000Y411950D03*
X381000Y326950D03*
X381000Y296950D03*
D13*
X152800Y164950D03*
D14*
X177800Y164950D03*
X202800Y164950D03*
D15*
X222800Y234950D03*
X132800Y234950D03*
D16*
X50800Y284950D03*
X50800Y199950D03*
X50800Y169950D03*
D20*
X139700Y857250D03*
X215900Y857250D03*
D12*
X95250Y685800D03*
X95250Y762000D03*
D11*
X349250Y266700D03*
X273050Y266700D03*
D12*
X114300Y882650D03*
X114300Y958850D03*
D11*
X152400Y317500D03*
X76200Y317500D03*
X254000Y317500D03*
X177800Y317500D03*
D20*
X273050Y76200D03*
X349250Y76200D03*
D12*
X247650Y107950D03*
X247650Y184150D03*
D20*
X190500Y482600D03*
X266700Y482600D03*
D12*
X25400Y323850D03*
X25400Y400050D03*
D16*
X381000Y570700D03*
X381000Y485700D03*
X381000Y455700D03*
X381000Y888200D03*
X381000Y803200D03*
X381000Y773200D03*
X50800Y13500D03*
X50800Y98500D03*
X50800Y128500D03*
X381000Y729450D03*
X381000Y644450D03*
X381000Y614450D03*
D13*
X209950Y514200D03*
D14*
X234950Y514200D03*
X259950Y514200D03*
D15*
X279950Y584200D03*
X189950Y584200D03*
D16*
X107950Y462750D03*
X107950Y377750D03*
X107950Y347750D03*
D13*
X209950Y342750D03*
D14*
X234950Y342750D03*
X259950Y342750D03*
D15*
X279950Y412750D03*
X189950Y412750D03*
D12*
X69850Y685800D03*
X69850Y762000D03*
D21*
X342900Y127000D03*
X241300Y679450D03*
X355600Y133350D03*
M02*
