G04 EAGLE Gerber RS-274X export*
G75*
%MOMM*%
%FSLAX34Y34*%
%LPD*%
%INSoldermask Bottom*%
%IPPOS*%
%AMOC8*
5,1,8,0,0,1.08239X$1,22.5*%
G01*
%ADD10C,3.403600*%
%ADD11P,1.649562X8X202.500000*%
%ADD12P,1.649562X8X22.500000*%
%ADD13P,1.869504X8X292.500000*%
%ADD14C,1.320800*%
%ADD15C,1.524000*%
%ADD16C,1.727200*%
%ADD17P,1.649562X8X292.500000*%
%ADD18P,1.759533X8X22.500000*%
%ADD19P,1.951982X8X22.500000*%
%ADD20C,1.803400*%
%ADD21C,0.959600*%


D10*
X349250Y819150D03*
D11*
X330200Y774700D03*
X279400Y774700D03*
D12*
X190500Y177800D03*
X241300Y177800D03*
X88900Y241300D03*
X139700Y241300D03*
D11*
X342900Y266700D03*
X292100Y266700D03*
X342900Y317500D03*
X292100Y317500D03*
D13*
X31750Y354330D03*
X31750Y204470D03*
D12*
X88900Y215900D03*
X139700Y215900D03*
D11*
X342900Y558800D03*
X292100Y558800D03*
D12*
X88900Y558800D03*
X139700Y558800D03*
X88900Y774700D03*
X139700Y774700D03*
D14*
X304800Y431800D03*
X330200Y431800D03*
X355600Y431800D03*
D15*
X260604Y215900D02*
X247396Y215900D01*
X247396Y241300D02*
X260604Y241300D01*
X260604Y266700D02*
X247396Y266700D01*
X247396Y292100D02*
X260604Y292100D01*
X260604Y317500D02*
X247396Y317500D01*
X247396Y342900D02*
X260604Y342900D01*
X260604Y368300D02*
X247396Y368300D01*
X247396Y393700D02*
X260604Y393700D01*
X184404Y393700D02*
X171196Y393700D01*
X171196Y368300D02*
X184404Y368300D01*
X184404Y342900D02*
X171196Y342900D01*
X171196Y317500D02*
X184404Y317500D01*
X184404Y292100D02*
X171196Y292100D01*
X171196Y266700D02*
X184404Y266700D01*
X184404Y241300D02*
X171196Y241300D01*
X171196Y215900D02*
X184404Y215900D01*
X247396Y482600D02*
X260604Y482600D01*
X260604Y508000D02*
X247396Y508000D01*
X247396Y635000D02*
X260604Y635000D01*
X184404Y635000D02*
X171196Y635000D01*
X247396Y533400D02*
X260604Y533400D01*
X260604Y558800D02*
X247396Y558800D01*
X247396Y609600D02*
X260604Y609600D01*
X260604Y584200D02*
X247396Y584200D01*
X184404Y609600D02*
X171196Y609600D01*
X171196Y584200D02*
X184404Y584200D01*
X184404Y558800D02*
X171196Y558800D01*
X171196Y533400D02*
X184404Y533400D01*
X184404Y508000D02*
X171196Y508000D01*
X171196Y482600D02*
X184404Y482600D01*
X247396Y698500D02*
X260604Y698500D01*
X260604Y723900D02*
X247396Y723900D01*
X247396Y850900D02*
X260604Y850900D01*
X184404Y850900D02*
X171196Y850900D01*
X247396Y749300D02*
X260604Y749300D01*
X260604Y774700D02*
X247396Y774700D01*
X247396Y825500D02*
X260604Y825500D01*
X260604Y800100D02*
X247396Y800100D01*
X184404Y825500D02*
X171196Y825500D01*
X171196Y800100D02*
X184404Y800100D01*
X184404Y774700D02*
X171196Y774700D01*
X171196Y749300D02*
X184404Y749300D01*
X184404Y723900D02*
X171196Y723900D01*
X171196Y698500D02*
X184404Y698500D01*
D16*
X33020Y25400D02*
X17780Y25400D01*
X17780Y50800D02*
X33020Y50800D01*
X33020Y76200D02*
X17780Y76200D01*
X17780Y101600D02*
X33020Y101600D01*
X33020Y127000D02*
X17780Y127000D01*
X17780Y152400D02*
X33020Y152400D01*
X398780Y444500D02*
X414020Y444500D01*
X414020Y469900D02*
X398780Y469900D01*
X398780Y495300D02*
X414020Y495300D01*
X414020Y520700D02*
X398780Y520700D01*
X398780Y546100D02*
X414020Y546100D01*
X414020Y571500D02*
X398780Y571500D01*
D17*
X114300Y901700D03*
X133350Y914400D03*
X114300Y927100D03*
X63500Y901700D03*
X82550Y914400D03*
X63500Y927100D03*
D12*
X292100Y215900D03*
X368300Y215900D03*
X292100Y869950D03*
X368300Y869950D03*
D11*
X139700Y825500D03*
X63500Y825500D03*
X139700Y800100D03*
X63500Y800100D03*
D12*
X292100Y533400D03*
X368300Y533400D03*
X292100Y508000D03*
X368300Y508000D03*
X177800Y889000D03*
X254000Y889000D03*
D14*
X355600Y673100D03*
X330200Y673100D03*
X304800Y673100D03*
D11*
X139700Y635000D03*
X63500Y635000D03*
X139700Y609600D03*
X63500Y609600D03*
X146050Y266700D03*
X69850Y266700D03*
X139700Y584200D03*
X63500Y584200D03*
X368300Y736600D03*
X292100Y736600D03*
D14*
X127000Y438150D03*
X101600Y438150D03*
X76200Y438150D03*
D11*
X146050Y393700D03*
X69850Y393700D03*
D12*
X63500Y508000D03*
X139700Y508000D03*
D11*
X368300Y711200D03*
X292100Y711200D03*
X368300Y368300D03*
X292100Y368300D03*
D12*
X69850Y190500D03*
X146050Y190500D03*
X292100Y190500D03*
X368300Y190500D03*
D11*
X368300Y241300D03*
X292100Y241300D03*
D12*
X69850Y317500D03*
X146050Y317500D03*
D11*
X146050Y292100D03*
X69850Y292100D03*
X368300Y920750D03*
X292100Y920750D03*
D12*
X292100Y895350D03*
X368300Y895350D03*
D17*
X38100Y800100D03*
X38100Y723900D03*
D11*
X139700Y965200D03*
X63500Y965200D03*
D12*
X177800Y152400D03*
X254000Y152400D03*
D14*
X241300Y952500D03*
X215900Y952500D03*
X190500Y952500D03*
D11*
X254000Y914400D03*
X177800Y914400D03*
D12*
X63500Y850900D03*
X139700Y850900D03*
D17*
X25400Y952500D03*
X25400Y876300D03*
D12*
X63500Y736600D03*
X139700Y736600D03*
D11*
X139700Y711200D03*
X63500Y711200D03*
D17*
X38100Y698500D03*
X38100Y622300D03*
D14*
X406400Y190500D03*
X406400Y215900D03*
X406400Y241300D03*
D11*
X368300Y342900D03*
X292100Y342900D03*
D12*
X292100Y584200D03*
X368300Y584200D03*
D11*
X146050Y368300D03*
X69850Y368300D03*
D12*
X63500Y482600D03*
X139700Y482600D03*
X292100Y482600D03*
X368300Y482600D03*
X292100Y609600D03*
X368300Y609600D03*
X292100Y292100D03*
X368300Y292100D03*
D18*
X165100Y38100D03*
X165100Y63500D03*
X190500Y38100D03*
X190500Y63500D03*
X215900Y38100D03*
X215900Y63500D03*
X241300Y38100D03*
X241300Y63500D03*
X266700Y38100D03*
X266700Y63500D03*
D19*
X95250Y50800D03*
D20*
X69850Y50800D03*
D19*
X361950Y50800D03*
D20*
X336550Y50800D03*
D21*
X228600Y215900D03*
X228600Y558800D03*
X228600Y774700D03*
X228600Y520700D03*
X114300Y215900D03*
X114300Y317500D03*
X76200Y152400D03*
X311150Y457200D03*
X254000Y457200D03*
X304800Y381000D03*
X381000Y355600D03*
X368300Y393700D03*
X368300Y463550D03*
X101600Y571500D03*
X215900Y584200D03*
X215900Y533400D03*
X279400Y304800D03*
X101600Y304800D03*
X63500Y171450D03*
X88900Y457200D03*
X330200Y368300D03*
X158750Y355600D03*
X330200Y482600D03*
X215900Y292100D03*
X215900Y495300D03*
X368300Y762000D03*
X222250Y901700D03*
M02*
