G04 EAGLE Gerber RS-274X export*
G75*
%MOMM*%
%FSLAX34Y34*%
%LPD*%
%INBoard Outline*%
%IPPOS*%
%AMOC8*
5,1,8,0,0,1.08239X$1,22.5*%
G01*
%ADD10C,0.000000*%
%ADD11C,0.254000*%


D10*
X431800Y0D02*
X431800Y990600D01*
X0Y990600D01*
X0Y0D01*
X431800Y0D01*
X333248Y819150D02*
X333253Y819543D01*
X333267Y819935D01*
X333291Y820327D01*
X333325Y820718D01*
X333368Y821109D01*
X333421Y821498D01*
X333484Y821886D01*
X333555Y822272D01*
X333637Y822656D01*
X333728Y823038D01*
X333828Y823418D01*
X333937Y823795D01*
X334056Y824170D01*
X334183Y824541D01*
X334320Y824909D01*
X334466Y825274D01*
X334621Y825635D01*
X334784Y825992D01*
X334957Y826345D01*
X335137Y826693D01*
X335327Y827037D01*
X335525Y827377D01*
X335731Y827711D01*
X335945Y828040D01*
X336167Y828364D01*
X336397Y828682D01*
X336635Y828995D01*
X336880Y829302D01*
X337133Y829602D01*
X337393Y829896D01*
X337661Y830184D01*
X337935Y830465D01*
X338216Y830739D01*
X338504Y831007D01*
X338798Y831267D01*
X339098Y831520D01*
X339405Y831765D01*
X339718Y832003D01*
X340036Y832233D01*
X340360Y832455D01*
X340689Y832669D01*
X341023Y832875D01*
X341363Y833073D01*
X341707Y833263D01*
X342055Y833443D01*
X342408Y833616D01*
X342765Y833779D01*
X343126Y833934D01*
X343491Y834080D01*
X343859Y834217D01*
X344230Y834344D01*
X344605Y834463D01*
X344982Y834572D01*
X345362Y834672D01*
X345744Y834763D01*
X346128Y834845D01*
X346514Y834916D01*
X346902Y834979D01*
X347291Y835032D01*
X347682Y835075D01*
X348073Y835109D01*
X348465Y835133D01*
X348857Y835147D01*
X349250Y835152D01*
X349643Y835147D01*
X350035Y835133D01*
X350427Y835109D01*
X350818Y835075D01*
X351209Y835032D01*
X351598Y834979D01*
X351986Y834916D01*
X352372Y834845D01*
X352756Y834763D01*
X353138Y834672D01*
X353518Y834572D01*
X353895Y834463D01*
X354270Y834344D01*
X354641Y834217D01*
X355009Y834080D01*
X355374Y833934D01*
X355735Y833779D01*
X356092Y833616D01*
X356445Y833443D01*
X356793Y833263D01*
X357137Y833073D01*
X357477Y832875D01*
X357811Y832669D01*
X358140Y832455D01*
X358464Y832233D01*
X358782Y832003D01*
X359095Y831765D01*
X359402Y831520D01*
X359702Y831267D01*
X359996Y831007D01*
X360284Y830739D01*
X360565Y830465D01*
X360839Y830184D01*
X361107Y829896D01*
X361367Y829602D01*
X361620Y829302D01*
X361865Y828995D01*
X362103Y828682D01*
X362333Y828364D01*
X362555Y828040D01*
X362769Y827711D01*
X362975Y827377D01*
X363173Y827037D01*
X363363Y826693D01*
X363543Y826345D01*
X363716Y825992D01*
X363879Y825635D01*
X364034Y825274D01*
X364180Y824909D01*
X364317Y824541D01*
X364444Y824170D01*
X364563Y823795D01*
X364672Y823418D01*
X364772Y823038D01*
X364863Y822656D01*
X364945Y822272D01*
X365016Y821886D01*
X365079Y821498D01*
X365132Y821109D01*
X365175Y820718D01*
X365209Y820327D01*
X365233Y819935D01*
X365247Y819543D01*
X365252Y819150D01*
X365247Y818757D01*
X365233Y818365D01*
X365209Y817973D01*
X365175Y817582D01*
X365132Y817191D01*
X365079Y816802D01*
X365016Y816414D01*
X364945Y816028D01*
X364863Y815644D01*
X364772Y815262D01*
X364672Y814882D01*
X364563Y814505D01*
X364444Y814130D01*
X364317Y813759D01*
X364180Y813391D01*
X364034Y813026D01*
X363879Y812665D01*
X363716Y812308D01*
X363543Y811955D01*
X363363Y811607D01*
X363173Y811263D01*
X362975Y810923D01*
X362769Y810589D01*
X362555Y810260D01*
X362333Y809936D01*
X362103Y809618D01*
X361865Y809305D01*
X361620Y808998D01*
X361367Y808698D01*
X361107Y808404D01*
X360839Y808116D01*
X360565Y807835D01*
X360284Y807561D01*
X359996Y807293D01*
X359702Y807033D01*
X359402Y806780D01*
X359095Y806535D01*
X358782Y806297D01*
X358464Y806067D01*
X358140Y805845D01*
X357811Y805631D01*
X357477Y805425D01*
X357137Y805227D01*
X356793Y805037D01*
X356445Y804857D01*
X356092Y804684D01*
X355735Y804521D01*
X355374Y804366D01*
X355009Y804220D01*
X354641Y804083D01*
X354270Y803956D01*
X353895Y803837D01*
X353518Y803728D01*
X353138Y803628D01*
X352756Y803537D01*
X352372Y803455D01*
X351986Y803384D01*
X351598Y803321D01*
X351209Y803268D01*
X350818Y803225D01*
X350427Y803191D01*
X350035Y803167D01*
X349643Y803153D01*
X349250Y803148D01*
X348857Y803153D01*
X348465Y803167D01*
X348073Y803191D01*
X347682Y803225D01*
X347291Y803268D01*
X346902Y803321D01*
X346514Y803384D01*
X346128Y803455D01*
X345744Y803537D01*
X345362Y803628D01*
X344982Y803728D01*
X344605Y803837D01*
X344230Y803956D01*
X343859Y804083D01*
X343491Y804220D01*
X343126Y804366D01*
X342765Y804521D01*
X342408Y804684D01*
X342055Y804857D01*
X341707Y805037D01*
X341363Y805227D01*
X341023Y805425D01*
X340689Y805631D01*
X340360Y805845D01*
X340036Y806067D01*
X339718Y806297D01*
X339405Y806535D01*
X339098Y806780D01*
X338798Y807033D01*
X338504Y807293D01*
X338216Y807561D01*
X337935Y807835D01*
X337661Y808116D01*
X337393Y808404D01*
X337133Y808698D01*
X336880Y808998D01*
X336635Y809305D01*
X336397Y809618D01*
X336167Y809936D01*
X335945Y810260D01*
X335731Y810589D01*
X335525Y810923D01*
X335327Y811263D01*
X335137Y811607D01*
X334957Y811955D01*
X334784Y812308D01*
X334621Y812665D01*
X334466Y813026D01*
X334320Y813391D01*
X334183Y813759D01*
X334056Y814130D01*
X333937Y814505D01*
X333828Y814882D01*
X333728Y815262D01*
X333637Y815644D01*
X333555Y816028D01*
X333484Y816414D01*
X333421Y816802D01*
X333368Y817191D01*
X333325Y817582D01*
X333291Y817973D01*
X333267Y818365D01*
X333253Y818757D01*
X333248Y819150D01*
D11*
X0Y0D02*
X431800Y0D01*
X431800Y990600D01*
X0Y990600D01*
X0Y0D01*
X365252Y818626D02*
X365183Y817581D01*
X365047Y816542D01*
X364842Y815514D01*
X364571Y814502D01*
X364234Y813510D01*
X363833Y812542D01*
X363370Y811603D01*
X362846Y810695D01*
X362264Y809824D01*
X361626Y808993D01*
X360936Y808205D01*
X360195Y807464D01*
X359407Y806774D01*
X358576Y806136D01*
X357705Y805554D01*
X356797Y805030D01*
X355858Y804567D01*
X354890Y804166D01*
X353898Y803829D01*
X352886Y803558D01*
X351858Y803353D01*
X350819Y803217D01*
X349774Y803148D01*
X348726Y803148D01*
X347681Y803217D01*
X346642Y803353D01*
X345614Y803558D01*
X344602Y803829D01*
X343610Y804166D01*
X342642Y804567D01*
X341703Y805030D01*
X340795Y805554D01*
X339924Y806136D01*
X339093Y806774D01*
X338305Y807464D01*
X337564Y808205D01*
X336874Y808993D01*
X336236Y809824D01*
X335654Y810695D01*
X335130Y811603D01*
X334667Y812542D01*
X334266Y813510D01*
X333929Y814502D01*
X333658Y815514D01*
X333453Y816542D01*
X333317Y817581D01*
X333248Y818626D01*
X333248Y819674D01*
X333317Y820719D01*
X333453Y821758D01*
X333658Y822786D01*
X333929Y823798D01*
X334266Y824790D01*
X334667Y825758D01*
X335130Y826697D01*
X335654Y827605D01*
X336236Y828476D01*
X336874Y829307D01*
X337564Y830095D01*
X338305Y830836D01*
X339093Y831526D01*
X339924Y832164D01*
X340795Y832746D01*
X341703Y833270D01*
X342642Y833733D01*
X343610Y834134D01*
X344602Y834471D01*
X345614Y834742D01*
X346642Y834947D01*
X347681Y835083D01*
X348726Y835152D01*
X349774Y835152D01*
X350819Y835083D01*
X351858Y834947D01*
X352886Y834742D01*
X353898Y834471D01*
X354890Y834134D01*
X355858Y833733D01*
X356797Y833270D01*
X357705Y832746D01*
X358576Y832164D01*
X359407Y831526D01*
X360195Y830836D01*
X360936Y830095D01*
X361626Y829307D01*
X362264Y828476D01*
X362846Y827605D01*
X363370Y826697D01*
X363833Y825758D01*
X364234Y824790D01*
X364571Y823798D01*
X364842Y822786D01*
X365047Y821758D01*
X365183Y820719D01*
X365252Y819674D01*
X365252Y818626D01*
M02*
