M48
;GenerationSoftware,Autodesk,EAGLE,9.6.2*%
;CreationDate,2022-05-28T20:24:52Z*%
FMAT,2
ICI,OFF
METRIC,TZ,000.000
T6C0.350
T5C0.610
T4C0.813
T3C0.914
T2C1.016
T1C3.200
%
G90
M71
T1
X34925Y81915
T2
X40640Y57150
X40640Y54610
X40640Y52070
X40640Y49530
X40640Y46990
X40640Y44450
X2540Y15240
X2540Y12700
X2540Y10160
X2540Y7620
X2540Y5080
X2540Y2540
X3175Y20447
X3175Y35433
T3
X26670Y6350
X26670Y3810
X24130Y6350
X24130Y3810
X21590Y6350
X21590Y3810
X19050Y6350
X19050Y3810
X16510Y6350
X16510Y3810
T4
X33655Y5080
X29210Y53340
X36195Y5080
X33020Y77470
X27940Y77470
X19050Y17780
X24130Y17780
X8890Y24130
X13970Y24130
X34290Y26670
X29210Y26670
X34290Y31750
X29210Y31750
X6985Y5080
X9525Y5080
X8890Y21590
X13970Y21590
X34290Y55880
X29210Y55880
X8890Y55880
X13970Y55880
X8890Y77470
X13970Y77470
X36830Y34290
X3810Y62230
X3810Y69850
X25400Y21590
X25400Y24130
X25400Y26670
X25400Y29210
X25400Y31750
X25400Y34290
X25400Y36830
X25400Y39370
X17780Y39370
X17780Y36830
X17780Y34290
X17780Y31750
X17780Y29210
X17780Y26670
X17780Y24130
X17780Y21590
X25400Y48260
X25400Y50800
X25400Y63500
X17780Y63500
X25400Y53340
X25400Y55880
X25400Y60960
X25400Y58420
X17780Y60960
X17780Y58420
X17780Y55880
X17780Y53340
X17780Y50800
X17780Y48260
X25400Y69850
X25400Y72390
X25400Y85090
X17780Y85090
X25400Y74930
X25400Y77470
X25400Y82550
X25400Y80010
X17780Y82550
X17780Y80010
X17780Y77470
X17780Y74930
X17780Y72390
X17780Y69850
X13335Y91440
X36830Y29210
X29210Y29210
X36830Y60960
X29210Y60960
X36830Y48260
X29210Y48260
X13970Y48260
X6350Y48260
X6985Y36830
X14605Y36830
X36830Y58420
X11430Y90170
X29210Y58420
X11430Y92710
X6350Y90170
X8255Y91440
X6350Y92710
X29210Y21590
X36830Y21590
X29210Y86995
X36830Y86995
X13970Y82550
X6350Y82550
X13970Y80010
X6350Y80010
X29210Y34290
X36830Y53340
X29210Y50800
X36830Y50800
X17780Y88900
X25400Y88900
X6350Y71120
X13970Y71120
X13970Y73660
X13970Y63500
X6350Y63500
X13970Y60960
X6350Y60960
X14605Y26670
X6985Y26670
X13970Y58420
X6350Y58420
X36830Y73660
X29210Y73660
X6350Y73660
X2540Y87630
X2540Y95250
X14605Y39370
X6985Y39370
X6350Y50800
X13970Y50800
X36830Y71120
X29210Y71120
X36830Y36830
X29210Y36830
X6985Y19050
X14605Y19050
X29210Y19050
X36830Y19050
X36830Y24130
X29210Y24130
X6985Y31750
X14605Y31750
X14605Y29210
X6985Y29210
X36830Y92075
X29210Y92075
X29210Y89535
X36830Y89535
X3810Y80010
X3810Y72390
X13970Y96520
X6350Y96520
X17780Y15240
X25400Y15240
X13970Y85090
X6350Y85090
X17780Y91440
X25400Y91440
T5
X19050Y95250
X21590Y95250
X24130Y95250
X7620Y43815
X10160Y43815
X12700Y43815
X30480Y67310
X33020Y67310
X35560Y67310
X35560Y43180
X33020Y43180
X40640Y19050
X40640Y21590
X40640Y24130
X30480Y43180
T6
X22225Y90170
X36830Y76200
X38100Y35560
X36830Y39370
X36830Y46355
X10160Y57150
X21590Y58420
X21590Y53340
X27940Y30480
X10160Y30480
X6350Y17145
X8890Y45720
X33020Y36830
X30480Y38100
X25400Y45720
X31115Y45720
X7620Y15240
X11430Y31750
X11430Y21590
X22860Y52070
X22860Y77470
X22860Y55880
X15875Y35560
X33020Y48260
X21590Y29210
X21590Y49530
X22860Y21590
M30