G04 EAGLE Gerber RS-274X export*
G75*
%MOMM*%
%FSLAX34Y34*%
%LPD*%
%IN*%
%IPPOS*%
%AMOC8*
5,1,8,0,0,1.08239X$1,22.5*%
G01*
%ADD10C,0.254000*%


D10*
X0Y0D02*
X431800Y0D01*
X431800Y990600D01*
X0Y990600D01*
X0Y0D01*
X365252Y818626D02*
X365183Y817581D01*
X365047Y816542D01*
X364842Y815514D01*
X364571Y814502D01*
X364234Y813510D01*
X363833Y812542D01*
X363370Y811603D01*
X362846Y810695D01*
X362264Y809824D01*
X361626Y808993D01*
X360936Y808205D01*
X360195Y807464D01*
X359407Y806774D01*
X358576Y806136D01*
X357705Y805554D01*
X356797Y805030D01*
X355858Y804567D01*
X354890Y804166D01*
X353898Y803829D01*
X352886Y803558D01*
X351858Y803353D01*
X350819Y803217D01*
X349774Y803148D01*
X348726Y803148D01*
X347681Y803217D01*
X346642Y803353D01*
X345614Y803558D01*
X344602Y803829D01*
X343610Y804166D01*
X342642Y804567D01*
X341703Y805030D01*
X340795Y805554D01*
X339924Y806136D01*
X339093Y806774D01*
X338305Y807464D01*
X337564Y808205D01*
X336874Y808993D01*
X336236Y809824D01*
X335654Y810695D01*
X335130Y811603D01*
X334667Y812542D01*
X334266Y813510D01*
X333929Y814502D01*
X333658Y815514D01*
X333453Y816542D01*
X333317Y817581D01*
X333248Y818626D01*
X333248Y819674D01*
X333317Y820719D01*
X333453Y821758D01*
X333658Y822786D01*
X333929Y823798D01*
X334266Y824790D01*
X334667Y825758D01*
X335130Y826697D01*
X335654Y827605D01*
X336236Y828476D01*
X336874Y829307D01*
X337564Y830095D01*
X338305Y830836D01*
X339093Y831526D01*
X339924Y832164D01*
X340795Y832746D01*
X341703Y833270D01*
X342642Y833733D01*
X343610Y834134D01*
X344602Y834471D01*
X345614Y834742D01*
X346642Y834947D01*
X347681Y835083D01*
X348726Y835152D01*
X349774Y835152D01*
X350819Y835083D01*
X351858Y834947D01*
X352886Y834742D01*
X353898Y834471D01*
X354890Y834134D01*
X355858Y833733D01*
X356797Y833270D01*
X357705Y832746D01*
X358576Y832164D01*
X359407Y831526D01*
X360195Y830836D01*
X360936Y830095D01*
X361626Y829307D01*
X362264Y828476D01*
X362846Y827605D01*
X363370Y826697D01*
X363833Y825758D01*
X364234Y824790D01*
X364571Y823798D01*
X364842Y822786D01*
X365047Y821758D01*
X365183Y820719D01*
X365252Y819674D01*
X365252Y818626D01*
M02*
